<svg width="324" height="488" viewBox="0 0 324 488" fill="none" xmlns="http://www.w3.org/2000/svg">
<g clip-path="url(#clip0_48_1149)">
<rect width="324" height="488" rx="32" fill="#171513"/>
<path d="M32.416 455.352C32.4693 456.013 32.736 456.547 33.216 456.952C33.7067 457.347 34.3413 457.544 35.12 457.544C35.8027 457.544 36.352 457.4 36.768 457.112C37.1947 456.813 37.408 456.403 37.408 455.88C37.408 455.507 37.2907 455.213 37.056 455C36.832 454.776 36.5227 454.605 36.128 454.488C35.7333 454.371 35.1787 454.248 34.464 454.12C33.7387 453.992 33.1147 453.827 32.592 453.624C32.08 453.411 31.6587 453.091 31.328 452.664C31.008 452.237 30.848 451.677 30.848 450.984C30.848 450.344 31.0133 449.773 31.344 449.272C31.6853 448.771 32.1547 448.381 32.752 448.104C33.36 447.827 34.0533 447.688 34.832 447.688C35.632 447.688 36.3467 447.837 36.976 448.136C37.6053 448.435 38.1013 448.845 38.464 449.368C38.8267 449.891 39.024 450.488 39.056 451.16H37.248C37.184 450.584 36.9333 450.12 36.496 449.768C36.0587 449.416 35.504 449.24 34.832 449.24C34.1813 449.24 33.6587 449.384 33.264 449.672C32.88 449.949 32.688 450.344 32.688 450.856C32.688 451.219 32.8 451.507 33.024 451.72C33.2587 451.933 33.568 452.093 33.952 452.2C34.336 452.307 34.8853 452.424 35.6 452.552C36.3253 452.68 36.9493 452.851 37.472 453.064C37.9947 453.277 38.4213 453.592 38.752 454.008C39.0827 454.424 39.248 454.973 39.248 455.656C39.248 456.317 39.072 456.909 38.72 457.432C38.368 457.955 37.8773 458.365 37.248 458.664C36.6187 458.952 35.904 459.096 35.104 459.096C34.2187 459.096 33.44 458.936 32.768 458.616C32.096 458.296 31.568 457.853 31.184 457.288C30.8107 456.712 30.6187 456.056 30.608 455.32L32.416 455.352ZM40.8678 447.8H44.4358C45.5771 447.8 46.5744 448.035 47.4278 448.504C48.2811 448.973 48.9371 449.629 49.3958 450.472C49.8544 451.315 50.0838 452.291 50.0838 453.4C50.0838 454.499 49.8544 455.475 49.3958 456.328C48.9371 457.171 48.2811 457.827 47.4278 458.296C46.5744 458.765 45.5771 459 44.4358 459H40.8678V447.8ZM44.4358 457.4C45.6411 457.4 46.5691 457.043 47.2198 456.328C47.8704 455.603 48.1958 454.627 48.1958 453.4C48.1958 452.173 47.8704 451.203 47.2198 450.488C46.5691 449.763 45.6411 449.4 44.4358 449.4H42.7078V457.4H44.4358ZM51.6959 447.8H59.0079V449.432H53.5359V452.536H58.0479V454.12H53.5359V457.368H59.1999V459H51.6959V447.8ZM64.8053 447.8H66.6453V459H64.8053V447.8ZM72.8399 450.712C73.8105 450.712 74.5999 451.011 75.2079 451.608C75.8265 452.205 76.1359 453.165 76.1359 454.488V459H74.3919V454.584C74.3919 453.805 74.2265 453.213 73.8959 452.808C73.5652 452.403 73.0799 452.2 72.4399 452.2C71.7572 452.2 71.2185 452.44 70.8239 452.92C70.4399 453.389 70.2479 454.04 70.2479 454.872V459H68.5199V450.808H70.0239L70.2159 451.88C70.8345 451.101 71.7092 450.712 72.8399 450.712ZM78.2354 452.328H76.8114V450.808H78.2354V448.52H79.9794V450.808H81.9474V452.328H79.9794V456.6C79.9794 456.92 80.0434 457.149 80.1714 457.288C80.2994 457.416 80.518 457.48 80.8274 457.48H82.1394V459H80.4754C79.6967 459 79.126 458.819 78.7634 458.456C78.4114 458.093 78.2354 457.533 78.2354 456.776V452.328ZM82.5909 454.92C82.5909 454.077 82.7562 453.341 83.0869 452.712C83.4282 452.072 83.8975 451.581 84.4949 451.24C85.1029 450.888 85.7962 450.712 86.5749 450.712C87.3642 450.712 88.0575 450.872 88.6549 451.192C89.2629 451.512 89.7375 451.965 90.0789 452.552C90.4309 453.139 90.6122 453.827 90.6229 454.616C90.6229 454.829 90.6069 455.048 90.5749 455.272H84.3989V455.368C84.4415 456.083 84.6655 456.648 85.0709 457.064C85.4762 457.48 86.0149 457.688 86.6869 457.688C87.2202 457.688 87.6682 457.565 88.0309 457.32C88.3935 457.064 88.6335 456.707 88.7509 456.248H90.4789C90.3295 457.08 89.9242 457.763 89.2629 458.296C88.6122 458.829 87.7962 459.096 86.8149 459.096C85.9615 459.096 85.2149 458.925 84.5749 458.584C83.9455 458.232 83.4549 457.741 83.1029 457.112C82.7615 456.483 82.5909 455.752 82.5909 454.92ZM88.8629 454.008C88.7882 453.411 88.5482 452.947 88.1429 452.616C87.7482 452.275 87.2469 452.104 86.6389 452.104C86.0735 452.104 85.5829 452.28 85.1669 452.632C84.7615 452.973 84.5269 453.432 84.4629 454.008H88.8629ZM96.5479 450.808V452.424H95.7799C95.0652 452.424 94.5479 452.659 94.2279 453.128C93.9079 453.587 93.7479 454.173 93.7479 454.888V459H92.0199V450.808H93.5559L93.7479 452.04C93.9825 451.656 94.2865 451.357 94.6599 451.144C95.0332 450.92 95.5345 450.808 96.1639 450.808H96.5479ZM101.965 450.712C102.936 450.712 103.725 451.011 104.333 451.608C104.952 452.205 105.261 453.165 105.261 454.488V459H103.517V454.584C103.517 453.805 103.352 453.213 103.021 452.808C102.69 452.403 102.205 452.2 101.565 452.2C100.882 452.2 100.344 452.44 99.9489 452.92C99.5649 453.389 99.3729 454.04 99.3729 454.872V459H97.6449V450.808H99.1489L99.3409 451.88C99.9595 451.101 100.834 450.712 101.965 450.712Z" fill="#FAF8F6"/>
<rect x="8" y="477" width="77" height="7" fill="#FFAA00"/>
<rect x="85" y="477" width="78" height="7" fill="#29221C"/>
<rect x="163" y="477" width="77" height="7" fill="#E9DCD2"/>
<rect x="240" y="477" width="77" height="7" fill="#F2EFEC"/>
<path d="M184.896 449.2H188.018C189.017 449.2 189.889 449.405 190.636 449.816C191.383 450.227 191.957 450.801 192.358 451.538C192.759 452.275 192.96 453.129 192.96 454.1C192.96 455.061 192.759 455.915 192.358 456.662C191.957 457.399 191.383 457.973 190.636 458.384C189.889 458.795 189.017 459 188.018 459H184.896V449.2ZM188.018 457.6C189.073 457.6 189.885 457.287 190.454 456.662C191.023 456.027 191.308 455.173 191.308 454.1C191.308 453.027 191.023 452.177 190.454 451.552C189.885 450.917 189.073 450.6 188.018 450.6H186.506V457.6H188.018ZM193.951 455.43C193.951 454.693 194.095 454.049 194.385 453.498C194.683 452.938 195.094 452.509 195.617 452.21C196.149 451.902 196.755 451.748 197.437 451.748C198.127 451.748 198.734 451.888 199.257 452.168C199.789 452.448 200.204 452.845 200.503 453.358C200.811 453.871 200.969 454.473 200.979 455.164C200.979 455.351 200.965 455.542 200.937 455.738H195.533V455.822C195.57 456.447 195.766 456.942 196.121 457.306C196.475 457.67 196.947 457.852 197.535 457.852C198.001 457.852 198.393 457.745 198.711 457.53C199.028 457.306 199.238 456.993 199.341 456.592H200.853C200.722 457.32 200.367 457.917 199.789 458.384C199.219 458.851 198.505 459.084 197.647 459.084C196.9 459.084 196.247 458.935 195.687 458.636C195.136 458.328 194.707 457.899 194.399 457.348C194.1 456.797 193.951 456.158 193.951 455.43ZM199.439 454.632C199.373 454.109 199.163 453.703 198.809 453.414C198.463 453.115 198.025 452.966 197.493 452.966C196.998 452.966 196.569 453.12 196.205 453.428C195.85 453.727 195.645 454.128 195.589 454.632H199.439ZM208.809 456.424C208.669 457.255 208.31 457.908 207.731 458.384C207.152 458.851 206.41 459.084 205.505 459.084C204.796 459.084 204.17 458.935 203.629 458.636C203.088 458.328 202.668 457.894 202.369 457.334C202.08 456.774 201.935 456.13 201.935 455.402C201.935 454.674 202.084 454.035 202.383 453.484C202.682 452.933 203.102 452.509 203.643 452.21C204.194 451.902 204.828 451.748 205.547 451.748C206.443 451.748 207.176 451.986 207.745 452.462C208.314 452.929 208.669 453.568 208.809 454.38H207.255C207.152 453.969 206.947 453.643 206.639 453.4C206.331 453.157 205.953 453.036 205.505 453.036C204.898 453.036 204.408 453.255 204.035 453.694C203.671 454.133 203.489 454.702 203.489 455.402C203.489 456.111 203.671 456.69 204.035 457.138C204.408 457.577 204.898 457.796 205.505 457.796C205.972 457.796 206.359 457.675 206.667 457.432C206.975 457.18 207.176 456.844 207.269 456.424H208.809ZM214.303 449.116C214.677 449.116 214.98 449.27 215.213 449.578C215.447 449.886 215.563 450.269 215.563 450.726C215.563 451.398 215.363 451.921 214.961 452.294C214.56 452.667 214.009 452.859 213.309 452.868V452.056C213.72 452.047 214.028 451.939 214.233 451.734C214.439 451.529 214.541 451.286 214.541 451.006C214.541 450.922 214.537 450.861 214.527 450.824C214.406 450.917 214.252 450.964 214.065 450.964C213.823 450.964 213.622 450.889 213.463 450.74C213.314 450.581 213.239 450.357 213.239 450.068C213.239 449.797 213.337 449.573 213.533 449.396C213.729 449.209 213.986 449.116 214.303 449.116ZM220.248 454.548C220.762 454.128 221.144 453.736 221.396 453.372C221.658 453.008 221.788 452.611 221.788 452.182C221.788 451.631 221.62 451.202 221.284 450.894C220.948 450.586 220.491 450.432 219.912 450.432C219.352 450.432 218.9 450.614 218.554 450.978C218.218 451.333 218.05 451.809 218.05 452.406V452.588H216.496V452.322C216.496 451.706 216.636 451.155 216.916 450.67C217.206 450.185 217.607 449.802 218.12 449.522C218.634 449.242 219.231 449.102 219.912 449.102C221.004 449.102 221.854 449.377 222.46 449.928C223.067 450.469 223.37 451.197 223.37 452.112C223.37 452.775 223.198 453.358 222.852 453.862C222.507 454.357 221.989 454.893 221.298 455.472L218.694 457.642H223.426V459H216.482V457.754L220.248 454.548ZM228.555 452.392C229.171 452.392 229.721 452.532 230.207 452.812C230.701 453.092 231.089 453.484 231.369 453.988C231.649 454.492 231.789 455.066 231.789 455.71C231.789 456.419 231.63 457.026 231.313 457.53C230.995 458.034 230.566 458.417 230.025 458.678C229.483 458.939 228.886 459.07 228.233 459.07C227.514 459.07 226.884 458.93 226.343 458.65C225.811 458.37 225.395 457.992 225.097 457.516C224.798 457.031 224.63 456.494 224.593 455.906H226.133C226.189 456.438 226.408 456.881 226.791 457.236C227.173 457.591 227.654 457.768 228.233 457.768C228.578 457.768 228.9 457.689 229.199 457.53C229.507 457.371 229.754 457.138 229.941 456.83C230.127 456.522 230.221 456.149 230.221 455.71C230.221 455.113 230.039 454.623 229.675 454.24C229.32 453.857 228.844 453.666 228.247 453.666C227.855 453.666 227.467 453.755 227.085 453.932C226.702 454.109 226.431 454.422 226.273 454.87L224.775 454.842L225.069 449.2H231.173V450.558H226.497L226.315 453.288C226.595 452.98 226.931 452.756 227.323 452.616C227.715 452.467 228.125 452.392 228.555 452.392ZM236.502 455.64V454.408H241.262V455.64H236.502ZM250.256 449.2C250.928 449.2 251.521 449.331 252.034 449.592C252.547 449.844 252.944 450.208 253.224 450.684C253.504 451.151 253.644 451.697 253.644 452.322C253.644 452.947 253.504 453.498 253.224 453.974C252.944 454.441 252.547 454.805 252.034 455.066C251.521 455.318 250.928 455.444 250.256 455.444H248.002V459H246.392V449.2H250.256ZM248.002 454.044H250.116C250.695 454.044 251.152 453.89 251.488 453.582C251.833 453.265 252.006 452.845 252.006 452.322C252.006 451.79 251.838 451.37 251.502 451.062C251.166 450.754 250.709 450.6 250.13 450.6H248.002V454.044ZM258.69 451.832V453.246H258.018C257.393 453.246 256.94 453.451 256.66 453.862C256.38 454.263 256.24 454.777 256.24 455.402V459H254.728V451.832H256.072L256.24 452.91C256.446 452.574 256.712 452.313 257.038 452.126C257.365 451.93 257.804 451.832 258.354 451.832H258.69ZM259.042 455.43C259.042 454.693 259.187 454.049 259.476 453.498C259.775 452.938 260.186 452.509 260.708 452.21C261.24 451.902 261.847 451.748 262.528 451.748C263.219 451.748 263.826 451.888 264.348 452.168C264.88 452.448 265.296 452.845 265.594 453.358C265.902 453.871 266.061 454.473 266.07 455.164C266.07 455.351 266.056 455.542 266.028 455.738H260.624V455.822C260.662 456.447 260.858 456.942 261.212 457.306C261.567 457.67 262.038 457.852 262.626 457.852C263.093 457.852 263.485 457.745 263.802 457.53C264.12 457.306 264.33 456.993 264.432 456.592H265.944C265.814 457.32 265.459 457.917 264.88 458.384C264.311 458.851 263.597 459.084 262.738 459.084C261.992 459.084 261.338 458.935 260.778 458.636C260.228 458.328 259.798 457.899 259.49 457.348C259.192 456.797 259.042 456.158 259.042 455.43ZM264.53 454.632C264.465 454.109 264.255 453.703 263.9 453.414C263.555 453.115 263.116 452.966 262.584 452.966C262.09 452.966 261.66 453.12 261.296 453.428C260.942 453.727 260.736 454.128 260.68 454.632H264.53ZM268.456 456.634C268.484 457.007 268.656 457.315 268.974 457.558C269.3 457.791 269.72 457.908 270.234 457.908C270.691 457.908 271.06 457.824 271.34 457.656C271.629 457.479 271.774 457.245 271.774 456.956C271.774 456.713 271.708 456.531 271.578 456.41C271.447 456.289 271.27 456.205 271.046 456.158C270.831 456.102 270.495 456.046 270.038 455.99C269.412 455.915 268.894 455.817 268.484 455.696C268.082 455.565 267.756 455.365 267.504 455.094C267.261 454.814 267.14 454.441 267.14 453.974C267.14 453.535 267.261 453.148 267.504 452.812C267.756 452.467 268.096 452.201 268.526 452.014C268.964 451.827 269.459 451.734 270.01 451.734C270.915 451.734 271.648 451.935 272.208 452.336C272.777 452.737 273.085 453.302 273.132 454.03H271.662C271.624 453.703 271.461 453.437 271.172 453.232C270.882 453.017 270.518 452.91 270.08 452.91C269.641 452.91 269.286 452.994 269.016 453.162C268.745 453.33 268.61 453.559 268.61 453.848C268.61 454.063 268.675 454.226 268.806 454.338C268.946 454.441 269.118 454.515 269.324 454.562C269.529 454.599 269.86 454.646 270.318 454.702C270.934 454.767 271.452 454.87 271.872 455.01C272.292 455.141 272.628 455.355 272.88 455.654C273.132 455.943 273.258 456.34 273.258 456.844C273.258 457.292 273.127 457.689 272.866 458.034C272.604 458.37 272.245 458.631 271.788 458.818C271.33 458.995 270.817 459.084 270.248 459.084C269.286 459.084 268.507 458.869 267.91 458.44C267.322 458.001 267.018 457.399 267 456.634H268.456ZM274.218 455.43C274.218 454.693 274.363 454.049 274.652 453.498C274.951 452.938 275.362 452.509 275.884 452.21C276.416 451.902 277.023 451.748 277.704 451.748C278.395 451.748 279.002 451.888 279.524 452.168C280.056 452.448 280.472 452.845 280.77 453.358C281.078 453.871 281.237 454.473 281.246 455.164C281.246 455.351 281.232 455.542 281.204 455.738H275.8V455.822C275.838 456.447 276.034 456.942 276.388 457.306C276.743 457.67 277.214 457.852 277.802 457.852C278.269 457.852 278.661 457.745 278.978 457.53C279.296 457.306 279.506 456.993 279.608 456.592H281.12C280.99 457.32 280.635 457.917 280.056 458.384C279.487 458.851 278.773 459.084 277.914 459.084C277.168 459.084 276.514 458.935 275.954 458.636C275.404 458.328 274.974 457.899 274.666 457.348C274.368 456.797 274.218 456.158 274.218 455.43ZM279.706 454.632C279.641 454.109 279.431 453.703 279.076 453.414C278.731 453.115 278.292 452.966 277.76 452.966C277.266 452.966 276.836 453.12 276.472 453.428C276.118 453.727 275.912 454.128 275.856 454.632H279.706ZM286.249 451.748C287.098 451.748 287.789 452.009 288.321 452.532C288.862 453.055 289.133 453.895 289.133 455.052V459H287.607V455.136C287.607 454.455 287.462 453.937 287.173 453.582C286.883 453.227 286.459 453.05 285.899 453.05C285.301 453.05 284.83 453.26 284.485 453.68C284.149 454.091 283.981 454.66 283.981 455.388V459H282.469V451.832H283.785L283.953 452.77C284.494 452.089 285.259 451.748 286.249 451.748ZM290.97 453.162H289.724V451.832H290.97V449.83H292.496V451.832H294.218V453.162H292.496V456.9C292.496 457.18 292.552 457.381 292.664 457.502C292.776 457.614 292.967 457.67 293.238 457.67H294.386V459H292.93C292.248 459 291.749 458.841 291.432 458.524C291.124 458.207 290.97 457.717 290.97 457.054V453.162Z" fill="#FAF8F6" fill-opacity="0.5"/>
<path d="M-123 368C-114.783 330.64 -86.491 229.38 -56.9804 249.136C-20.0922 273.832 -18.5408 362.301 35.4125 354.16C89.3658 346.018 105.052 130.544 168.486 157.41C231.92 184.277 262.466 392.041 286.046 294.728C321.555 148.183 323.796 91.4651 335 57" stroke="#FFAA00" stroke-opacity="0.1" stroke-width="6"/>
<path d="M-189 197L136.098 197L158.263 208.682L161 233.133L144.855 291H-189V197Z" fill="#29221C"/>
<path d="M139 197L509 197V291H191.232L168.534 221.994L139 197Z" fill="#FAF8F6"/>
<path d="M136.183 196.273L136.183 209.661L144.066 209.661C146.819 209.661 148.946 210.203 150.447 211.288C151.949 212.289 153.116 213.707 153.951 215.542C154.868 217.294 155.702 219.337 156.453 221.673L176.974 291.368L193.866 291.368L171.969 221.298C170.634 216.96 169.216 213.248 167.714 210.161C166.296 206.992 164.628 204.406 162.709 202.404C160.791 200.318 158.33 198.775 155.327 197.774C152.324 196.773 148.57 196.273 144.066 196.273L136.183 196.273ZM150.447 221.298L128.55 291.368L145.442 291.368L165.212 221.298L150.447 221.298Z" fill="#FFAA00"/>
<rect x="119.331" y="219.733" width="84.0684" height="13.6856" fill="#FFAA00"/>
<path d="M71.5186 29L71.5186 33.1685L73.9008 33.1685C74.7327 33.1685 75.3756 33.3373 75.8293 33.675C76.2831 33.9867 76.636 34.4282 76.8881 34.9996C77.1654 35.545 77.4175 36.1813 77.6444 36.9085L83.8459 58.6082L88.9507 58.6082L82.3333 36.7916C81.93 35.4411 81.5014 34.2853 81.0476 33.3244C80.6191 32.3374 80.1149 31.5323 79.5351 30.909C78.9553 30.2597 78.2116 29.7792 77.3041 29.4675C76.3965 29.1558 75.2621 29 73.9008 29L71.5186 29ZM75.8293 36.7916L69.2119 58.6082L74.3168 58.6082L80.2914 36.7916L75.8293 36.7916Z" fill="#FFAA00"/>
<path d="M44.2788 36.7916H212.059V40.9472H44.2788V36.7916Z" fill="#FFAA00"/>
<path d="M222.123 49.2998C222.098 51.095 221.675 52.7032 220.852 54.1244C220.029 55.5456 218.882 56.6676 217.411 57.4904C215.965 58.2882 214.257 58.6871 212.287 58.6871C210.143 58.6871 208.26 58.2259 206.64 57.3034C205.044 56.3559 203.797 55.0469 202.9 53.3764C202.027 51.7058 201.591 49.7984 201.591 47.6542C201.591 45.485 202.027 43.5651 202.9 41.8946C203.797 40.2241 205.044 38.9151 206.64 37.9676C208.26 37.0201 210.143 36.5464 212.287 36.5464C214.182 36.5464 215.853 36.9703 217.299 37.818C218.77 38.6408 219.917 39.7254 220.74 41.0718C221.587 42.3933 222.024 43.8269 222.049 45.3728H217.112C217.087 44.5999 216.9 43.8768 216.551 43.2036C216.227 42.5055 215.716 41.9445 215.017 41.5206C214.319 41.0718 213.409 40.8474 212.287 40.8474C210.941 40.8474 209.831 41.1466 208.959 41.745C208.086 42.3185 207.438 43.1288 207.014 44.176C206.615 45.1983 206.415 46.3577 206.415 47.6542C206.415 48.9258 206.615 50.0727 207.014 51.095C207.438 52.1172 208.086 52.9276 208.959 53.526C209.831 54.0994 210.941 54.3862 212.287 54.3862C213.434 54.3862 214.369 54.1493 215.092 53.6756C215.815 53.2018 216.351 52.5785 216.7 51.8056C217.049 51.0326 217.236 50.1974 217.261 49.2998H222.123Z" fill="#FAF8F6"/>
<path d="M193.947 37.1448H198.659V58.0888H193.947V37.1448ZM193.722 30.0388H198.846V35.2H193.722V30.0388Z" fill="#FAF8F6"/>
<path d="M179.235 37.1448H190.268V41.1466H179.235V37.1448ZM182.003 31.9088H186.715V52.03C186.715 52.7281 186.89 53.2517 187.239 53.6008C187.588 53.9249 188.112 54.087 188.81 54.087H190.867V58.0888H188.772C186.528 58.0888 184.833 57.5652 183.686 56.518C182.564 55.4708 182.003 53.9748 182.003 52.03V31.9088Z" fill="#FAF8F6"/>
<path d="M172.552 46.1208H177.227V58.0888H172.552V46.1208ZM168.364 36.5464C171.281 36.5464 173.487 37.4066 174.983 39.127C176.479 40.8474 177.227 43.1787 177.227 46.1208H172.552C172.552 45.0736 172.428 44.1511 172.178 43.3532C171.954 42.5304 171.53 41.8821 170.907 41.4084C170.308 40.9347 169.461 40.6978 168.364 40.6978C166.918 40.6978 165.82 41.0718 165.072 41.8198C164.324 42.5678 163.95 43.4654 163.95 44.5126H159.014C159.014 43.1163 159.375 41.8198 160.098 40.623C160.846 39.4013 161.918 38.4164 163.315 37.6684C164.711 36.9204 166.394 36.5464 168.364 36.5464ZM172.964 44.9988L173.749 48.2526C170.558 48.0531 168.227 48.3274 166.755 49.0754C165.284 49.7984 164.549 50.7334 164.549 51.8804C164.549 52.753 164.848 53.4013 165.446 53.8252C166.045 54.249 166.818 54.461 167.765 54.461C168.563 54.461 169.324 54.3114 170.047 54.0122C170.795 53.713 171.393 53.2268 171.842 52.5536C172.316 51.8554 172.552 50.9454 172.552 49.8234L173.562 51.5438C173.487 52.94 173.176 54.1742 172.627 55.2464C172.104 56.3185 171.343 57.1662 170.346 57.7896C169.373 58.388 168.189 58.6871 166.793 58.6871C165.422 58.6871 164.2 58.4378 163.128 57.9392C162.056 57.4156 161.208 56.6676 160.584 55.6952C159.961 54.7228 159.649 53.5384 159.649 52.1422C159.649 50.7958 159.911 49.6862 160.435 48.8136C160.983 47.9409 161.719 47.2428 162.641 46.7192C163.564 46.1956 164.599 45.8216 165.746 45.5972C166.893 45.3479 168.089 45.1858 169.336 45.111C170.583 45.0362 171.792 44.9988 172.964 44.9988Z" fill="#FAF8F6"/>
<path d="M126.189 37.1448H130.901V58.0888H126.189V37.1448ZM130.901 47.7664L130.303 43.5402C130.303 42.8919 130.403 42.1689 130.602 41.371C130.827 40.5731 131.188 39.8127 131.687 39.0896C132.185 38.3416 132.859 37.7307 133.706 37.257C134.579 36.7833 135.676 36.5464 136.998 36.5464C138.269 36.5464 139.391 36.8207 140.364 37.3692C141.336 37.9177 142.084 38.8278 142.608 40.0994C143.156 41.3461 143.43 43.0415 143.43 45.1858V58.0888H138.755V45.672C138.755 44.6996 138.693 43.8394 138.568 43.0914C138.444 42.3185 138.169 41.7201 137.746 41.2962C137.322 40.8474 136.648 40.623 135.726 40.623C134.978 40.623 134.23 40.8723 133.482 41.371C132.759 41.8697 132.148 42.6426 131.649 43.6898C131.151 44.737 130.901 46.0959 130.901 47.7664ZM143.43 47.7664L142.234 43.5402C142.234 42.8919 142.358 42.1689 142.608 41.371C142.882 40.5731 143.306 39.8127 143.879 39.0896C144.478 38.3416 145.238 37.7307 146.161 37.257C147.083 36.7833 148.217 36.5464 149.564 36.5464C150.835 36.5464 151.945 36.8207 152.892 37.3692C153.865 37.9177 154.625 38.8278 155.174 40.0994C155.722 41.3461 155.997 43.0415 155.997 45.1858V58.0888H151.284V45.672C151.284 44.6996 151.222 43.8394 151.097 43.0914C150.973 42.3185 150.698 41.7201 150.274 41.2962C149.876 40.8474 149.215 40.623 148.292 40.623C147.544 40.623 146.796 40.8723 146.048 41.371C145.3 41.8697 144.677 42.6426 144.178 43.6898C143.68 44.737 143.43 46.0959 143.43 47.7664Z" fill="#FAF8F6"/>
<path d="M104.276 30.0388H108.989V58.0888H104.276V30.0388ZM108.989 47.7664L108.39 43.5402C108.39 42.8919 108.49 42.1689 108.69 41.371C108.889 40.5732 109.251 39.8127 109.774 39.0896C110.323 38.3416 111.071 37.7308 112.018 37.257C112.991 36.7833 114.237 36.5464 115.758 36.5464C117.105 36.5464 118.301 36.8207 119.349 37.3692C120.396 37.9178 121.219 38.8278 121.817 40.0994C122.44 41.3461 122.752 43.0415 122.752 45.1858V58.0888H118.04V45.672C118.04 44.6996 117.952 43.8394 117.778 43.0914C117.603 42.3185 117.254 41.7201 116.731 41.2962C116.232 40.8474 115.484 40.623 114.487 40.623C113.614 40.623 112.754 40.8724 111.906 41.371C111.058 41.8697 110.36 42.6426 109.812 43.6898C109.263 44.737 108.989 46.0959 108.989 47.7664Z" fill="#FAF8F6"/>
<path d="M89.6802 37.1448H100.713V41.1466H89.6802V37.1448ZM92.4478 31.9088H97.1602V52.03C97.1602 52.7281 97.3347 53.2517 97.6838 53.6008C98.0328 53.9249 98.5564 54.087 99.2546 54.087H101.312V58.0888H99.2171C96.9732 58.0888 95.2777 57.5652 94.1308 56.518C93.0088 55.4708 92.4478 53.9748 92.4478 52.03V31.9088Z" fill="#FAF8F6"/>
<path d="M55.5161 37.1448H60.2285V58.0888H55.5161V37.1448ZM60.2285 47.4672L59.6675 43.989C59.6675 43.3407 59.7298 42.5927 59.8545 41.745C60.0041 40.8973 60.3158 40.0869 60.7895 39.314C61.2882 38.5161 62.0362 37.8554 63.0335 37.3318C64.0308 36.8082 65.3647 36.5464 67.0353 36.5464V41.184C65.5642 41.184 64.3176 41.371 63.2953 41.745C62.273 42.0941 61.5001 42.7174 60.9765 43.615C60.4778 44.5126 60.2285 45.7967 60.2285 47.4672Z" fill="#FAF8F6"/>
<path d="M38.1906 31.9088H42.716L34.9368 58.0888H30L38.1906 31.9088ZM44.8104 31.9088L53.0757 58.0888H48.1763L40.285 31.9088H44.8104ZM34.4132 48.1404H48.5129V52.3292H34.4132V48.1404Z" fill="#FAF8F6"/>
</g>
<rect x="2" y="2" width="320" height="484" rx="30" stroke="#242424" stroke-width="4"/>
<defs>
<clipPath id="clip0_48_1149">
<rect width="324" height="488" rx="32" fill="white"/>
</clipPath>
</defs>
</svg>
