<svg width="956" height="319" viewBox="0 0 956 319" fill="none" xmlns="http://www.w3.org/2000/svg">
  <g clip-path="url(#a)">
    <path d="M0 0h797.5C885.589 0 957 71.41 957 159.5c0 88.089-71.411 159.5-159.5 159.5H0z" fill="url(#b)"/>
    <path d="M20 0v319M85 0v319M150 0v319M215 0v319M280 0v319M345 0v319M410 0v319M475 0v319M540 0v319M605 0v319M670 0v319M735 0v319M800 0v319M865 0v319M930 0v319m61-257H0m991 65H0m991 65H0m991 65H0" stroke="#000" stroke-opacity=".09" style="stroke:#000;stroke-opacity:.09" stroke-width="3" stroke-linecap="square"/>
  </g>
  <defs>
    <linearGradient id="b" x1="216" y1="11.5" x2="1088.5" y2="369.5" gradientUnits="userSpaceOnUse">
      <stop stop-color="#D6BFB2" style="stop-color:#d6bfb2;stop-color:color(display-p3 .8378 .7493 .6963);stop-opacity:1"/>
      <stop offset="1" stop-color="#C0AA9D" style="stop-color:#c0aa9d;stop-color:color(display-p3 .754 .6675 .6157);stop-opacity:1"/>
    </linearGradient>
    <clipPath id="a">
      <path d="M0 0h796.5C884.589 0 956 71.41 956 159.5c0 88.089-71.411 159.5-159.5 159.5H0z" fill="#fff" style="fill:#fff;fill-opacity:1"/>
    </clipPath>
  </defs>
</svg>
