<svg width="717" height="187" viewBox="0 0 717 187" fill="none" xmlns="http://www.w3.org/2000/svg"><path clip-rule="evenodd" d="M513.729 11.038c-.195-2.1-.783-4.48-2.343-6.482-1.727-2.217-4.156-3.343-6.675-3.528-2.279-.167-4.431.435-6.201 1.168-1.827.757-3.677 1.835-5.494 3.083-7.129 4.897-16.072 14.05-25.119 25.09-18.163 22.164-38.366 53.953-46.982 80.188-2.063 6.281-4.485 14.548-5.152 22.794a54 54 0 0 0-.173 3.501 240 240 0 0 0-3.673 3.715 6 6 0 0 0-1.262.822l-.222.187c-4.071 3.436-11.405 9.626-18.682 14.157-3.738 2.328-7.084 3.975-9.713 4.689-2.114.574-2.872.332-3.016.266a2.5 2.5 0 0 1-.377-.399q.003-.03.01-.073c.108-.664.644-1.866 2.085-3.973.347-.507.806-1.144 1.313-1.847 1.078-1.496 2.373-3.292 3.262-4.775 1.31-2.185 3.256-5.967 2.255-10.221-.84-3.57-2.438-6.802-5.25-9.111-2.823-2.318-6.147-3.109-9.268-3.202-5.217-.154-11.521 1.665-17.723 3.615.154-2.048.12-4.294-.088-6.79-.408-4.894-3.071-8.609-6.568-10.863-3.363-2.168-7.425-2.979-11.22-2.687-3.815.294-7.83 1.74-10.969 4.675-3.251 3.04-5.205 7.355-5.205 12.542 0 4.908 2.222 11.294 8.696 15.041q1.012.586 2.115 1.057c-4.135 3.088-9.035 6.037-14.055 8.543-7.815 3.902-15.093 6.318-19.388 6.759-4.776.49-7.558-.226-9.251-1.667-1.633-1.389-3.663-4.667-4.004-12.729a6.054 6.054 0 0 0-10.066-5.609c-11.636 10.851-20.602 15.968-34.05 17.976-5.54.828-9.248.061-11.554-1.134-2.214-1.148-3.533-2.879-4.145-5.005-1.292-4.489.478-11.912 7.675-18.288 6.68-5.919 13.313-7.942 20.37-7.8 7.374.148 15.486 2.666 24.911 6.531a6.054 6.054 0 0 0 4.594-11.202c-9.698-3.977-19.54-7.238-29.261-7.434-10.037-.202-19.639 2.866-28.643 10.843-9.6 8.505-14.224 20.476-11.281 30.699 1.506 5.231 4.962 9.686 10.208 12.405 5.155 2.671 11.593 3.453 18.914 2.36 12.695-1.896 22.197-6.247 31.738-13.584 1.322 4.68 3.519 8.444 6.748 11.192 5.461 4.647 12.378 5.101 18.333 4.49 6.436-.66 15.248-3.821 23.56-7.971 8.395-4.191 17.111-9.805 23.188-15.942q.37-.373.794-.788c.446-.439.931-.916 1.432-1.434 2.574-.442 5.318-1.12 8.235-2.046 7.509-2.383 12.363-3.749 15.601-3.653 1.374.041 1.812.348 1.945.458.137.112.637.582 1.064 2.194-.065.197-.249.684-.772 1.556-.664 1.109-1.352 2.053-2.182 3.195l-.001.001-.002.002c-.581.799-1.234 1.695-1.998 2.812-1.499 2.193-3.466 5.324-4.042 8.865-.31 1.909-.236 4.017.547 6.151.779 2.125 2.129 3.921 3.839 5.413 4.388 3.831 9.99 3.392 14.122 2.269 4.313-1.172 8.833-3.538 12.938-6.094 7.065-4.399 14.021-10.084 18.339-13.707a6 6 0 0 0 1.634-.845l.076.179c.931 2.193 1.883 4.439 4.948 7.283 7.852 5.579 12.075 6.939 18.374 6.308 5.884-.59 11.119-3.83 16.306-7.306 7.292-4.888 13.34-11.889 18.657-18.395a829 829 0 0 0 2.732-3.367l.005-.005c1.289-1.594 2.539-3.14 3.769-4.625 2.498 2.284 5.336 3.73 8.487 4.518 3.955.989 8.188.875 12.237.596q.467-.032.915-.067c-2.707 2.955-5.332 6.236-7.082 9.328-.753 1.332-1.45 2.81-1.893 4.354-.432 1.505-.739 3.473-.25 5.564.539 2.302 1.931 4.244 3.978 5.522 1.863 1.164 3.962 1.594 5.867 1.717 6.99.448 13.987-2.21 19.481-4.823 2.832-1.347 5.505-2.806 7.785-4.054l.051-.028c1.843-1.009 3.336-1.826 4.572-2.436a8 8 0 0 0-.003.702c.15 3.659 2.741 5.649 4.23 6.469 1.538.847 3.274 1.28 4.71 1.54 1.53.277 3.217.441 4.923.535 6.725.37 15.64-.256 21.645-.808q.723-.067 1.388-.221c.071 1.023.414 3.315 2.467 5.026 2.309 1.924 4.902 1.613 6.1 1.307 1.217-.31 2.218-.883 2.844-1.277.698-.441 1.38-.954 2.004-1.457 1.587-1.278 3.629-3.185 5.678-5.099l.001-.001c.93-.868 1.861-1.738 2.752-2.552 3.132-2.858 6.145-5.391 8.742-6.923 1.293-.762 2.172-1.086 2.67-1.187l.005-.001c2.01 1.212 2.624 2.192 2.875 2.751.32.715.465 1.668.392 3.515-.014.359-.048.788-.087 1.277-.276 3.483-.793 9.982 4.014 15.366 4.21 4.715 10.215 7.256 16.703 8.607 6.522 1.357 14.161 1.641 22.387 1.333 14.006-.524 30.741-2.828 48.181-5.228 2.981-.411 5.985-.824 8.997-1.232a6.053 6.053 0 1 0-1.623-11.997q-4.629.628-9.136 1.249c-17.497 2.406-33.523 4.61-46.872 5.11-7.796.292-14.324-.018-19.467-1.089-5.178-1.077-8.336-2.797-10.139-4.817-1.179-1.32-1.135-2.238-.962-5.822.032-.663.069-1.418.102-2.284.094-2.381.045-5.623-1.443-8.942-1.545-3.444-4.298-6.256-8.298-8.533-2.734-1.556-5.622-1.616-8.028-1.13-2.335.472-4.528 1.509-6.421 2.626-3.776 2.226-7.59 5.522-10.753 8.408l-.309.283-.13.119-.455.418.187-3.167-.41-1.156a9 9 0 0 0-.927-1.908c-.418-.637-1.43-1.973-3.313-2.644-2.222-.792-4.225-.184-5.47.572a7.2 7.2 0 0 0-2.005 1.842c-.611.812-1.066 1.742-1.309 2.244-.092.189-.315.663-.515 1.088l-.348.738c-.601 1.251-1.101 2.124-1.563 2.672l-.065.075-.025.028c-5.917.534-13.786 1.041-19.395.732l-.388-.023a8.6 8.6 0 0 0-.138-3.546c-.878-3.475-3.583-5.26-5.681-6.026-3.896-1.425-8.686-.693-12.307.933-1.853.832-4.009 2.013-6.101 3.159l-.002.001-.346.189c-2.299 1.259-4.691 2.56-7.172 3.741-3.981 1.894-7.658 3.203-10.853 3.584 2.145-3.344 5.955-7.484 9.478-10.764 2.08-1.936 4.671-3.292 7.169-4.6q.682-.355 1.35-.711c.627-.335 1.435-.781 2.141-1.28a8.8 8.8 0 0 0 1.384-1.195c.447-.482 1.361-1.583 1.695-3.27a6.39 6.39 0 0 0-1.377-5.352c-.926-1.107-2.007-1.655-2.561-1.903-1.139-.51-2.401-.752-3.339-.902l-.743-.119-.75.066c-3.394.303-5.909 1.011-8.114 1.631l-.004.001q-.606.172-1.187.33c-2.448.664-5.471 1.367-10.937 1.744-3.93.271-6.507.226-8.468-.264-1.071-.268-2.008-.681-2.901-1.403.292-.425.65-.893 1.053-1.372.406-.482.76-.863.989-1.101l.08-.076c.175-.166.339-.326.47-.46l.058-.06a6 6 0 0 0 .263-.29l.002-.003c.025-.029.264-.306.504-.684.078-.127.258-.45.356-.648.145-.331.445-1.305.55-1.955-.006-1.332-1.325-4.459-2.909-5.831-1.453-.629-3.81-.82-4.589-.677a6 6 0 0 0-2.148 1.022c-.227.169-.401.326-.411.335-.164.145-.414.384-.719.695-.29.271-.731.676-1.354 1.236-5.024 4.511-9.703 10.307-14.088 15.739l-.009.011c-.845 1.046-1.678 2.079-2.501 3.086-5.327 6.518-10.382 12.218-16.023 15.998-5.419 3.632-8.301 5.069-10.772 5.317-1.965.197-6.53.318-9.443-3.631l-.104-.141-.101-.136c-1.529-2.064-3.626-4.894-2.716-7.536 1.201-1.152 2.419-2.309 3.658-3.486 12.908-12.266 28.034-26.64 49.188-57.91 1.569-2.32 3.279-4.78 5.066-7.35l.003-.005c5.185-7.458 11.01-15.836 15.881-24.372 6.547-11.476 12.008-24.264 12.008-37.017v-.28zm-42.96 62.52c-17.181 25.398-29.786 38.792-40.971 49.642.784-3.081 1.705-6.082 2.619-8.866 7.973-24.276 27.187-54.744 44.844-76.291 8.863-10.816 16.931-18.883 22.61-22.784a26 26 0 0 1 1.678-1.069c-.667 8.838-4.632 18.459-10.318 28.426-4.579 8.025-9.932 15.724-15.037 23.068-1.857 2.672-3.682 5.297-5.425 7.874Zm100.122 74.754.015-.012zm-228.436-14.909c.581-1.287 1.129-3.576.72-8.486-.062-.746-.369-1.246-1.062-1.692-.827-.533-2.174-.911-3.731-.791-1.536.118-2.814.684-3.629 1.447-.704.658-1.367 1.727-1.367 3.698 0 1.558.689 3.426 2.653 4.562 1.15.666 3.157 1.328 6.416 1.262Zm36.54 27.271.018.01zm-.39-.451.007.014z" stroke="url(#a)" stroke-linecap="round"/><path d="M12.123 183.106c9.614-15.755 38.77-52.506 64.462-80.92 12.454-13.773 23.746-25.194 31.39-31.262l-.82 2.968-.006.02c-3.118 11.278-5.893 21.317-6.636 28.787-.447 4.484-.346 9.421 1.98 13.386 2.717 4.635 7.435 6.395 12.508 6.395 1.808 0 3.547-.609 4.723-1.082 1.353-.543 2.847-1.283 4.402-2.126 3.119-1.691 6.926-4.043 11.116-6.758 5.966-3.865 12.979-8.645 20.255-13.604h.001a3553 3553 0 0 1 8.894-6.05c10.426-7.059 20.786-13.912 29.291-18.81 4.264-2.457 7.897-4.326 10.741-5.48q.41-.166.781-.307c-.238 1.84-.704 4.217-1.41 7.131-1.8 7.423-4.813 16.982-8.068 27.306q-.72 2.281-1.45 4.607c-3.738 11.898-7.579 24.453-9.774 34.927-1.094 5.224-1.838 10.194-1.892 14.449-.05 3.939.447 8.661 3.238 12.087 3.317 4.071 7.224 6.65 11.5 7.476 4.28.827 8.233-.241 11.332-2.178a6 6 0 0 0-6.36-10.176c-.901.563-1.801.745-2.696.572-.78-.151-1.805-.389-3.366-2.078-.526-.569-.957-1.235-1.1-1.996-.186-.988-.21-2.215-.197-3.231.04-3.125.256-7.548 1.286-12.464 2.056-9.808 5.715-21.815 9.477-33.792l1.439-4.569c3.233-10.252 6.39-20.26 8.293-28.112 1.079-4.453 1.874-8.668 1.934-12.025.028-1.637-.098-3.628-.826-5.483-.813-2.071-2.59-4.37-5.734-5.085-2.027-.46-4.047-.22-5.65.125-1.693.363-3.48.97-5.272 1.697-3.587 1.457-7.766 3.636-12.216 6.2-8.926 5.142-19.613 12.22-30.029 19.273-3.057 2.07-6.089 4.136-9.053 6.157l-.004.002c-7.222 4.923-14.048 9.575-19.89 13.36-4.117 2.668-7.612 4.817-10.311 6.28-1.355.735-2.4 1.237-3.155 1.54-.279.112-.47.177-.582.212-.995-.032-1.47-.204-1.636-.284-.104-.049-.125-.067-.189-.175-.304-.519-.784-2.176-.39-6.129.631-6.348 3.036-15.07 6.137-26.31.702-2.546 1.44-5.22 2.201-8.026.67-2.473 1.151-5.165.764-7.602-.207-1.304-.725-2.928-1.978-4.347-1.337-1.512-3.067-2.287-4.746-2.521-2.851-.397-5.511.752-7.195 1.623-1.955 1.012-4.064 2.452-6.228 4.12-8.582 6.619-20.847 19.072-33.725 33.314-25.813 28.547-55.586 65.971-65.805 82.717a6 6 0 0 0 10.244 6.251Z" stroke="url(#b)" stroke-linecap="round"/><defs><linearGradient id="a" x1="207.326" y1="-39.433" x2="214.171" y2="208.947" gradientUnits="userSpaceOnUse"><stop stop-color="#D6BFB2" style="stop-color:#d6bfb2;stop-color:color(display-p3 .8378 .7493 .6963);stop-opacity:1"/><stop offset="1" stop-color="#70645D" stop-opacity=".34" style="stop-color:#70645d;stop-color:color(display-p3 .4378 .3916 .3638);stop-opacity:.34"/></linearGradient><linearGradient id="b" x1="207.326" y1="-39.433" x2="214.171" y2="208.947" gradientUnits="userSpaceOnUse"><stop stop-color="#D6BFB2" style="stop-color:#d6bfb2;stop-color:color(display-p3 .8378 .7493 .6963);stop-opacity:1"/><stop offset="1" stop-color="#70645D" stop-opacity=".34" style="stop-color:#70645d;stop-color:color(display-p3 .4378 .3916 .3638);stop-opacity:.34"/></linearGradient></defs></svg>