<svg width="222" height="178" viewBox="0 0 222 178" fill="none" xmlns="http://www.w3.org/2000/svg">
<rect x="29.6124" y="31.3381" width="184.56" height="72.7519" rx="16" transform="rotate(13.7232 29.6124 31.3381)" fill="#C7D573" style="fill:#C7D573;fill:color(display-p3 0.7820 0.8356 0.4528);fill-opacity:1;"/>
<path d="M39.4488 47.4601L46.0953 48.9888C47.6286 49.3415 48.7023 49.9374 49.3165 50.7764C49.9308 51.6155 50.1019 52.6262 49.8299 53.8087C49.6775 54.4714 49.453 55.0012 49.1565 55.3981C48.8629 55.7821 48.5548 56.0807 48.2322 56.2938C47.9125 56.4939 47.6093 56.6225 47.3225 56.6797C47.0488 56.7398 46.8489 56.7759 46.723 56.788L46.714 56.827C46.9159 56.9008 47.1219 57.0166 47.3319 57.1743C47.5549 57.3351 47.7434 57.5563 47.8975 57.838C48.0546 58.1067 48.1563 58.438 48.2025 58.8317C48.2618 59.2284 48.2286 59.6996 48.1031 60.2454C47.9148 61.064 47.8014 61.8246 47.763 62.5272C47.7405 63.2198 47.8263 63.7389 48.0204 64.0845L45.4086 63.4838C45.2954 63.1431 45.2612 62.7863 45.3059 62.4135C45.3636 62.0437 45.4313 61.6899 45.509 61.3521C45.6555 60.7153 45.742 60.1606 45.7687 59.6879C45.7983 59.2022 45.7435 58.786 45.6044 58.4393C45.4682 58.0796 45.2346 57.7865 44.9037 57.5599C44.5857 57.3362 44.1474 57.1601 43.5886 57.0316L40.0023 56.2067L38.6842 61.9371L36.2478 61.3767L39.4488 47.4601ZM40.4282 54.3551L44.4238 55.2741C45.2035 55.4535 45.8365 55.4075 46.3231 55.1363C46.8125 54.8522 47.1425 54.3398 47.3128 53.5991C47.4144 53.1573 47.4317 52.785 47.3645 52.4823C47.3003 52.1665 47.1692 51.9038 46.9712 51.694C46.7861 51.4873 46.5502 51.3236 46.2633 51.2028C45.9893 51.0851 45.6965 50.9904 45.3846 50.9187L41.4279 50.0086L40.4282 54.3551ZM57.9419 60.1278C57.9966 59.771 57.9963 59.4152 57.9411 59.0605C57.8989 58.7088 57.7942 58.3905 57.6271 58.1058C57.476 57.8111 57.2609 57.5564 56.982 57.3418C56.719 57.1171 56.3991 56.9614 56.0222 56.8747C55.6324 56.7851 55.2586 56.7744 54.9009 56.8426C54.5592 56.9008 54.2429 57.0264 53.9523 57.2195C53.6776 57.4026 53.4314 57.6401 53.2137 57.9321C53.0091 58.2271 52.8569 58.5615 52.7572 58.9353L57.9419 60.1278ZM52.421 60.3971C52.3313 60.787 52.2966 61.1757 52.3169 61.5635C52.3502 61.9542 52.4459 62.3114 52.604 62.6351C52.7621 62.9588 52.9907 63.2439 53.2897 63.4906C53.5917 63.7242 53.9765 63.8948 54.4443 64.0024C55.094 64.1519 55.6452 64.135 56.0978 63.9518C56.5663 63.7586 56.9623 63.405 57.2858 62.8911L59.3908 63.3753C59.1483 63.8941 58.8348 64.3351 58.4503 64.6981C58.0658 65.0612 57.6378 65.3458 57.1662 65.552C56.6977 65.7452 56.1936 65.855 55.6539 65.8814C55.1243 65.9237 54.5866 65.8822 54.0408 65.7566C53.2482 65.5743 52.5764 65.283 52.0255 64.8826C51.4745 64.4823 51.0385 63.9989 50.7173 63.4325C50.409 62.869 50.2192 62.2371 50.1477 61.5366C50.0893 60.839 50.1497 60.1005 50.329 59.3208C50.4934 58.6061 50.7593 57.9559 51.1266 57.37C51.51 56.7741 51.9648 56.2835 52.4912 55.8984C53.0336 55.5033 53.6365 55.2315 54.3 55.0831C54.9635 54.9347 55.6721 54.9472 56.4257 55.1206C57.2183 55.3029 57.8877 55.6347 58.4337 56.116C58.9957 56.5873 59.4218 57.1436 59.7121 57.785C60.0024 58.4264 60.1563 59.1254 60.1738 59.8819C60.2073 60.6284 60.0919 61.368 59.8276 62.1007L52.421 60.3971ZM69.4453 66.6525C69.3826 66.9253 69.3702 67.1277 69.4083 67.2596C69.4593 67.3945 69.5888 67.4859 69.7967 67.5337C69.8617 67.5486 69.9397 67.5665 70.0306 67.5875C70.1216 67.6084 70.2285 67.6193 70.3515 67.6202L69.9973 69.16C69.9133 69.1681 69.8034 69.1701 69.6675 69.1662C69.5416 69.1783 69.4107 69.1824 69.2747 69.1785C69.1388 69.1746 69.0044 69.1642 68.8715 69.1473C68.7385 69.1304 68.6266 69.1115 68.5356 69.0906C68.0809 68.986 67.7249 68.8084 67.4679 68.5577C67.2109 68.307 67.0892 67.9439 67.1029 67.4682C66.5624 67.7953 65.945 67.9817 65.2504 68.0271C64.5689 68.0756 63.9293 68.0311 63.3315 67.8936C62.8767 67.789 62.4564 67.6239 62.0705 67.3983C61.6816 67.1857 61.3516 66.9251 61.0805 66.6165C60.8254 66.2979 60.6423 65.9343 60.5311 65.5256C60.4358 65.1069 60.445 64.6507 60.5586 64.1569C60.702 63.5332 60.9291 63.0518 61.2396 62.7128C61.5632 62.3768 61.9323 62.1402 62.3469 62.003C62.7745 61.8688 63.2262 61.8085 63.7019 61.8221C64.1936 61.8258 64.6793 61.8554 65.1591 61.911C65.5798 61.9257 65.9751 61.9619 66.3449 62.0196C66.7177 62.0643 67.0495 62.0791 67.3403 62.0639C67.6441 62.0516 67.8919 61.9855 68.0837 61.8654C68.2915 61.7354 68.4328 61.5079 68.5075 61.1831C68.5732 60.8972 68.5556 60.6469 68.4545 60.4321C68.3664 60.2203 68.2288 60.045 68.0418 59.9062C67.8708 59.7574 67.6649 59.6416 67.424 59.5589C67.1861 59.4631 66.9567 59.3898 66.7358 59.339C66.112 59.1955 65.5689 59.2074 65.1063 59.3746C64.6437 59.5419 64.3237 59.8924 64.1462 60.4262L61.9242 59.9151C62.1126 59.2744 62.3926 58.771 62.7641 58.4049C63.1356 58.0389 63.5591 57.7738 64.0347 57.6095C64.5233 57.4483 65.0459 57.3769 65.6026 57.3955C66.1592 57.4141 66.7169 57.4877 67.2757 57.6162C67.7695 57.7298 68.2448 57.8938 68.7016 58.1083C69.1585 58.3229 69.5485 58.5904 69.8715 58.911C70.2075 59.2346 70.4491 59.6116 70.5963 60.0423C70.7466 60.4599 70.7604 60.9351 70.6378 61.4679L69.4453 66.6525ZM67.8689 63.3347C67.4803 63.4779 67.0331 63.5187 66.5273 63.4571C66.0246 63.3825 65.5159 63.3339 65.0012 63.3113C64.7583 63.2964 64.5175 63.3026 64.2787 63.3298C64.0428 63.3439 63.8255 63.3965 63.6267 63.4876C63.4309 63.5657 63.2571 63.6968 63.1053 63.8808C62.9695 64.0548 62.8687 64.2847 62.803 64.5706C62.7462 64.8174 62.7698 65.0418 62.8739 65.2436C62.978 65.4454 63.1155 65.6207 63.2865 65.7695C63.4735 65.9082 63.6795 66.024 63.9044 66.1168C64.1423 66.2126 64.3587 66.2829 64.5536 66.3277C64.8005 66.3845 65.0744 66.4133 65.3752 66.4141C65.676 66.4148 65.9678 66.3657 66.2505 66.2665C66.5463 66.1704 66.8055 66.0248 67.0282 65.8297C67.2539 65.6217 67.4072 65.3423 67.4878 64.9914L67.8689 63.3347ZM74.5801 55.5407L76.8021 56.0518L73.6011 69.9684L71.3791 69.4573L74.5801 55.5407ZM79.2815 56.6221L81.5035 57.1332L78.3025 71.0498L76.0805 70.5387L79.2815 56.6221ZM81.9303 61.2742L84.3667 61.8346L85.2675 69.9634L85.3065 69.9724L89.5903 63.0361L91.9098 63.5696L85.5487 73.2911C85.2622 73.7041 84.9801 74.0975 84.7026 74.4715C84.438 74.8485 84.1399 75.163 83.8083 75.4151C83.4867 75.6831 83.1166 75.8648 82.6979 75.96C82.2763 76.0683 81.7731 76.0551 81.1883 75.9206C80.6686 75.8011 80.1643 75.644 79.6754 75.4495L80.1058 73.5784C80.2818 73.6462 80.4512 73.7125 80.6141 73.7774C80.7741 73.8552 80.945 73.9151 81.127 73.9569C81.3868 74.0167 81.6087 74.0335 81.7926 74.0074C81.9764 73.9813 82.1353 73.9152 82.2691 73.8092C82.413 73.7191 82.5433 73.5986 82.6601 73.4476C82.7769 73.2966 82.8932 73.1182 83.009 72.9122L83.4417 72.1908L81.9303 61.2742ZM99.5149 61.276L101.737 61.7871L98.5359 75.7037L96.3139 75.1926L99.5149 61.276ZM104.216 62.3574L106.438 62.8685L105.954 64.9735L103.732 64.4625L104.216 62.3574ZM103.333 66.1972L105.555 66.7082L103.237 76.7851L101.015 76.274L103.333 66.1972ZM108.918 63.4388L111.14 63.9499L109.32 71.8633L114.272 68.7132L117.001 69.3408L112.289 72.1565L115.053 79.5029L112.344 78.8797L110.389 73.2791L108.768 74.2607L107.939 77.8665L105.717 77.3554L108.918 63.4388ZM124.409 75.4162C124.464 75.0594 124.464 74.7036 124.409 74.3489C124.366 73.9971 124.262 73.6789 124.095 73.3942C123.944 73.0995 123.728 72.8448 123.449 72.6301C123.186 72.4055 122.867 72.2498 122.49 72.1631C122.1 72.0734 121.726 72.0627 121.368 72.1309C121.027 72.1891 120.71 72.3148 120.42 72.5079C120.145 72.691 119.899 72.9285 119.681 73.2205C119.477 73.5154 119.324 73.8498 119.225 74.2237L124.409 75.4162ZM118.889 75.6855C118.799 76.0753 118.764 76.4641 118.784 76.8518C118.818 77.2426 118.913 77.5998 119.072 77.9235C119.23 78.2472 119.458 78.5323 119.757 78.7789C120.059 79.0126 120.444 79.1832 120.912 79.2908C121.562 79.4402 122.113 79.4233 122.565 79.2401C123.034 79.0469 123.43 78.6934 123.753 78.1794L125.858 78.6636C125.616 79.1825 125.302 79.6234 124.918 79.9865C124.533 80.3495 124.105 80.6342 123.634 80.8404C123.165 81.0336 122.661 81.1434 122.121 81.1697C121.592 81.2121 121.054 81.1705 120.508 81.045C119.716 80.8627 119.044 80.5713 118.493 80.171C117.942 79.7706 117.506 79.2872 117.185 78.7208C116.877 78.1574 116.687 77.5254 116.615 76.8249C116.557 76.1274 116.617 75.3888 116.797 74.6092C116.961 73.8945 117.227 73.2442 117.594 72.6583C117.978 72.0624 118.432 71.5719 118.959 71.1868C119.501 70.7916 120.104 70.5198 120.768 70.3715C121.431 70.2231 122.14 70.2356 122.893 70.4089C123.686 70.5912 124.355 70.923 124.901 71.4043C125.463 71.8756 125.889 72.432 126.18 73.0734C126.47 73.7148 126.624 74.4137 126.641 75.1702C126.675 75.9168 126.559 76.6564 126.295 77.3891L118.889 75.6855ZM129.378 79.3911C129.294 80.0558 129.436 80.5674 129.805 80.9259C130.174 81.2844 130.657 81.5324 131.255 81.6699C131.463 81.7177 131.7 81.7585 131.966 81.7923C132.248 81.8161 132.516 81.8094 132.771 81.7722C133.026 81.735 133.244 81.6484 133.426 81.5124C133.623 81.3663 133.749 81.1489 133.801 80.86C133.854 80.5712 133.804 80.3134 133.651 80.0866C133.498 79.8599 133.277 79.6587 132.989 79.483C132.717 79.2973 132.396 79.1206 132.024 78.953C131.652 78.7854 131.275 78.6098 130.893 78.4261C130.498 78.2395 130.121 78.0364 129.761 77.8168C129.414 77.6002 129.11 77.3456 128.849 77.053C128.601 76.7633 128.425 76.4287 128.32 76.049C128.219 75.6563 128.227 75.2066 128.343 74.6998C128.469 74.1541 128.703 73.7291 129.047 73.4251C129.407 73.111 129.813 72.8899 130.267 72.7616C130.736 72.6234 131.229 72.5656 131.743 72.5882C132.271 72.6138 132.762 72.6789 133.217 72.7835C133.737 72.903 134.217 73.0751 134.658 73.2996C135.115 73.5142 135.503 73.7882 135.823 74.1218C136.156 74.4583 136.4 74.8564 136.554 75.316C136.724 75.7656 136.778 76.2773 136.714 76.8509L134.395 76.3174C134.413 75.7608 134.249 75.3467 133.901 75.0751C133.566 74.8065 133.151 74.6154 132.658 74.5018C132.502 74.466 132.31 74.4356 132.083 74.4108C131.869 74.389 131.656 74.3946 131.443 74.4277C131.246 74.4509 131.067 74.519 130.904 74.632C130.744 74.7321 130.639 74.8925 130.588 75.1134C130.525 75.3863 130.565 75.6281 130.708 75.8389C130.864 76.0526 131.078 76.2524 131.35 76.4381C131.638 76.6137 131.968 76.7854 132.34 76.953C132.712 77.1206 133.095 77.2978 133.49 77.4844C133.872 77.668 134.243 77.8696 134.603 78.0892C134.963 78.3088 135.267 78.5634 135.515 78.8531C135.776 79.1457 135.959 79.4818 136.063 79.8615C136.18 80.2442 136.182 80.6824 136.068 81.1762C135.931 81.7739 135.678 82.2493 135.309 82.6024C134.941 82.9554 134.506 83.2111 134.004 83.3693C133.515 83.5306 132.991 83.6084 132.432 83.6028C131.872 83.5972 131.332 83.5346 130.813 83.4151C130.176 83.2686 129.601 83.0612 129.088 82.7927C128.588 82.5272 128.17 82.2052 127.833 81.8267C127.512 81.4382 127.284 81.0026 127.148 80.52C127.029 80.0274 127.032 79.4808 127.156 78.88L129.378 79.3911ZM33.9715 70.8269L36.5444 71.4187L40.5403 83.1325L40.5793 83.1415L42.9374 72.8892L45.2569 73.4227L42.0559 87.3393L39.4831 86.7475L35.5021 75.0577L35.4437 75.0442L33.09 85.277L30.7706 84.7435L33.9715 70.8269ZM52.9047 83.5959C52.9594 83.2391 52.9591 82.8833 52.9039 82.5286C52.8617 82.1768 52.757 81.8586 52.5899 81.5739C52.4388 81.2792 52.2237 81.0245 51.9448 80.8098C51.6818 80.5852 51.3618 80.4295 50.985 80.3428C50.5952 80.2531 50.2214 80.2424 49.8637 80.3106C49.522 80.3688 49.2057 80.4945 48.9151 80.6876C48.6404 80.8707 48.3942 81.1082 48.1765 81.4002C47.9719 81.6951 47.8197 82.0295 47.72 82.4034L52.9047 83.5959ZM47.3838 83.8652C47.2941 84.255 47.2594 84.6438 47.2797 85.0315C47.313 85.4223 47.4087 85.7795 47.5668 86.1032C47.7249 86.4269 47.9535 86.712 48.2525 86.9586C48.5545 87.1923 48.9393 87.3629 49.4071 87.4705C50.0568 87.6199 50.608 87.603 51.0606 87.4198C51.5291 87.2266 51.9251 86.8731 52.2486 86.3591L54.3536 86.8433C54.1111 87.3622 53.7976 87.8031 53.4131 88.1662C53.0286 88.5292 52.6006 88.8139 52.129 89.0201C51.6605 89.2133 51.1564 89.3231 50.6167 89.3495C50.0871 89.3918 49.5494 89.3502 49.0036 89.2247C48.211 89.0424 47.5392 88.751 46.9883 88.3507C46.4373 87.9503 46.0013 87.4669 45.68 86.9005C45.3718 86.3371 45.182 85.7051 45.1105 85.0046C45.0521 84.3071 45.1125 83.5685 45.2918 82.7889C45.4562 82.0742 45.7221 81.4239 46.0894 80.838C46.4728 80.2421 46.9276 79.7516 47.454 79.3665C47.9964 78.9713 48.5993 78.6996 49.2628 78.5512C49.9263 78.4028 50.6349 78.4153 51.3885 78.5886C52.1811 78.7709 52.8505 79.1027 53.3965 79.5841C53.9585 80.0554 54.3846 80.6117 54.6749 81.2531C54.9651 81.8945 55.1191 82.5934 55.1366 83.3499C55.1701 84.0965 55.0547 84.8361 54.7904 85.5688L47.3838 83.8652ZM59.3816 85.7424L56.9911 80.1646L59.6809 80.7833L61.0731 84.3665L63.9884 81.7741L66.5612 82.3658L62.0593 86.2352L64.6722 92.5413L62.0019 91.9271L60.3049 87.6171L56.9732 90.7705L54.3614 90.1697L59.3816 85.7424ZM67.226 82.5188L68.9023 82.9043L69.5971 79.8832L71.8191 80.3943L71.1242 83.4154L73.1318 83.8772L72.7507 85.5339L70.7432 85.0721L69.5058 90.4517C69.452 90.6856 69.4122 90.8885 69.3863 91.0604C69.3734 91.2353 69.3861 91.3887 69.4241 91.5206C69.4752 91.6554 69.5647 91.7718 69.6927 91.8696C69.8237 91.9545 70.0126 92.0253 70.2595 92.0821C70.4154 92.118 70.5714 92.1538 70.7273 92.1897C70.8862 92.2126 71.0481 92.2224 71.213 92.2193L70.8185 93.9345C70.5656 93.9037 70.3193 93.8744 70.0794 93.8466C69.8395 93.8188 69.5961 93.7765 69.3493 93.7197C68.7645 93.5852 68.3022 93.4242 67.9623 93.2365C67.6383 93.0389 67.3963 92.8122 67.2362 92.5565C67.0921 92.2907 67.0185 91.9865 67.0152 91.6437C67.025 91.3039 67.0712 90.9246 67.1538 90.5058L68.5212 84.561L66.845 84.1755L67.226 82.5188ZM81.2595 91.6365C81.119 92.2472 80.931 92.8265 80.6956 93.3743C80.4601 93.9222 80.1277 94.3861 79.6982 94.7662C79.2817 95.1492 78.7368 95.407 78.0633 95.5394C77.4028 95.6748 76.5723 95.6274 75.5717 95.3972C74.8311 95.2269 74.2263 94.9715 73.7573 94.631C73.2913 94.2776 72.9343 93.8671 72.6861 93.3996C72.4409 92.919 72.3031 92.388 72.2727 91.8064C72.2423 91.2247 72.3003 90.6156 72.4468 89.9789L72.6171 89.2382L75.0535 89.7986L74.8876 90.5198C74.7053 91.3124 74.6933 91.9595 74.8516 92.4611C75.0258 92.9527 75.4833 93.2836 76.2239 93.454C76.6137 93.5437 76.9455 93.5584 77.2193 93.4982C77.5061 93.4411 77.7464 93.3185 77.9401 93.1305C78.1498 92.9324 78.3195 92.6705 78.4492 92.3446C78.5789 92.0187 78.6931 91.6413 78.7917 91.2125L80.9929 81.6424L83.4293 82.2028L81.2595 91.6365ZM85.8584 92.5301C85.7358 93.0629 85.7222 93.5386 85.8174 93.9573C85.9127 94.3759 86.0943 94.7461 86.3624 95.0677C86.6334 95.3763 86.9634 95.6369 87.3523 95.8495C87.7572 96.0521 88.2065 96.2101 88.7003 96.3237C89.2331 96.4463 89.7013 96.4924 90.105 96.4621C90.5118 96.4189 90.8545 96.3267 91.1332 96.1856C91.4119 96.0444 91.6317 95.8624 91.7924 95.6394C91.9561 95.4035 92.0679 95.1555 92.1277 94.8956C92.2502 94.3629 92.2164 93.9447 92.0263 93.641C91.8522 93.3273 91.6342 93.0856 91.3722 92.9159C90.9203 92.6204 90.3809 92.3185 89.7541 92.0102C89.1432 91.6918 88.3869 91.2921 87.4851 90.811C86.9233 90.5176 86.4693 90.2011 86.1233 89.8616C85.7932 89.5121 85.5471 89.1545 85.385 88.7888C85.2228 88.4232 85.1301 88.053 85.1069 87.6782C85.0966 87.3064 85.1333 86.9386 85.217 86.5748C85.3784 85.8731 85.6603 85.3018 86.0627 84.8608C86.4811 84.4098 86.9696 84.0706 87.5281 83.8434C88.0866 83.6161 88.6891 83.4947 89.3357 83.4793C89.9853 83.4508 90.6219 83.5083 91.2456 83.6518C91.9733 83.8192 92.6331 84.0735 93.2249 84.4149C93.8328 84.7463 94.3338 85.1556 94.7279 85.6431C95.135 86.1335 95.4172 86.6909 95.5746 87.3154C95.7349 87.9269 95.7314 88.5965 95.564 89.3242L93.1276 88.7638C93.2689 87.8522 93.1085 87.1518 92.6464 86.6624C92.1873 86.1601 91.5355 85.8117 90.6909 85.6175C90.405 85.5517 90.1052 85.517 89.7914 85.5132C89.4806 85.4964 89.1853 85.5311 88.9055 85.6173C88.6287 85.6904 88.379 85.8245 88.1563 86.0195C87.9465 86.2176 87.8013 86.492 87.7206 86.8428C87.607 87.3366 87.6668 87.7608 87.8999 88.1154C88.149 88.46 88.504 88.7606 88.9649 89.0171C89.0139 89.042 89.2018 89.1468 89.5288 89.3315C89.8717 89.5061 90.2506 89.7027 90.6655 89.9213C91.0804 90.1399 91.4823 90.3554 91.8712 90.568C92.2761 90.7706 92.5635 90.9188 92.7335 91.0126C93.1554 91.2602 93.5069 91.5462 93.7879 91.8708C94.069 92.1954 94.2826 92.5456 94.4288 92.9212C94.591 93.2869 94.6822 93.6636 94.7024 94.0513C94.7357 94.4421 94.7105 94.8193 94.6268 95.1832C94.4475 95.9628 94.1311 96.5946 93.6778 97.0787C93.2404 97.5527 92.7214 97.9053 92.121 98.1366C91.5205 98.3679 90.871 98.4853 90.1725 98.4888C89.4709 98.5053 88.7758 98.4343 88.0871 98.2759C87.2945 98.0936 86.5697 97.8243 85.9129 97.468C85.256 97.1117 84.7141 96.6724 84.287 96.15C83.8598 95.6276 83.5621 95.0187 83.3937 94.3233C83.2283 93.6148 83.2377 92.8303 83.422 91.9697L85.8584 92.5301Z" fill="#141414" style="fill:#141414;fill:color(display-p3 0.0784 0.0784 0.0784);fill-opacity:1;"/>
<path d="M172.93 114.35L177.726 130.993L160.915 126.825L172.93 114.35Z" fill="#0F0F0E" style="fill:#0F0F0E;fill:color(display-p3 0.0588 0.0588 0.0549);fill-opacity:1;"/>
</svg>
