<svg width="185" height="57" viewBox="0 0 185 57" fill="none" xmlns="http://www.w3.org/2000/svg">
<path d="M145.551 0H16C7.16344 0 0 7.16344 0 16V41C0 49.8366 7.16344 57 16 57H96.736L106.494 55.5584L124.374 45.1289L142.802 38.8361L124.3 19.3336L149.995 10.5974L145.551 0Z" fill="#E44E4E" style="fill:#E44E4E;fill:color(display-p3 0.8943 0.3041 0.3041);fill-opacity:1;"/>
<path d="M109.977 57H169C177.837 57 185 49.8366 185 41V16C185 7.16344 177.837 0 169 0H148.804L154.005 12.4026L129.7 20.6664L148.198 40.1639L125.626 47.8711L109.977 57Z" fill="#E44E4E" style="fill:#E44E4E;fill:color(display-p3 0.8943 0.3041 0.3041);fill-opacity:1;"/>
<path d="M26.2 16.84C24.68 16.84 23.36 17.1467 22.24 17.76C21.1467 18.3733 20.2534 19.2 19.56 20.24C18.8667 21.2533 18.3467 22.4133 18 23.72C17.68 25.0267 17.52 26.36 17.52 27.72C17.52 29.08 17.68 30.4133 18 31.72C18.3467 33.0267 18.8667 34.2 19.56 35.24C20.2534 36.2533 21.1467 37.0667 22.24 37.68C23.36 38.2933 24.68 38.6 26.2 38.6C27.72 38.6 29.0267 38.2933 30.12 37.68C31.24 37.0667 32.1467 36.2533 32.84 35.24C33.5334 34.2 34.04 33.0267 34.36 31.72C34.7067 30.4133 34.88 29.08 34.88 27.72C34.88 26.36 34.7067 25.0267 34.36 23.72C34.04 22.4133 33.5334 21.2533 32.84 20.24C32.1467 19.2 31.24 18.3733 30.12 17.76C29.0267 17.1467 27.72 16.84 26.2 16.84ZM26.2 12.76C28.3334 12.76 30.24 13.16 31.92 13.96C33.6267 14.76 35.0667 15.84 36.24 17.2C37.4134 18.56 38.3067 20.1467 38.92 21.96C39.56 23.7733 39.88 25.6933 39.88 27.72C39.88 29.7733 39.56 31.7067 38.92 33.52C38.3067 35.3333 37.4134 36.92 36.24 38.28C35.0667 39.64 33.6267 40.72 31.92 41.52C30.24 42.2933 28.3334 42.68 26.2 42.68C24.0667 42.68 22.1467 42.2933 20.44 41.52C18.76 40.72 17.3334 39.64 16.16 38.28C14.9867 36.92 14.08 35.3333 13.44 33.52C12.8267 31.7067 12.52 29.7733 12.52 27.72C12.52 25.6933 12.8267 23.7733 13.44 21.96C14.08 20.1467 14.9867 18.56 16.16 17.2C17.3334 15.84 18.76 14.76 20.44 13.96C22.1467 13.16 24.0667 12.76 26.2 12.76Z" fill="#FFEDED" style="fill:#FFEDED;fill:color(display-p3 1.0000 0.9275 0.9275);fill-opacity:1;"/>
<path d="M53.16 21.872C51.944 21.872 50.888 22.1173 49.992 22.608C49.1174 23.0987 48.4027 23.76 47.848 24.592C47.2934 25.4027 46.8774 26.3307 46.6 27.376C46.344 28.4213 46.216 29.488 46.216 30.576C46.216 31.664 46.344 32.7307 46.6 33.776C46.8774 34.8213 47.2934 35.76 47.848 36.592C48.4027 37.4027 49.1174 38.0533 49.992 38.544C50.888 39.0347 51.944 39.28 53.16 39.28C54.376 39.28 55.4214 39.0347 56.296 38.544C57.192 38.0533 57.9174 37.4027 58.472 36.592C59.0267 35.76 59.432 34.8213 59.688 33.776C59.9654 32.7307 60.104 31.664 60.104 30.576C60.104 29.488 59.9654 28.4213 59.688 27.376C59.432 26.3307 59.0267 25.4027 58.472 24.592C57.9174 23.76 57.192 23.0987 56.296 22.608C55.4214 22.1173 54.376 21.872 53.16 21.872ZM53.16 18.608C54.8667 18.608 56.392 18.928 57.736 19.568C59.1014 20.208 60.2534 21.072 61.192 22.16C62.1307 23.248 62.8454 24.5173 63.336 25.968C63.848 27.4187 64.104 28.9547 64.104 30.576C64.104 32.2187 63.848 33.7653 63.336 35.216C62.8454 36.6667 62.1307 37.936 61.192 39.024C60.2534 40.112 59.1014 40.976 57.736 41.616C56.392 42.2347 54.8667 42.544 53.16 42.544C51.4534 42.544 49.9174 42.2347 48.552 41.616C47.208 40.976 46.0667 40.112 45.128 39.024C44.1894 37.936 43.464 36.6667 42.952 35.216C42.4614 33.7653 42.216 32.2187 42.216 30.576C42.216 28.9547 42.4614 27.4187 42.952 25.968C43.464 24.5173 44.1894 23.248 45.128 22.16C46.0667 21.072 47.208 20.208 48.552 19.568C49.9174 18.928 51.4534 18.608 53.16 18.608Z" fill="#FFEDED" style="fill:#FFEDED;fill:color(display-p3 1.0000 0.9275 0.9275);fill-opacity:1;"/>
<path d="M74.12 26.904C73.208 26.904 72.416 27.088 71.744 27.456C71.088 27.824 70.552 28.32 70.136 28.944C69.72 29.552 69.408 30.248 69.2 31.032C69.008 31.816 68.912 32.616 68.912 33.432C68.912 34.248 69.008 35.048 69.2 35.832C69.408 36.616 69.72 37.32 70.136 37.944C70.552 38.552 71.088 39.04 71.744 39.408C72.416 39.776 73.208 39.96 74.12 39.96C75.032 39.96 75.816 39.776 76.472 39.408C77.144 39.04 77.688 38.552 78.104 37.944C78.52 37.32 78.824 36.616 79.016 35.832C79.224 35.048 79.328 34.248 79.328 33.432C79.328 32.616 79.224 31.816 79.016 31.032C78.824 30.248 78.52 29.552 78.104 28.944C77.688 28.32 77.144 27.824 76.472 27.456C75.816 27.088 75.032 26.904 74.12 26.904ZM74.12 24.456C75.4 24.456 76.544 24.696 77.552 25.176C78.576 25.656 79.44 26.304 80.144 27.12C80.848 27.936 81.384 28.888 81.752 29.976C82.136 31.064 82.328 32.216 82.328 33.432C82.328 34.664 82.136 35.824 81.752 36.912C81.384 38 80.848 38.952 80.144 39.768C79.44 40.584 78.576 41.232 77.552 41.712C76.544 42.176 75.4 42.408 74.12 42.408C72.84 42.408 71.688 42.176 70.664 41.712C69.656 41.232 68.8 40.584 68.096 39.768C67.392 38.952 66.848 38 66.464 36.912C66.096 35.824 65.912 34.664 65.912 33.432C65.912 32.216 66.096 31.064 66.464 29.976C66.848 28.888 67.392 27.936 68.096 27.12C68.8 26.304 69.656 25.656 70.664 25.176C71.688 24.696 72.84 24.456 74.12 24.456Z" fill="#FFEDED" style="fill:#FFEDED;fill:color(display-p3 1.0000 0.9275 0.9275);fill-opacity:1;"/>
<path d="M91.6 29.42C90.84 29.42 90.18 29.5733 89.62 29.88C89.0734 30.1867 88.6267 30.6 88.28 31.12C87.9334 31.6267 87.6734 32.2067 87.5 32.86C87.34 33.5133 87.26 34.18 87.26 34.86C87.26 35.54 87.34 36.2067 87.5 36.86C87.6734 37.5133 87.9334 38.1 88.28 38.62C88.6267 39.1267 89.0734 39.5333 89.62 39.84C90.18 40.1467 90.84 40.3 91.6 40.3C92.36 40.3 93.0134 40.1467 93.56 39.84C94.12 39.5333 94.5734 39.1267 94.92 38.62C95.2667 38.1 95.52 37.5133 95.68 36.86C95.8534 36.2067 95.94 35.54 95.94 34.86C95.94 34.18 95.8534 33.5133 95.68 32.86C95.52 32.2067 95.2667 31.6267 94.92 31.12C94.5734 30.6 94.12 30.1867 93.56 29.88C93.0134 29.5733 92.36 29.42 91.6 29.42ZM91.6 27.38C92.6667 27.38 93.62 27.58 94.46 27.98C95.3134 28.38 96.0334 28.92 96.62 29.6C97.2067 30.28 97.6534 31.0733 97.96 31.98C98.28 32.8867 98.44 33.8467 98.44 34.86C98.44 35.8867 98.28 36.8533 97.96 37.76C97.6534 38.6667 97.2067 39.46 96.62 40.14C96.0334 40.82 95.3134 41.36 94.46 41.76C93.62 42.1467 92.6667 42.34 91.6 42.34C90.5334 42.34 89.5733 42.1467 88.72 41.76C87.88 41.36 87.1667 40.82 86.58 40.14C85.9934 39.46 85.54 38.6667 85.22 37.76C84.9133 36.8533 84.76 35.8867 84.76 34.86C84.76 33.8467 84.9133 32.8867 85.22 31.98C85.54 31.0733 85.9934 30.28 86.58 29.6C87.1667 28.92 87.88 28.38 88.72 27.98C89.5733 27.58 90.5334 27.38 91.6 27.38Z" fill="#FFEDED" style="fill:#FFEDED;fill:color(display-p3 1.0000 0.9275 0.9275);fill-opacity:1;"/>
<path d="M100.715 27.72H107.015C108.029 27.72 108.855 27.8667 109.495 28.16C110.135 28.4533 110.629 28.82 110.975 29.26C111.322 29.7 111.555 30.18 111.675 30.7C111.809 31.22 111.875 31.7 111.875 32.14C111.875 32.58 111.809 33.06 111.675 33.58C111.555 34.0867 111.322 34.56 110.975 35C110.629 35.44 110.135 35.8067 109.495 36.1C108.855 36.38 108.029 36.52 107.015 36.52H103.215V42H100.715V27.72ZM103.215 34.48H106.875C107.155 34.48 107.442 34.44 107.735 34.36C108.029 34.28 108.295 34.1533 108.535 33.98C108.789 33.7933 108.989 33.5533 109.135 33.26C109.295 32.9533 109.375 32.5733 109.375 32.12C109.375 31.6533 109.309 31.2667 109.175 30.96C109.042 30.6533 108.862 30.4133 108.635 30.24C108.409 30.0533 108.149 29.9267 107.855 29.86C107.562 29.7933 107.249 29.76 106.915 29.76H103.215V34.48Z" fill="#FFEDED" style="fill:#FFEDED;fill:color(display-p3 1.0000 0.9275 0.9275);fill-opacity:1;"/>
<path d="M115.695 37.24C115.695 37.7867 115.789 38.2533 115.975 38.64C116.162 39.0267 116.422 39.3467 116.755 39.6C117.089 39.84 117.469 40.02 117.895 40.14C118.335 40.2467 118.809 40.3 119.315 40.3C119.862 40.3 120.329 40.24 120.715 40.12C121.102 39.9867 121.415 39.82 121.655 39.62C121.895 39.42 122.069 39.1933 122.175 38.94C122.282 38.6733 122.335 38.4067 122.335 38.14C122.335 37.5933 122.209 37.1933 121.955 36.94C121.715 36.6733 121.449 36.4867 121.155 36.38C120.649 36.1933 120.055 36.02 119.375 35.86C118.709 35.6867 117.882 35.4667 116.895 35.2C116.282 35.04 115.769 34.8333 115.355 34.58C114.955 34.3133 114.635 34.02 114.395 33.7C114.155 33.38 113.982 33.04 113.875 32.68C113.782 32.32 113.735 31.9533 113.735 31.58C113.735 30.86 113.882 30.24 114.175 29.72C114.482 29.1867 114.882 28.7467 115.375 28.4C115.869 28.0533 116.429 27.8 117.055 27.64C117.682 27.4667 118.315 27.38 118.955 27.38C119.702 27.38 120.402 27.48 121.055 27.68C121.722 27.8667 122.302 28.1533 122.795 28.54C123.302 28.9267 123.702 29.4067 123.995 29.98C124.289 30.54 124.435 31.1933 124.435 31.94H121.935C121.869 31.02 121.555 30.3733 120.995 30C120.435 29.6133 119.722 29.42 118.855 29.42C118.562 29.42 118.262 29.4533 117.955 29.52C117.649 29.5733 117.369 29.6733 117.115 29.82C116.862 29.9533 116.649 30.14 116.475 30.38C116.315 30.62 116.235 30.92 116.235 31.28C116.235 31.7867 116.389 32.1867 116.695 32.48C117.015 32.76 117.429 32.9733 117.935 33.12C117.989 33.1333 118.195 33.1933 118.555 33.3C118.929 33.3933 119.342 33.5 119.795 33.62C120.249 33.74 120.689 33.86 121.115 33.98C121.555 34.0867 121.869 34.1667 122.055 34.22C122.522 34.3667 122.929 34.5667 123.275 34.82C123.622 35.0733 123.909 35.3667 124.135 35.7C124.375 36.02 124.549 36.3667 124.655 36.74C124.775 37.1133 124.835 37.4867 124.835 37.86C124.835 38.66 124.669 39.3467 124.335 39.92C124.015 40.48 123.589 40.94 123.055 41.3C122.522 41.66 121.915 41.92 121.235 42.08C120.555 42.2533 119.862 42.34 119.155 42.34C118.342 42.34 117.575 42.24 116.855 42.04C116.135 41.84 115.509 41.5333 114.975 41.12C114.442 40.7067 114.015 40.18 113.695 39.54C113.375 38.8867 113.209 38.12 113.195 37.24H115.695Z" fill="#FFEDED" style="fill:#FFEDED;fill:color(display-p3 1.0000 0.9275 0.9275);fill-opacity:1;"/>
<path d="M156.43 30.8286L165.913 40.45M165.982 30.8979L156.36 40.381" stroke="#FFEDED" style="stroke:#FFEDED;stroke:color(display-p3 1.0000 0.9275 0.9275);stroke-opacity:1;" stroke-width="5" stroke-linecap="round"/>
</svg>
