<svg width="140" height="92" viewBox="0 0 140 92" fill="none" xmlns="http://www.w3.org/2000/svg">
<rect y="26.2598" width="128.929" height="66.9677" rx="33.4838" transform="rotate(-11.752 0 26.2598)" fill="#A88EF2" style="fill:#A88EF2;fill:color(display-p3 0.6582 0.5562 0.9484);fill-opacity:1;"/>
<path d="M109.432 42.5875C109.33 42.1007 109.043 41.6734 108.632 41.3997C108.222 41.126 107.722 41.0283 107.242 41.128C106.763 41.2277 106.343 41.5168 106.076 41.9315C105.809 42.3462 105.715 42.8527 105.817 43.3395C105.918 43.8263 106.205 44.2536 106.616 44.5273C107.027 44.801 107.527 44.8987 108.006 44.799C108.485 44.6993 108.905 44.4103 109.172 43.9955C109.44 43.5808 109.533 43.0743 109.432 42.5875ZM103.129 48.9851C103.423 48.529 103.887 48.2091 104.418 48.0987C104.49 48.0838 104.562 48.0727 104.631 48.0663L104.202 51.8937C104.075 53.0373 104.734 54.1289 105.804 54.5326L109.479 55.9185L109.229 59.5132C109.179 60.2016 109.693 60.8009 110.372 60.8551C111.051 60.9093 111.639 60.3921 111.688 59.7036L111.97 55.6395C112.028 54.8056 111.533 54.0309 110.762 53.7406L108.341 52.828L108.849 49.435L109.139 49.8654C109.988 51.1169 111.488 51.7345 112.949 51.4305L113.751 51.2637C114.417 51.125 114.842 50.4661 114.701 49.7893C114.56 49.1125 113.908 48.6777 113.242 48.8163L112.44 48.9832C111.954 49.0842 111.451 48.8776 111.172 48.461L110.815 47.9367C109.986 46.7089 108.662 45.9151 107.203 45.772L105.25 45.5799C104.805 45.5369 104.353 45.5589 103.913 45.6505C102.746 45.8934 101.721 46.5972 101.072 47.61L100.382 48.6751C100.011 49.251 100.172 50.0273 100.742 50.4073C101.312 50.7874 102.077 50.6284 102.448 50.0525L103.134 48.9882L103.129 48.9851ZM103.234 56.0047L101.005 56.4685C100.339 56.6071 99.914 57.266 100.055 57.9428C100.196 58.6197 100.848 59.0545 101.514 58.9158L104.135 58.3706C104.851 58.2217 105.409 57.6587 105.562 56.9368L105.789 55.8563L105.383 55.7013C104.637 55.4216 104.021 54.9154 103.599 54.2813L103.234 56.0047Z" fill="black" style="fill:black;fill-opacity:1;"/>
<path d="M21.4103 37.9813L29.2739 36.3454L29.7041 38.4131L24.2998 39.5374L24.8375 42.122L29.5212 41.1477L29.9188 43.0587L25.2351 44.0331L26.1965 48.6542L23.7371 49.1658L21.4103 37.9813ZM31.5271 41.6946C31.4498 41.1659 31.4901 40.7054 31.6482 40.313C31.8063 39.9205 32.0411 39.583 32.3527 39.3002C32.6643 39.0175 33.0307 38.7887 33.452 38.614C33.8815 38.4265 34.3207 38.2861 34.7698 38.1927C35.1771 38.108 35.5961 38.0535 36.0268 38.0293C36.4554 37.9946 36.8594 38.0249 37.2388 38.1203C37.6182 38.2157 37.949 38.392 38.2313 38.6492C38.5115 38.896 38.7026 39.2648 38.8047 39.7557L39.6813 43.9694C39.7574 44.3349 39.851 44.6804 39.9623 45.0059C40.0736 45.3314 40.1989 45.5668 40.3381 45.7122L38.0824 46.1815C38.0145 46.0649 37.9519 45.9471 37.8945 45.8283C37.8454 45.6969 37.8014 45.5644 37.7628 45.4308C37.4837 45.8702 37.1192 46.213 36.6693 46.4591C36.2193 46.7052 35.7437 46.8805 35.2424 46.9847C34.856 47.0651 34.486 47.0931 34.1322 47.0686C33.7785 47.0442 33.4557 46.9588 33.1638 46.8125C32.8719 46.6662 32.6213 46.4569 32.4121 46.1844C32.2133 45.9098 32.0705 45.5637 31.9836 45.1459C31.888 44.6865 31.8881 44.2942 31.9839 43.9692C32.088 43.6316 32.2469 43.348 32.4606 43.1183C32.6848 42.8864 32.95 42.6951 33.2564 42.5442C33.571 42.3807 33.89 42.238 34.2133 42.1163C34.5366 41.9946 34.8568 41.8844 35.1741 41.7857C35.4913 41.687 35.7687 41.5803 36.0063 41.4655C36.2439 41.3507 36.4238 41.2206 36.5461 41.0753C36.6663 40.9196 36.6972 40.7279 36.639 40.5004C36.589 40.2602 36.5081 40.0809 36.3964 39.9625C36.2928 39.8315 36.1656 39.7436 36.0146 39.6987C35.8719 39.6413 35.7096 39.6205 35.5278 39.6366C35.3542 39.64 35.1681 39.6624 34.9697 39.7037C34.5311 39.7949 34.206 39.9606 33.9945 40.2007C33.783 40.4408 33.702 40.7845 33.7514 41.2318L31.5271 41.6946ZM37.0072 42.2705C36.9306 42.3736 36.8247 42.4664 36.6893 42.5491C36.5622 42.6191 36.4184 42.6871 36.2579 42.7532C36.1077 42.8171 35.9461 42.878 35.7729 42.9358C35.5997 42.9936 35.4276 43.0567 35.2566 43.125C35.096 43.191 34.9376 43.2676 34.7814 43.3546C34.6356 43.4394 34.5098 43.5418 34.4041 43.6618C34.3066 43.7693 34.2354 43.8985 34.1905 44.0495C34.1457 44.2004 34.145 44.3803 34.1884 44.5892C34.2297 44.7876 34.301 44.9471 34.4024 45.0677C34.5037 45.1882 34.6257 45.2772 34.7684 45.3347C34.9089 45.3817 35.066 45.4035 35.2396 45.4001C35.4132 45.3967 35.5888 45.3765 35.7663 45.3396C36.2049 45.2483 36.5291 45.1046 36.7389 44.9084C36.9487 44.7123 37.0904 44.503 37.164 44.2807C37.2354 44.0479 37.2598 43.8249 37.2372 43.6117C37.2251 43.3964 37.206 43.226 37.18 43.1007L37.0072 42.2705ZM42.1241 35.5841L39.8998 36.0469L39.5185 34.2141L41.7429 33.7514L42.1241 35.5841ZM40.1605 37.3L42.3848 36.8373L44.0697 44.9359L41.8453 45.3986L40.1605 37.3ZM43.557 33.3739L45.7814 32.9112L48.1082 44.0957L45.8838 44.5585L43.557 33.3739ZM57.457 42.1508L55.3423 42.5908L55.1077 41.4629L55.0607 41.4727C54.8765 42.0013 54.5816 42.4167 54.176 42.719C53.7704 43.0213 53.3326 43.2213 52.8627 43.3191C52.2674 43.4429 51.7603 43.4667 51.3413 43.3904C50.9328 43.312 50.5895 43.1546 50.3116 42.9183C50.0314 42.6715 49.802 42.3542 49.6233 41.9665C49.4528 41.5662 49.3155 41.1154 49.2112 40.6141L48.1749 35.6327L50.3993 35.17L51.3508 39.7441C51.4899 40.4124 51.6986 40.892 51.977 41.1827C52.2532 41.463 52.6576 41.5477 53.1902 41.4369C53.7959 41.3109 54.1976 41.0421 54.3952 40.6306C54.5907 40.2086 54.6026 39.5851 54.431 38.7601L53.5478 34.515L55.7722 34.0522L57.457 42.1508ZM57.4604 33.701L59.5752 33.2611L59.888 34.7649L59.9193 34.7583C59.9716 34.486 60.0648 34.2269 60.1989 33.9811C60.3308 33.7249 60.4964 33.4998 60.6958 33.3058C60.8929 33.1013 61.1133 32.9302 61.357 32.7923C61.6007 32.6544 61.8636 32.5562 62.1455 32.4975C62.2917 32.4671 62.459 32.4595 62.6474 32.4748L63.0776 34.5426C62.9688 34.5434 62.8402 34.5538 62.6919 34.5738C62.5413 34.5833 62.3982 34.6022 62.2624 34.6304C61.8551 34.7152 61.5246 34.8547 61.2709 35.0492C61.0172 35.2436 60.8265 35.4793 60.699 35.7565C60.5797 36.021 60.5161 36.3175 60.5082 36.646C60.5002 36.9745 60.5343 37.3215 60.6103 37.687L61.3696 41.3369L59.1453 41.7996L57.4604 33.701ZM69.3863 34.5375C69.1646 33.9953 68.8875 33.6063 68.5552 33.3703C68.2332 33.1322 67.8008 33.0697 67.2577 33.1827C66.9027 33.2565 66.6181 33.3811 66.404 33.5564C66.1981 33.7191 66.0405 33.9044 65.9313 34.1123C65.8325 34.3181 65.7723 34.5267 65.751 34.7382C65.74 34.9474 65.7456 35.1315 65.7678 35.2903L69.3863 34.5375ZM66.0611 36.7001C66.2423 37.4142 66.5337 37.8983 66.9352 38.1525C67.3367 38.4067 67.8508 38.4687 68.4774 38.3383C68.9264 38.2449 69.29 38.0549 69.5681 37.7682C69.8441 37.4711 69.9925 37.1896 70.0135 36.9238L71.9716 36.5164C71.8603 37.5528 71.5244 38.3472 70.9638 38.8996C70.4033 39.4521 69.6635 39.8239 68.7445 40.0151C68.1075 40.1476 67.5125 40.1679 66.9595 40.0759C66.4043 39.9735 65.9101 39.7712 65.4768 39.4692C65.0435 39.1671 64.6734 38.7756 64.3663 38.2947C64.0697 37.8117 63.8563 37.2569 63.7259 36.6303C63.5999 36.0246 63.5818 35.44 63.6716 34.8766C63.7614 34.3131 63.9499 33.8054 64.2372 33.3534C64.5223 32.891 64.8927 32.498 65.3484 32.1744C65.8144 31.8487 66.3556 31.6217 66.9717 31.4935C67.6609 31.3501 68.2897 31.361 68.8579 31.526C69.4239 31.6806 69.9155 31.9488 70.3326 32.3305C70.7602 32.71 71.1069 33.1718 71.3726 33.7157C71.6383 34.2597 71.8154 34.8493 71.904 35.4846L66.0611 36.7001ZM77.839 36.162L83.1121 32.6789L76.8874 31.5879L76.5126 29.7865L85.1285 31.2952L85.5131 33.1436L78.2105 37.9477L77.839 36.162ZM87.2316 34.2079L92.5047 30.7249L86.28 29.6339L85.9053 27.8324L94.5212 29.3412L94.9057 31.1896L87.6031 35.9937L87.2316 34.2079ZM96.6243 32.2539L101.897 28.7709L95.6727 27.6798L95.2979 25.8784L103.914 27.3872L104.298 29.2356L96.9958 34.0397L96.6243 32.2539ZM28.7144 64.6854C28.7926 65.0613 28.9268 65.3657 29.1168 65.5986C29.3069 65.8314 29.529 66.0085 29.7831 66.13C30.0454 66.2389 30.3367 66.3036 30.6569 66.3241C30.975 66.3342 31.2959 66.3056 31.6196 66.2382C31.8389 66.1926 32.0706 66.128 32.3147 66.0446C32.5567 65.9507 32.7764 65.8287 32.974 65.6786C33.1716 65.5286 33.325 65.3496 33.4343 65.1416C33.5414 64.9232 33.5656 64.6731 33.5069 64.3911C33.4439 64.0882 33.2937 63.8635 33.0561 63.7168C32.8291 63.5679 32.5458 63.4634 32.2065 63.4033C31.8671 63.3431 31.4892 63.3073 31.0729 63.2959C30.6565 63.2845 30.2327 63.2637 29.8015 63.2335C29.3621 63.216 28.9287 63.1754 28.5014 63.1118C28.072 63.0377 27.6757 62.9131 27.3124 62.7381C26.9492 62.5631 26.6314 62.3187 26.3591 62.0049C26.0951 61.6785 25.9099 61.2595 25.8034 60.7477C25.6839 60.1734 25.7008 59.6524 25.8541 59.1847C26.0157 58.7044 26.2655 58.2819 26.6037 57.9174C26.9419 57.5529 27.3475 57.2506 27.8205 57.0106C28.2935 56.7705 28.7807 56.5984 29.2819 56.4941C29.8668 56.3724 30.4396 56.3241 31.0004 56.349C31.5695 56.3614 32.0934 56.4703 32.5719 56.6758C33.0505 56.8813 33.4576 57.1888 33.7934 57.5984C34.1375 57.9953 34.3769 58.5175 34.5116 59.1649L32.1305 59.6603C32.0401 59.3304 31.9094 59.0689 31.7385 58.8757C31.578 58.6803 31.3855 58.5405 31.161 58.4565C30.9365 58.3725 30.6883 58.3315 30.4164 58.3336C30.1549 58.3335 29.8727 58.365 29.5699 58.428C29.3714 58.4693 29.1774 58.5314 28.9876 58.6145C28.7979 58.6975 28.6304 58.8086 28.485 58.9478C28.3501 59.0849 28.2467 59.2426 28.1749 59.4209C28.103 59.5993 28.0921 59.8086 28.1421 60.0488C28.1877 60.2681 28.2664 60.4369 28.3782 60.5553C28.49 60.6737 28.6779 60.7653 28.942 60.8302C29.2165 60.893 29.5798 60.9372 30.0319 60.963C30.4944 60.9866 31.0939 61.0144 31.8306 61.0464C32.0481 61.0447 32.3516 61.0633 32.741 61.1021C33.1387 61.1284 33.5453 61.2236 33.9607 61.3877C34.3762 61.5519 34.7569 61.8104 35.1027 62.1634C35.4567 62.5037 35.6989 62.9872 35.8293 63.6138C35.9358 64.1255 35.9354 64.6213 35.8282 65.1012C35.7211 65.5811 35.5027 66.0242 35.1732 66.4305C34.852 66.8241 34.4175 67.1706 33.8696 67.4698C33.3322 67.7668 32.6823 67.9946 31.9199 68.1532C31.3038 68.2814 30.687 68.328 30.0696 68.293C29.4648 68.2663 28.9042 68.1378 28.3878 67.9074C27.8819 67.675 27.4462 67.3352 27.0809 66.8883C26.7155 66.4413 26.4663 65.8721 26.3334 65.1807L28.7144 64.6854ZM45.3458 65.0986L43.2311 65.5386L42.9965 64.4107L42.9495 64.4205C42.7653 64.9491 42.4704 65.3645 42.0648 65.6668C41.6592 65.9691 41.2214 66.1691 40.7515 66.2669C40.1562 66.3907 39.6491 66.4145 39.2301 66.3382C38.8216 66.2598 38.4783 66.1024 38.2004 65.8661C37.9202 65.6193 37.6908 65.302 37.5121 64.9143C37.3416 64.514 37.2043 64.0632 37.1 63.5619L36.0637 58.5805L38.2881 58.1178L39.2396 62.6919C39.3787 63.3602 39.5874 63.8398 39.8658 64.1305C40.142 64.4108 40.5464 64.4955 41.079 64.3847C41.6847 64.2587 42.0864 63.9899 42.284 63.5784C42.4795 63.1564 42.4914 62.5329 42.3198 61.7079L41.4366 57.4628L43.661 57L45.3458 65.0986ZM51.4563 58.3526C51.1167 57.4536 50.4718 57.103 49.5215 57.3007C49.1664 57.3745 48.8862 57.52 48.6807 57.7371C48.4731 57.9437 48.3182 58.1938 48.2158 58.4875C48.1218 58.7685 48.076 59.0722 48.0785 59.3985C48.0789 59.7144 48.1105 60.0238 48.1735 60.3266C48.2344 60.6191 48.3276 60.9102 48.4533 61.2C48.5789 61.4898 48.7357 61.7459 48.9236 61.9683C49.1198 62.1781 49.3543 62.3363 49.6271 62.443C49.8998 62.5496 50.2085 62.5671 50.5532 62.4954C51.0858 62.3846 51.4626 62.1537 51.6838 61.8026C51.9132 61.439 52.0123 60.9989 51.9811 60.4824L54.1271 60.0359C54.2047 61.142 53.9575 62.0487 53.3856 62.756C52.8137 63.4633 51.9899 63.9289 50.9143 64.1526C50.3086 64.2786 49.7292 64.2957 49.1762 64.2037C48.6315 64.0991 48.1436 63.901 47.7125 63.6094C47.2814 63.3177 46.9145 62.9419 46.6118 62.4819C46.3069 62.0115 46.0915 61.4734 45.9655 60.8677C45.8351 60.2411 45.8033 59.6431 45.87 59.0735C45.945 58.4914 46.1199 57.9702 46.3946 57.5099C46.6671 57.0392 47.0364 56.641 47.5024 56.3152C47.9685 55.9895 48.5305 55.7582 49.1885 55.6213C49.6688 55.5214 50.1414 55.4884 50.606 55.5225C51.0812 55.5544 51.5182 55.665 51.9171 55.8544C52.3243 56.0312 52.6778 56.29 52.9775 56.6307C53.275 56.9611 53.4937 57.384 53.6337 57.8997L51.4563 58.3526ZM60.4512 56.4814C60.1117 55.5823 59.4667 55.2317 58.5164 55.4294C58.1613 55.5033 57.8811 55.6487 57.6757 55.8658C57.4681 56.0724 57.3131 56.3225 57.2108 56.6162C57.1167 56.8972 57.0709 57.2009 57.0734 57.5273C57.0738 57.8431 57.1055 58.1525 57.1685 58.4554C57.2293 58.7478 57.3225 59.0389 57.4482 59.3287C57.5739 59.6185 57.7306 59.8746 57.9185 60.097C58.1147 60.3068 58.3492 60.465 58.622 60.5717C58.8948 60.6784 59.2035 60.6958 59.5481 60.6242C60.0807 60.5134 60.4575 60.2824 60.6787 59.9314C60.9081 59.5677 61.0072 59.1276 60.976 58.6111L63.122 58.1647C63.1996 59.2707 62.9524 60.1774 62.3805 60.8847C61.8086 61.592 60.9848 62.0576 59.9092 62.2813C59.3035 62.4074 58.7241 62.4244 58.1711 62.3324C57.6264 62.2278 57.1385 62.0297 56.7074 61.7381C56.2763 61.4464 55.9094 61.0706 55.6067 60.6106C55.3018 60.1402 55.0864 59.6021 54.9604 58.9964C54.83 58.3699 54.7982 57.7718 54.8649 57.2023C54.9399 56.6201 55.1148 56.0989 55.3895 55.6387C55.662 55.168 56.0313 54.7697 56.4974 54.444C56.9634 54.1182 57.5255 53.8869 58.1834 53.75C58.6637 53.6501 59.1363 53.6171 59.601 53.6512C60.0761 53.6831 60.5131 53.7938 60.912 53.9831C61.3192 54.1599 61.6727 54.4187 61.9724 54.7594C62.2699 55.0898 62.4886 55.5128 62.6286 56.0284L60.4512 56.4814ZM69.4519 54.9521C69.2302 54.4099 68.9531 54.0208 68.6208 53.7849C68.2988 53.5468 67.8664 53.4842 67.3233 53.5972C66.9683 53.6711 66.6837 53.7957 66.4696 53.9709C66.2637 54.1336 66.1061 54.3189 65.9969 54.5269C65.898 54.7326 65.8379 54.9413 65.8166 55.1527C65.8056 55.362 65.8112 55.546 65.8334 55.7049L69.4519 54.9521ZM66.1267 57.1147C66.3079 57.8287 66.5993 58.3129 67.0008 58.5671C67.4023 58.8213 67.9164 58.8832 68.543 58.7529C68.992 58.6595 69.3556 58.4694 69.6337 58.1828C69.9097 57.8857 70.0581 57.6042 70.0791 57.3384L72.0372 56.931C71.9259 57.9674 71.59 58.7618 71.0294 59.3142C70.4689 59.8666 69.7291 60.2384 68.8101 60.4296C68.1731 60.5621 67.5781 60.5824 67.0251 60.4905C66.4699 60.3881 65.9757 60.1858 65.5424 59.8837C65.1091 59.5816 64.739 59.1902 64.4319 58.7093C64.1353 58.2262 63.9219 57.6714 63.7915 57.0448C63.6655 56.4391 63.6474 55.8546 63.7372 55.2911C63.827 54.7277 64.0155 54.22 64.3028 53.768C64.5879 53.3056 64.9583 52.9126 65.414 52.589C65.88 52.2632 66.4212 52.0363 67.0373 51.9081C67.7265 51.7647 68.3553 51.7755 68.9235 51.9406C69.4895 52.0952 69.9811 52.3634 70.3982 52.7451C70.8258 53.1246 71.1725 53.5863 71.4382 54.1303C71.7039 54.6743 71.881 55.2639 71.9696 55.8991L66.1267 57.1147ZM75.1944 56.1434C75.2444 56.3836 75.3348 56.5827 75.4658 56.7407C75.605 56.8861 75.7648 56.9999 75.9454 57.0822C76.1237 57.154 76.3176 57.1954 76.5268 57.2063C76.7466 57.2151 76.9661 57.1967 77.1854 57.151C77.342 57.1185 77.5006 57.0691 77.6612 57.003C77.8301 56.9243 77.9748 56.8343 78.0953 56.7329C78.2241 56.619 78.3225 56.4896 78.3904 56.3447C78.4562 56.1894 78.4684 56.0125 78.4271 55.8141C78.3576 55.4799 78.0809 55.276 77.5971 55.2023C77.1237 55.1265 76.4728 55.0876 75.6444 55.0856C75.3055 55.0799 74.9696 55.0626 74.6367 55.0338C74.3121 54.9923 74.0135 54.9183 73.7407 54.8116C73.4657 54.6945 73.2302 54.531 73.034 54.3213C72.8357 54.101 72.6996 53.8134 72.6257 53.4583C72.5171 52.9362 72.5272 52.4874 72.6561 52.1119C72.7954 51.7343 73.0126 51.4167 73.3077 51.1592C73.6006 50.8913 73.9483 50.6773 74.3508 50.5173C74.7512 50.3469 75.1707 50.216 75.6093 50.1248C76.0479 50.0335 76.4795 49.9873 76.9042 49.9861C77.3393 49.9828 77.7393 50.0466 78.1043 50.1777C78.4694 50.3088 78.7911 50.5197 79.0694 50.8104C79.3561 51.0885 79.5724 51.4738 79.7185 51.9664L77.6038 52.4064C77.4834 51.9847 77.2618 51.7312 76.9389 51.6458C76.6139 51.55 76.253 51.5434 75.8562 51.626C75.7309 51.652 75.5973 51.6907 75.4554 51.742C75.3114 51.7829 75.1822 51.8424 75.0677 51.9207C74.9637 51.9968 74.8808 52.0958 74.819 52.2176C74.755 52.329 74.7404 52.4682 74.7751 52.6353C74.8164 52.8337 74.9232 52.9804 75.0954 53.0753C75.2677 53.1702 75.4774 53.2355 75.7245 53.2713C75.9799 53.2944 76.2656 53.3058 76.5815 53.3054C76.8974 53.3051 77.2195 53.3089 77.548 53.3168C77.887 53.3226 78.2187 53.3461 78.5433 53.3876C78.8783 53.4268 79.1844 53.5102 79.4615 53.6378C79.7365 53.7549 79.9742 53.9288 80.1747 54.1595C80.3731 54.3797 80.5114 54.6778 80.5896 55.0537C80.7004 55.5863 80.6841 56.0582 80.5409 56.4693C80.4059 56.8678 80.1889 57.2126 79.8899 57.5036C79.5909 57.7946 79.2256 58.0286 78.7939 58.2055C78.3748 58.3908 77.9355 58.5312 77.4761 58.6268C77.0061 58.7245 76.5368 58.7731 76.0682 58.7726C75.5996 58.772 75.165 58.699 74.7643 58.5536C74.3741 58.406 74.0271 58.1785 73.7235 57.8712C73.4282 57.5514 73.2136 57.1221 73.0797 56.5834L75.1944 56.1434ZM83.608 54.3931C83.658 54.6333 83.7485 54.8324 83.8794 54.9903C84.0186 55.1357 84.1784 55.2495 84.359 55.3318C84.5373 55.4037 84.7312 55.445 84.9405 55.456C85.1602 55.4647 85.3797 55.4463 85.599 55.4007C85.7556 55.3681 85.9143 55.3188 86.0748 55.2527C86.2437 55.174 86.3884 55.0839 86.5089 54.9826C86.6377 54.8686 86.7361 54.7392 86.804 54.5944C86.8698 54.439 86.882 54.2622 86.8407 54.0638C86.7712 53.7296 86.4945 53.5257 86.0107 53.452C85.5374 53.3761 84.8865 53.3372 84.058 53.3353C83.7191 53.3295 83.3832 53.3122 83.0503 53.2834C82.7258 53.242 82.4271 53.1679 82.1543 53.0613C81.8794 52.9441 81.6438 52.7807 81.4476 52.5709C81.2493 52.3507 81.1132 52.0631 81.0393 51.708C80.9307 51.1858 80.9408 50.737 81.0697 50.3616C81.209 49.9839 81.4263 49.6664 81.7213 49.4089C82.0142 49.1409 82.3619 48.927 82.7644 48.767C83.1648 48.5965 83.5843 48.4657 84.0229 48.3744C84.4615 48.2832 84.8931 48.237 85.3178 48.2358C85.7529 48.2324 86.1529 48.2963 86.518 48.4274C86.883 48.5584 87.2047 48.7693 87.483 49.06C87.7697 49.3382 87.9861 49.7235 88.1321 50.2161L86.0174 50.656C85.897 50.2344 85.6754 49.9809 85.3526 49.8955C85.0276 49.7997 84.6666 49.793 84.2698 49.8756C84.1445 49.9017 84.0109 49.9404 83.869 49.9917C83.725 50.0325 83.5958 50.0921 83.4813 50.1704C83.3773 50.2465 83.2944 50.3455 83.2326 50.4673C83.1686 50.5786 83.154 50.7179 83.1887 50.885C83.23 51.0834 83.3368 51.23 83.5091 51.3249C83.6813 51.4198 83.891 51.4852 84.1382 51.5209C84.3936 51.544 84.6792 51.5554 84.9951 51.5551C85.311 51.5547 85.6332 51.5585 85.9617 51.5665C86.3006 51.5722 86.6324 51.5958 86.9569 51.6372C87.292 51.6765 87.598 51.7599 87.8751 51.8875C88.1501 52.0046 88.3878 52.1785 88.5883 52.4091C88.7867 52.6293 88.925 52.9274 89.0032 53.3034C89.114 53.836 89.0977 54.3078 88.9545 54.719C88.8195 55.1175 88.6025 55.4622 88.3035 55.7532C88.0045 56.0442 87.6392 56.2782 87.2075 56.4552C86.7884 56.6404 86.3492 56.7808 85.8897 56.8764C85.4197 56.9742 84.9505 57.0228 84.4818 57.0222C84.0132 57.0217 83.5786 56.9487 83.1779 56.8032C82.7877 56.6556 82.4407 56.4282 82.1371 56.1209C81.8418 55.801 81.6272 55.3717 81.4933 54.833L83.608 54.3931Z" fill="#141414" style="fill:#141414;fill:color(display-p3 0.0784 0.0784 0.0784);fill-opacity:1;"/>
</svg>
