<svg width="225" height="122" viewBox="0 0 225 122" fill="none" xmlns="http://www.w3.org/2000/svg">
<rect y="39.6565" width="212.561" height="83.7897" rx="16" transform="rotate(-10.7524 0 39.6565)" fill="#73C4D5" style="fill:#73C4D5;fill:color(display-p3 0.4528 0.7667 0.8356);fill-opacity:1;"/>
<path d="M19.276 55.6144L23.2738 54.7994C23.8617 54.6795 24.3183 54.4164 24.6437 54.0098C24.9664 53.5903 25.0638 53.0669 24.936 52.4398C24.7922 51.7343 24.5146 51.2738 24.1033 51.0583C23.6919 50.8428 23.1531 50.803 22.4868 50.9388L18.489 51.7538L19.276 55.6144ZM15.6319 50.2542L22.4321 48.868C23.6863 48.6123 24.7508 48.6947 25.6258 49.115C26.5007 49.5354 27.0567 50.327 27.2937 51.4897C27.4375 52.1952 27.385 52.8387 27.1361 53.4201C26.8977 53.9858 26.4863 54.4711 25.9021 54.8759L25.9101 54.9151C26.8096 54.9223 27.5467 55.2006 28.1214 55.7503C28.6935 56.2868 29.0767 57.0319 29.2711 57.9857C29.383 58.5344 29.3902 59.0704 29.2928 59.5937C29.1927 60.104 28.9695 60.5781 28.6234 61.0161C28.2746 61.441 27.7948 61.8246 27.1842 62.1668C26.5709 62.4959 25.8136 62.7524 24.9121 62.9361L18.4843 64.2465L15.6319 50.2542ZM20.5264 61.7482L24.8574 60.8653C25.6021 60.7135 26.1383 60.4069 26.466 59.9455C26.8042 59.4683 26.9014 58.877 26.7576 58.1715C26.6164 57.479 26.2995 56.9925 25.8069 56.712C25.3246 56.4156 24.7112 56.3434 23.9665 56.4952L19.6356 57.3781L20.5264 61.7482ZM40.866 59.6838L38.6712 60.1313L38.3835 58.7203L38.3443 58.7283C38.1738 59.2937 37.8462 59.7892 37.3614 60.2146C36.887 60.6242 36.3689 60.8864 35.8071 61.0009C34.4745 61.2725 33.4412 61.143 32.707 60.6123C31.9833 60.0658 31.4856 59.1263 31.214 57.7937L29.9036 51.3659L32.1377 50.9105L33.4041 57.1227C33.5852 58.0111 33.8828 58.6036 34.2971 58.9002C34.7114 59.1967 35.2255 59.2824 35.8395 59.1572C36.3099 59.0614 36.6872 58.9096 36.9714 58.702C37.2557 58.4944 37.4718 58.253 37.6198 57.9779C37.7652 57.6897 37.8425 57.3678 37.8516 57.0121C37.8738 56.6538 37.845 56.2787 37.7651 55.8867L36.5666 50.0076L38.8006 49.5522L40.866 59.6838ZM40.4283 45.1994L42.6624 44.7439L43.0938 46.8604L40.8598 47.3158L40.4283 45.1994ZM41.2153 49.06L43.4494 48.6045L45.5148 58.7362L43.2807 59.1916L41.2153 49.06ZM45.1553 44.2357L47.3894 43.7803L50.2418 57.7725L48.0077 58.228L45.1553 44.2357ZM62.2196 55.3308L60.1032 55.7622L59.8235 54.3905L59.7843 54.3984C59.6037 55.0476 59.2526 55.5614 58.731 55.9399C58.2068 56.3053 57.6246 56.5533 56.9844 56.6838C56.1875 56.8462 55.4605 56.8515 54.8036 56.6997C54.1571 56.5321 53.5886 56.2466 53.0982 55.8431C52.6077 55.4396 52.1979 54.9312 51.8687 54.3179C51.5369 53.6916 51.2938 52.9995 51.1393 52.2418C50.9529 51.3273 50.9159 50.5116 51.0283 49.7947C51.1407 49.0778 51.3554 48.4625 51.6726 47.9488C52.0027 47.4324 52.4092 47.023 52.8918 46.7205C53.3848 46.4023 53.9057 46.1872 54.4544 46.0754C54.768 46.0114 55.0947 45.9788 55.4346 45.9776C55.7719 45.9633 56.1041 45.9908 56.4312 46.0602C56.7583 46.1296 57.0673 46.2435 57.3582 46.4019C57.6594 46.5446 57.9229 46.7358 58.1487 46.9756L58.1879 46.9676L57.1332 41.794L59.3673 41.3386L62.2196 55.3308ZM53.4093 51.9627C53.4972 52.3939 53.636 52.8078 53.8258 53.2046C54.0286 53.5987 54.2743 53.9364 54.563 54.2177C54.8648 54.4964 55.212 54.6978 55.6047 54.8219C55.9974 54.9459 56.4354 54.9587 56.9188 54.8601C57.4153 54.7589 57.8186 54.5679 58.1287 54.2869C58.4519 54.0033 58.6899 53.669 58.8428 53.2841C59.0087 52.8964 59.1013 52.4829 59.1206 52.0436C59.1503 51.5885 59.1198 51.1388 59.0293 50.6946C58.8003 49.5711 58.3671 48.7477 57.7297 48.2244C57.1054 47.6985 56.3621 47.5235 55.4999 47.6993C54.9773 47.8058 54.5557 48.0074 54.2352 48.3041C53.925 48.585 53.6883 48.9258 53.5251 49.3265C53.3722 49.7115 53.2888 50.1367 53.2749 50.6022C53.2713 51.052 53.3161 51.5055 53.4093 51.9627ZM61.8625 40.8299L64.0966 40.3745L64.528 42.4909L62.294 42.9464L61.8625 40.8299ZM62.6495 44.6905L64.8836 44.2351L66.9489 54.3667L64.7149 54.8221L62.6495 44.6905ZM67.3177 43.7389L69.4342 43.3074L69.7378 44.7968L69.785 44.828C70.0101 44.197 70.3651 43.6687 70.8499 43.2433C71.3321 42.8049 71.9063 42.5177 72.5726 42.3819C73.6831 42.1555 74.617 42.2645 75.3743 42.7088C76.1317 43.1532 76.6275 43.9502 76.8619 45.0999L78.2801 52.0568L76.0461 52.5122L74.7477 46.1432C74.5591 45.3516 74.2721 44.8114 73.8866 44.5225C73.4985 44.2206 72.9713 44.1376 72.305 44.2734C71.9261 44.3507 71.6011 44.4918 71.3299 44.6967C71.0561 44.8886 70.8399 45.13 70.6815 45.4209C70.5204 45.6986 70.4143 46.0128 70.3633 46.3634C70.3123 46.714 70.3241 47.0722 70.3987 47.438L71.6172 53.4151L69.3831 53.8705L67.3177 43.7389ZM89.8955 49.1378C90.2071 50.6664 90.0077 51.8909 89.2972 52.8114C88.6025 53.7422 87.4517 54.3714 85.8447 54.699C85.3352 54.8029 84.8085 54.8558 84.2646 54.8578C83.7338 54.8572 83.2275 54.7767 82.7458 54.6164C82.2771 54.4534 81.8578 54.1987 81.4878 53.8522C81.1178 53.5058 80.8467 53.044 80.6746 52.4667L82.9087 52.0113C83.0379 52.3116 83.2009 52.5437 83.3976 52.7077C83.5944 52.8717 83.8079 52.9847 84.0382 53.0466C84.2843 53.1189 84.5406 53.1415 84.8073 53.1143C85.0766 53.1002 85.3549 53.0639 85.6423 53.0053C86.5438 52.8216 87.1583 52.465 87.4858 51.9355C87.8133 51.4061 87.8918 50.7233 87.7214 49.8872L87.4058 48.339L87.3666 48.347C87.1676 48.9727 86.8257 49.4983 86.3409 49.9237C85.8691 50.3464 85.3197 50.6217 84.6926 50.7496C83.8826 50.9147 83.1622 50.9187 82.5314 50.7615C81.9111 50.5886 81.3622 50.2991 80.8848 49.8929C80.4177 49.471 80.0341 48.9573 79.7337 48.3518C79.4334 47.7462 79.2086 47.0776 79.0595 46.346C78.921 45.6667 78.8937 44.9987 78.9775 44.342C79.0614 43.6854 79.2527 43.0884 79.5514 42.5513C79.8475 42.0011 80.2484 41.5315 80.7543 41.1426C81.2732 40.7511 81.8919 40.4821 82.6105 40.3356C83.2507 40.2051 83.8665 40.2224 84.4581 40.3876C85.047 40.5397 85.5438 40.8739 85.9484 41.3901L85.9876 41.3821L85.7039 39.9907L87.938 39.5353L89.8955 49.1378ZM84.6858 48.9139C85.1823 48.8127 85.5804 48.6295 85.8801 48.3643C86.1902 48.0834 86.4165 47.7583 86.559 47.389C86.7118 47.0041 86.7914 46.5933 86.7976 46.1565C86.8142 45.7041 86.7786 45.2623 86.6907 44.8312C86.6028 44.4 86.4653 43.9926 86.2782 43.6089C86.0912 43.2252 85.8546 42.8993 85.5686 42.631C85.2956 42.36 84.9642 42.1691 84.5741 42.0581C84.1972 41.9444 83.767 41.9369 83.2836 42.0354C82.7871 42.1366 82.3904 42.3263 82.0933 42.6046C81.7962 42.8829 81.5778 43.2132 81.438 43.5955C81.2956 43.9647 81.2226 44.3742 81.219 44.824C81.2128 45.2607 81.2523 45.6881 81.3375 46.1062C81.4227 46.5242 81.5589 46.9251 81.7459 47.3088C81.9304 47.6794 82.159 48.0002 82.432 48.2712C82.718 48.5394 83.0443 48.7383 83.4109 48.8677C83.7905 48.9944 84.2155 49.0098 84.6858 48.9139ZM94.6224 38.1727L96.3077 37.8291L95.6885 34.7916L97.9226 34.3361L98.5418 37.3737L100.56 36.9622L100.9 38.6279L98.8814 39.0394L99.984 44.4482C100.032 44.6833 100.08 44.8845 100.127 45.0517C100.188 45.2162 100.263 45.3506 100.352 45.4549C100.455 45.5565 100.585 45.6253 100.742 45.6613C100.896 45.6843 101.097 45.6704 101.345 45.6198C101.502 45.5879 101.659 45.5559 101.816 45.524C101.97 45.4789 102.121 45.4208 102.27 45.3497L102.622 47.0742C102.379 47.151 102.142 47.2264 101.913 47.3004C101.683 47.3745 101.444 47.4368 101.195 47.4874C100.608 47.6073 100.12 47.6522 99.7329 47.6223C99.3562 47.5766 99.042 47.4706 98.7904 47.3041C98.5491 47.122 98.356 46.8756 98.2111 46.565C98.0791 46.2517 97.964 45.8873 97.8658 45.4719L96.6473 39.4948L94.962 39.8384L94.6224 38.1727ZM101.38 32.774L103.614 32.3186L104.673 37.5117L104.712 37.5038C104.893 36.9906 105.221 36.5291 105.696 36.1195C106.18 35.694 106.756 35.4134 107.422 35.2776C108.533 35.0512 109.467 35.1602 110.224 35.6045C110.981 36.0489 111.477 36.8459 111.712 37.9956L113.13 44.9525L110.896 45.4079L109.597 39.0389C109.409 38.2473 109.122 37.7071 108.736 37.4183C108.348 37.1164 107.821 37.0333 107.155 37.1692C106.776 37.2464 106.451 37.3875 106.18 37.5925C105.906 37.7844 105.69 38.0257 105.531 38.3166C105.37 38.5944 105.264 38.9085 105.213 39.2591C105.162 39.6097 105.174 39.9679 105.248 40.3337L106.467 46.3108L104.233 46.7662L101.38 32.774ZM121.228 37.0966C121.13 36.7491 120.982 36.4254 120.785 36.1255C120.601 35.8228 120.374 35.5765 120.104 35.3867C119.844 35.181 119.543 35.0383 119.2 34.9585C118.868 34.863 118.512 34.8539 118.133 34.9311C117.741 35.011 117.397 35.1561 117.099 35.3664C116.812 35.561 116.577 35.8063 116.392 36.1025C116.218 36.3829 116.092 36.7011 116.015 37.057C115.951 37.4103 115.951 37.7777 116.015 38.1592L121.228 37.0966ZM116.315 39.629C116.395 40.0209 116.524 40.3891 116.703 40.7336C116.896 41.0755 117.131 41.3609 117.409 41.59C117.687 41.8191 118.013 41.984 118.387 42.0845C118.759 42.1721 119.18 42.1679 119.65 42.072C120.303 41.9389 120.798 41.6951 121.134 41.3409C121.48 40.9709 121.694 40.4851 121.776 39.8833L123.892 39.4519C123.887 40.0246 123.784 40.5558 123.584 41.0455C123.385 41.5352 123.113 41.9716 122.769 42.3546C122.423 42.7246 122.01 43.0334 121.53 43.281C121.065 43.539 120.558 43.7239 120.01 43.8357C119.213 43.9982 118.481 44.0114 117.813 43.8753C117.146 43.7391 116.549 43.4799 116.022 43.0974C115.508 42.7123 115.073 42.2158 114.718 41.6078C114.376 40.9972 114.125 40.3 113.965 39.5161C113.819 38.7975 113.791 38.0955 113.883 37.4101C113.985 36.7089 114.196 36.074 114.515 35.5054C114.845 34.9211 115.281 34.4239 115.824 34.014C116.366 33.6041 117.016 33.3219 117.774 33.1674C118.571 33.0049 119.317 33.0296 120.014 33.2415C120.72 33.4376 121.339 33.7674 121.869 34.2309C122.399 34.6944 122.828 35.2667 123.158 35.948C123.497 36.6136 123.699 37.3345 123.762 38.1109L116.315 39.629ZM128.764 31.2126L130.43 30.8731L130.258 30.0304C130.128 29.3902 130.101 28.8582 130.178 28.4343C130.252 27.9973 130.399 27.6477 130.617 27.3854C130.833 27.11 131.098 26.9064 131.411 26.7745C131.735 26.6269 132.08 26.5158 132.446 26.4412C133.164 26.2947 133.696 26.2339 134.041 26.2588L134.397 28.0029C134.245 27.993 134.083 27.9988 133.91 28.0204C133.748 28.0262 133.556 28.0518 133.334 28.0971C133.034 28.1583 132.787 28.2834 132.594 28.4724C132.415 28.6587 132.367 28.9609 132.452 29.379L132.664 30.4176L134.565 30.0301L134.905 31.6959L133.004 32.0834L134.73 40.5493L132.496 41.0047L130.77 32.5388L129.104 32.8784L128.764 31.2126ZM146.908 38.0667L144.713 38.5141L144.425 37.1031L144.386 37.1111C144.216 37.6766 143.888 38.172 143.403 38.5974C142.929 39.0071 142.411 39.2692 141.849 39.3837C140.516 39.6554 139.483 39.5259 138.749 38.9951C138.025 38.4487 137.527 37.5092 137.256 36.1766L135.945 29.7488L138.179 29.2934L139.446 35.5056C139.627 36.394 139.925 36.9865 140.339 37.283C140.753 37.5796 141.267 37.6653 141.881 37.5401C142.352 37.4442 142.729 37.2925 143.013 37.0848C143.297 36.8772 143.514 36.6358 143.662 36.3607C143.807 36.0726 143.884 35.7506 143.893 35.395C143.916 35.0367 143.887 34.6615 143.807 34.2696L142.608 28.3905L144.842 27.9351L146.908 38.0667ZM146.179 27.6625L147.865 27.319L147.245 24.2815L149.479 23.826L150.099 26.8636L152.117 26.4521L152.457 28.1178L150.438 28.5293L151.541 33.9381C151.589 34.1732 151.637 34.3744 151.684 34.5416C151.745 34.7061 151.82 34.8405 151.909 34.9447C152.012 35.0463 152.141 35.1152 152.298 35.1512C152.453 35.1741 152.654 35.1603 152.902 35.1097C153.059 35.0778 153.216 35.0458 153.373 35.0138C153.527 34.9688 153.678 34.9107 153.827 34.8396L154.178 36.5641C153.936 36.6408 153.699 36.7162 153.469 36.7903C153.24 36.8644 153.001 36.9267 152.752 36.9773C152.164 37.0972 151.677 37.1421 151.29 37.1122C150.913 37.0665 150.599 36.9604 150.347 36.794C150.106 36.6119 149.913 36.3655 149.768 36.0548C149.636 35.7415 149.521 35.3772 149.423 34.9618L148.204 28.9847L146.519 29.3283L146.179 27.6625ZM164.687 34.4424L162.492 34.8898L162.204 33.4788L162.165 33.4868C161.994 34.0523 161.667 34.5477 161.182 34.9731C160.708 35.3828 160.189 35.6449 159.628 35.7594C158.295 36.0311 157.262 35.9015 156.528 35.3708C155.804 34.8244 155.306 33.8849 155.035 32.5523L153.724 26.1245L155.958 25.669L157.225 31.8813C157.406 32.7697 157.703 33.3621 158.118 33.6587C158.532 33.9553 159.046 34.041 159.66 33.9158C160.13 33.8199 160.508 33.6682 160.792 33.4605C161.076 33.2529 161.292 33.0115 161.44 32.7364C161.586 32.4482 161.663 32.1263 161.672 31.7707C161.694 31.4123 161.666 31.0372 161.586 30.6453L160.387 24.7662L162.621 24.3108L164.687 34.4424ZM164.977 23.8305L167.074 23.403L167.473 25.3627L167.513 25.3547C167.522 25.0671 167.592 24.7739 167.721 24.4754C167.864 24.1741 168.045 23.8923 168.263 23.63C168.492 23.352 168.757 23.1144 169.057 22.9172C169.357 22.7199 169.677 22.5867 170.016 22.5175C170.278 22.4642 170.455 22.4348 170.55 22.4292C170.657 22.4209 170.764 22.4127 170.871 22.4045L171.311 24.5601C171.148 24.566 170.981 24.5796 170.809 24.6012C170.646 24.607 170.487 24.6259 170.33 24.6579C169.951 24.7351 169.608 24.8868 169.3 25.1128C169.003 25.3231 168.761 25.6038 168.574 25.9549C168.384 26.2929 168.262 26.6921 168.206 27.1525C168.15 27.613 168.179 28.1241 168.294 28.6858L169.277 33.5067L167.043 33.9621L164.977 23.8305ZM179.33 25.2522C179.232 24.9048 179.084 24.5811 178.887 24.2811C178.703 23.9784 178.476 23.7322 178.206 23.5423C177.946 23.3367 177.645 23.194 177.302 23.1142C176.97 23.0187 176.614 23.0095 176.235 23.0868C175.843 23.1667 175.499 23.3117 175.201 23.522C174.914 23.7166 174.679 23.962 174.494 24.2581C174.32 24.5386 174.194 24.8568 174.117 25.2127C174.053 25.5659 174.053 25.9333 174.117 26.3148L179.33 25.2522ZM174.417 27.7846C174.497 28.1766 174.626 28.5448 174.805 28.8893C174.998 29.2311 175.233 29.5166 175.511 29.7457C175.789 29.9747 176.115 30.1396 176.489 30.2402C176.861 30.3277 177.282 30.3235 177.752 30.2277C178.405 30.0945 178.9 29.8508 179.236 29.4965C179.582 29.1265 179.796 28.6407 179.878 28.039L181.994 27.6075C181.988 28.1802 181.886 28.7114 181.686 29.2011C181.487 29.6908 181.215 30.1272 180.871 30.5103C180.525 30.8803 180.112 31.189 179.631 31.4366C179.167 31.6946 178.66 31.8795 178.112 31.9914C177.315 32.1538 176.583 32.167 175.915 32.0309C175.248 31.8948 174.651 31.6355 174.124 31.2531C173.61 30.868 173.175 30.3714 172.82 29.7635C172.478 29.1529 172.227 28.4556 172.067 27.6717C171.92 26.9532 171.893 26.2512 171.985 25.5657C172.087 24.8646 172.297 24.2297 172.617 23.6611C172.947 23.0767 173.383 22.5796 173.925 22.1696C174.468 21.7597 175.118 21.4775 175.876 21.323C176.673 21.1606 177.419 21.1853 178.116 21.3971C178.822 21.5932 179.441 21.923 179.971 22.3865C180.5 22.85 180.93 23.4224 181.26 24.1036C181.599 24.7692 181.801 25.4902 181.864 26.2665L174.417 27.7846ZM184.114 27.7265L186.838 27.1712L187.377 29.8168C187.529 30.6294 187.42 31.3594 187.048 32.0067C186.677 32.6539 186.115 33.1358 185.363 33.4524L185.119 32.257C185.529 32.0646 185.8 31.7576 185.932 31.3362C186.079 30.9251 186.104 30.5118 186.005 30.0964L184.653 30.3721L184.114 27.7265ZM20.9581 77.6831L23.0746 77.2517L23.3542 78.6234L23.3934 78.6155C23.5871 77.9636 23.9395 77.4563 24.4507 77.0936C24.9592 76.7178 25.5401 76.4633 26.1933 76.3301C26.9903 76.1677 27.712 76.1702 28.3585 76.3378C29.0154 76.4896 29.5904 76.7738 30.0836 77.1904C30.5741 77.5939 30.9839 78.1023 31.313 78.7156C31.6421 79.3288 31.8826 80.0078 32.0344 80.7525C32.1729 81.4319 32.2159 82.1103 32.1635 82.7877C32.1242 83.4625 31.9722 84.0854 31.7076 84.6565C31.4534 85.2118 31.0826 85.6956 30.5951 86.1079C30.105 86.5072 29.4876 86.7827 28.7429 86.9346C28.4163 87.0011 28.083 87.0351 27.7431 87.0363C27.4058 87.0506 27.0736 87.0231 26.7465 86.9537C26.4194 86.8843 26.1052 86.7783 25.804 86.6356C25.5131 86.4771 25.2548 86.2781 25.0291 86.0383L24.9899 86.0463L26.0206 91.1023L23.7865 91.5578L20.9581 77.6831ZM29.7924 81.1687C29.6991 80.7115 29.5498 80.2793 29.3443 79.8721C29.1389 79.4649 28.8853 79.122 28.5835 78.8433C28.2791 78.5516 27.9306 78.3437 27.5379 78.2196C27.1425 78.0825 26.7162 78.0606 26.2589 78.1538C25.3183 78.3455 24.6728 78.8173 24.3226 79.5691C23.9854 80.3182 23.9274 81.2349 24.1484 82.3193C24.2523 82.8288 24.4083 83.2937 24.6164 83.7139C24.835 84.1184 25.1003 84.4521 25.4125 84.7151C25.7246 84.978 26.0692 85.1663 26.4461 85.28C26.8362 85.391 27.2598 85.3999 27.7171 85.3067C28.2266 85.2028 28.6364 85.0104 28.9466 84.7294C29.2567 84.4485 29.4895 84.1221 29.645 83.7502C29.8109 83.3626 29.897 82.9504 29.9032 82.5137C29.9199 82.0613 29.8829 81.6129 29.7924 81.1687ZM32.1513 71.3803L34.3853 70.9249L34.8168 73.0413L32.5827 73.4968L32.1513 71.3803ZM32.9383 75.2409L35.1723 74.7855L37.2377 84.9171L35.0036 85.3725L32.9383 75.2409ZM41.3092 78.5352L36.8226 74.4491L39.527 73.8978L42.2786 76.5822L43.8579 73.0149L46.4447 72.4875L43.9504 77.8743L48.9412 82.5313L46.2564 83.0786L42.9262 79.8589L41.2004 84.1093L38.5744 84.6446L41.3092 78.5352ZM55.94 74.8995C55.842 74.5521 55.6943 74.2284 55.4971 73.9284C55.3129 73.6257 55.0858 73.3795 54.8158 73.1896C54.5562 72.984 54.2549 72.8413 53.9121 72.7615C53.5796 72.666 53.224 72.6568 52.8451 72.734C52.4532 72.8139 52.1085 72.959 51.8112 73.1693C51.5243 73.3639 51.2886 73.6093 51.104 73.9054C50.9298 74.1859 50.8042 74.504 50.7271 74.86C50.663 75.2132 50.663 75.5806 50.7272 75.9621L55.94 74.8995ZM51.0268 77.4319C51.1067 77.8238 51.2362 78.1921 51.4153 78.5366C51.6075 78.8784 51.8426 79.1639 52.1206 79.393C52.3986 79.622 52.7248 79.7869 53.0991 79.8875C53.4707 79.975 53.8917 79.9708 54.362 79.8749C55.0153 79.7418 55.5099 79.4981 55.8459 79.1438C56.1923 78.7738 56.4062 78.288 56.4877 77.6862L58.6042 77.2548C58.5984 77.8275 58.4958 78.3587 58.2963 78.8484C58.0967 79.3381 57.8251 79.7745 57.4814 80.1576C57.1349 80.5276 56.7216 80.8363 56.2414 81.0839C55.7769 81.3419 55.2703 81.5268 54.7216 81.6387C53.9246 81.8011 53.1925 81.8143 52.5252 81.6782C51.8579 81.5421 51.2608 81.2828 50.7337 80.9004C50.2198 80.5153 49.7852 80.0187 49.4299 79.4108C49.0877 78.8001 48.8367 78.1029 48.6769 77.319C48.5305 76.6005 48.503 75.8985 48.5946 75.213C48.6966 74.5119 48.9074 73.877 49.2269 73.3083C49.5568 72.724 49.993 72.2269 50.5354 71.8169C51.0777 71.407 51.7278 71.1248 52.4856 70.9703C53.2825 70.8079 54.0291 70.8325 54.7255 71.0444C55.4322 71.2405 56.0506 71.5703 56.5805 72.0338C57.1104 72.4973 57.5401 73.0697 57.8695 73.7509C58.2093 74.4165 58.4107 75.1374 58.4737 75.9138L51.0268 77.4319ZM58.2933 66.0511L60.5273 65.5957L63.3797 79.5879L61.1457 80.0433L58.2933 66.0511ZM68.4745 63.9756L70.7086 63.5202L71.7632 68.6938L71.8024 68.6858C71.9086 68.4056 72.0528 68.1449 72.2349 67.9036C72.4171 67.6624 72.6255 67.4498 72.8601 67.2659C73.1052 67.0663 73.3648 66.9045 73.6389 66.7806C73.9234 66.6409 74.2093 66.5418 74.4968 66.4832C75.2937 66.3208 76.0154 66.3233 76.6619 66.4909C77.3188 66.6427 77.8938 66.9269 78.387 67.3435C78.8775 67.747 79.2873 68.2554 79.6164 68.8687C79.9456 69.4819 80.186 70.1609 80.3378 70.9056C80.4763 71.585 80.5194 72.2634 80.467 72.9408C80.4276 73.6156 80.2756 74.2385 80.011 74.8096C79.7568 75.3649 79.386 75.8487 78.8986 76.261C78.4084 76.6603 77.791 76.9359 77.0463 77.0877C76.7067 77.1569 76.3551 77.2014 75.9917 77.221C75.6441 77.2511 75.3001 77.2327 74.9599 77.166C74.6198 77.0993 74.2977 76.988 73.9938 76.8322C73.703 76.6738 73.438 76.4421 73.1989 76.137L73.1597 76.145L73.4434 77.5364L71.3269 77.9678L68.4745 63.9756ZM78.0958 71.3218C78.0026 70.8646 77.8532 70.4324 77.6478 70.0252C77.4423 69.618 77.1887 69.2751 76.8869 68.9964C76.5825 68.7047 76.234 68.4968 75.8413 68.3727C75.4459 68.2356 75.0196 68.2137 74.5623 68.3069C73.6217 68.4986 72.9763 68.9704 72.626 69.7222C72.2889 70.4713 72.2308 71.388 72.4519 72.4724C72.5557 72.9819 72.7117 73.4468 72.9199 73.867C73.1384 74.2715 73.4037 74.6052 73.7159 74.8682C74.028 75.1311 74.3726 75.3194 74.7496 75.4331C75.1396 75.5441 75.5632 75.553 76.0205 75.4598C76.53 75.3559 76.9398 75.1635 77.25 74.8825C77.5601 74.6016 77.7929 74.2752 77.9485 73.9033C78.1144 73.5157 78.2004 73.1035 78.2067 72.6668C78.2233 72.2144 78.1863 71.766 78.0958 71.3218ZM80.0659 65.6337L82.5155 65.1343L86.7031 72.1594L86.7423 72.1514L87.7675 64.0637L90.0995 63.5883L88.3378 75.0716C88.2481 75.5662 88.1544 76.0411 88.0567 76.4965C87.9721 76.9492 87.8311 77.3589 87.6337 77.7257C87.4521 78.1029 87.1905 78.4216 86.8489 78.6818C86.5099 78.955 86.0465 79.1515 85.4586 79.2713C84.936 79.3779 84.412 79.4439 83.8865 79.4694L83.503 77.5881C83.6912 77.5769 83.8729 77.5671 84.0481 77.5586C84.2259 77.5631 84.4063 77.5468 84.5892 77.5095C84.8505 77.4562 85.0594 77.3796 85.2159 77.2797C85.3724 77.1797 85.4896 77.0538 85.5675 76.9018C85.6611 76.7603 85.7298 76.5966 85.7736 76.4108C85.8173 76.225 85.8492 76.0143 85.8693 75.7789L85.9643 74.9431L80.0659 65.6337ZM96.858 62.2105L98.9745 61.7791L99.2541 63.1509L99.2933 63.1429C99.487 62.491 99.8395 61.9838 100.351 61.621C100.859 61.2452 101.44 60.9907 102.093 60.8575C102.89 60.6951 103.612 60.6976 104.258 60.8652C104.915 61.0171 105.49 61.3013 105.983 61.7178C106.474 62.1213 106.884 62.6297 107.213 63.243C107.542 63.8563 107.783 64.5352 107.934 65.2799C108.073 65.9593 108.116 66.6377 108.063 67.3151C108.024 67.9899 107.872 68.6128 107.608 69.1839C107.353 69.7392 106.982 70.223 106.495 70.6353C106.005 71.0346 105.388 71.3102 104.643 71.462C104.316 71.5286 103.983 71.5625 103.643 71.5637C103.306 71.5781 102.974 71.5505 102.646 71.4811C102.319 71.4117 102.005 71.3057 101.704 71.163C101.413 71.0046 101.155 70.8055 100.929 70.5657L100.89 70.5737L101.92 75.6297L99.6864 76.0852L96.858 62.2105ZM105.692 65.6962C105.599 65.2389 105.45 64.8067 105.244 64.3995C105.039 63.9924 104.785 63.6494 104.483 63.3708C104.179 63.079 103.83 62.8711 103.438 62.7471C103.042 62.6099 102.616 62.588 102.159 62.6812C101.218 62.8729 100.573 63.3447 100.223 64.0965C99.8854 64.8456 99.8273 65.7623 100.048 66.8467C100.152 67.3562 100.308 67.8211 100.516 68.2413C100.735 68.6458 101 68.9795 101.312 69.2425C101.625 69.5054 101.969 69.6937 102.346 69.8074C102.736 69.9184 103.16 69.9273 103.617 69.8341C104.127 69.7302 104.536 69.5378 104.846 69.2569C105.157 68.9759 105.389 68.6495 105.545 68.2776C105.711 67.89 105.797 67.4778 105.803 67.0411C105.82 66.5887 105.783 66.1404 105.692 65.6962ZM108.051 55.9077L110.285 55.4523L110.717 57.5688L108.483 58.0242L108.051 55.9077ZM108.838 59.7683L111.072 59.3129L113.138 69.4445L110.904 69.8999L108.838 59.7683ZM117.209 63.0626L112.722 58.9765L115.427 58.4252L118.179 61.1096L119.758 57.5423L122.345 57.015L119.85 62.4017L124.841 67.0587L122.156 67.606L118.826 64.3863L117.1 68.6367L114.474 69.172L117.209 63.0626ZM131.84 59.4269C131.742 59.0795 131.594 58.7558 131.397 58.4558C131.213 58.1532 130.986 57.9069 130.716 57.717C130.456 57.5114 130.155 57.3687 129.812 57.2889C129.48 57.1934 129.124 57.1842 128.745 57.2615C128.353 57.3414 128.008 57.4865 127.711 57.6968C127.424 57.8913 127.188 58.1367 127.004 58.4329C126.83 58.7133 126.704 59.0315 126.627 59.3874C126.563 59.7406 126.563 60.108 126.627 60.4896L131.84 59.4269ZM126.927 61.9593C127.007 62.3513 127.136 62.7195 127.315 63.064C127.507 63.4058 127.742 63.6913 128.021 63.9204C128.299 64.1495 128.625 64.3143 128.999 64.4149C129.371 64.5024 129.792 64.4982 130.262 64.4024C130.915 64.2692 131.41 64.0255 131.746 63.6712C132.092 63.3013 132.306 62.8154 132.388 62.2137L134.504 61.7822C134.498 62.3549 134.396 62.8861 134.196 63.3758C133.997 63.8656 133.725 64.3019 133.381 64.685C133.035 65.055 132.622 65.3638 132.141 65.6113C131.677 65.8693 131.17 66.0542 130.621 66.1661C129.825 66.3286 129.092 66.3417 128.425 66.2056C127.758 66.0695 127.161 65.8102 126.634 65.4278C126.12 65.0427 125.685 64.5461 125.33 63.9382C124.988 63.3276 124.737 62.6303 124.577 61.8464C124.43 61.1279 124.403 60.4259 124.495 59.7404C124.597 59.0393 124.807 58.4044 125.127 57.8358C125.457 57.2514 125.893 56.7543 126.435 56.3443C126.978 55.9344 127.628 55.6522 128.385 55.4977C129.182 55.3353 129.929 55.36 130.625 55.5718C131.332 55.7679 131.95 56.0977 132.48 56.5612C133.01 57.0247 133.44 57.5971 133.769 58.2784C134.109 58.9439 134.311 59.6649 134.374 60.4413L126.927 61.9593ZM134.193 50.5785L136.427 50.1231L139.28 64.1153L137.046 64.5708L134.193 50.5785Z" fill="#141414" style="fill:#141414;fill:color(display-p3 0.0784 0.0784 0.0784);fill-opacity:1;"/>
<path d="M184.907 72.1042L190.668 68.7782L193.994 74.5391L188.234 77.8652L184.907 72.1042Z" fill="#141414" style="fill:#141414;fill:color(display-p3 0.0784 0.0784 0.0784);fill-opacity:1;"/>
<path d="M191.192 68.4758L196.953 65.1498L200.279 70.9107L194.518 74.2367L191.192 68.4758Z" fill="#141414" style="fill:#141414;fill:color(display-p3 0.0784 0.0784 0.0784);fill-opacity:1;"/>
<path d="M181.279 65.8196L187.04 62.4935L190.366 68.2544L184.605 71.5805L181.279 65.8196Z" fill="#141414" style="fill:#141414;fill:color(display-p3 0.0784 0.0784 0.0784);fill-opacity:1;"/>
<path d="M189.468 56.2041L196.096 55.6429L196.657 62.2713L190.029 62.8325L189.468 56.2041Z" fill="#141414" style="fill:#141414;fill:color(display-p3 0.0784 0.0784 0.0784);fill-opacity:1;"/>
</svg>
