<svg width="144" height="60" viewBox="0 0 144 60" fill="none" xmlns="http://www.w3.org/2000/svg">
<path fill-rule="evenodd" clip-rule="evenodd" d="M9.8686 0.476023C6.56534 0.213123 3.67439 2.67782 3.41149 5.98109L0.476017 42.8645C0.213117 46.1677 2.67782 49.0587 5.98109 49.3216L94.7005 56.3826C98.5543 56.6893 101.927 53.8138 102.234 49.96L102.869 41.9852C103.175 38.1314 106.548 35.2559 110.402 35.5626L134.326 37.4667C138.18 37.7734 141.553 34.898 141.859 31.0442L142.97 17.0883C143.233 13.785 140.768 10.8941 137.465 10.6312L9.8686 0.476023Z" fill="#CA539A" style="fill:#CA539A;fill:color(display-p3 0.7921 0.3238 0.6047);fill-opacity:1;"/>
<path d="M14.722 14.6179L12.2019 14.4173L12.9078 12.0017C13.0102 11.6567 13.1427 11.3355 13.3055 11.0382C13.4691 10.7302 13.6772 10.4685 13.9297 10.2532C14.1831 10.0273 14.4912 9.85386 14.8539 9.73292C15.2273 9.61283 15.6753 9.56289 16.198 9.58309L15.8699 10.6805C15.3953 10.7283 15.0473 10.8665 14.8258 11.095C14.6149 11.3243 14.4488 11.6642 14.3273 12.1146L15.4278 12.2022L14.722 14.6179ZM11.3566 14.35L8.83656 14.1494L9.54244 11.7338C9.64479 11.3889 9.77736 11.0677 9.94013 10.7703C10.1037 10.4624 10.3118 10.2007 10.5644 9.9854C10.8178 9.75945 11.1258 9.58602 11.4886 9.46508C11.8619 9.34499 12.31 9.29505 12.8327 9.31525L12.5046 10.4127C12.03 10.4605 11.6819 10.5987 11.4604 10.8271C11.2496 11.0565 11.0834 11.3964 10.9619 11.8468L12.0625 11.9344L11.3566 14.35ZM24.4027 22.9482L23.1835 21.3263C22.797 21.4775 22.3877 21.5786 21.9556 21.6298C21.5235 21.6811 21.0682 21.6876 20.5897 21.6495C18.9735 21.5209 17.7584 20.9908 16.9444 20.0593C16.141 19.1287 15.8041 17.8499 15.9335 16.223C16.0072 15.298 16.2205 14.4322 16.5736 13.6256C16.9267 12.8191 17.3941 12.1233 17.9757 11.5383C18.5687 10.9435 19.2628 10.4904 20.058 10.1792C20.8639 9.86883 21.7453 9.75172 22.7023 9.82789C23.4678 9.88882 24.1558 10.0506 24.7663 10.3132C25.3775 10.5651 25.8846 10.9158 26.2876 11.3652C26.6905 11.8146 26.9849 12.3516 27.1706 12.9763C27.3669 13.6019 27.4333 14.3134 27.3698 15.1109C27.2827 16.2061 27.0145 17.2226 26.5653 18.1606C26.1268 19.0995 25.514 19.8746 24.727 20.4861L25.8313 21.9383L24.4027 22.9482ZM22.4049 17.3961L23.3196 18.6085C23.7723 18.1631 24.1255 17.624 24.3792 16.9915C24.6435 16.3598 24.801 15.725 24.8518 15.087C24.8839 14.6829 24.8661 14.3017 24.7984 13.9432C24.7421 13.5749 24.6235 13.2498 24.4426 12.9679C24.2618 12.686 24.0182 12.4526 23.7119 12.2677C23.4056 12.0828 23.0185 11.9717 22.5506 11.9345C21.9127 11.8837 21.3426 11.9882 20.8404 12.2478C20.3497 12.4977 19.9315 12.8442 19.586 13.2876C19.2518 13.7211 18.9875 14.219 18.7929 14.7813C18.5992 15.333 18.4808 15.88 18.4376 16.4223C18.4063 16.8158 18.4245 17.1917 18.4923 17.5502C18.5707 17.9096 18.6999 18.2355 18.88 18.5281C19.0715 18.8108 19.3204 19.0446 19.6267 19.2295C19.9436 19.4152 20.3307 19.5263 20.7879 19.5627C21.1175 19.5889 21.4518 19.5567 21.7907 19.4659L20.9775 18.39L22.4049 17.3961ZM38.3318 18.0057C38.0966 18.8109 37.821 19.5166 37.5053 20.1228C37.2002 20.7298 36.818 21.2291 36.3588 21.6205C35.9005 22.0014 35.3541 22.2789 34.7196 22.4531C34.086 22.6167 33.3279 22.6634 32.4453 22.5931C31.8924 22.5491 31.3495 22.447 30.8165 22.2869C30.2942 22.1276 29.8305 21.9035 29.4255 21.6144C29.0319 21.3156 28.7192 20.943 28.4872 20.4965C28.2667 20.0402 28.1814 19.4984 28.2313 18.8711C28.2542 18.584 28.3032 18.3043 28.3784 18.0321C28.4544 17.7492 28.53 17.4717 28.6051 17.1994L30.517 10.7227L33.0211 10.922L31.1092 17.3987C31.0803 17.4927 31.0449 17.6023 31.0028 17.7273C30.9723 17.8426 30.9355 17.9681 30.8926 18.1038C30.8603 18.2403 30.8285 18.3715 30.7971 18.4974C30.7771 18.6136 30.7634 18.7195 30.7557 18.8152C30.7447 18.9534 30.7586 19.115 30.7974 19.3C30.8468 19.4858 30.9449 19.6648 31.0917 19.837C31.2394 19.9986 31.4472 20.1435 31.7152 20.2719C31.9832 20.4002 32.3352 20.4817 32.7711 20.5164C33.2815 20.557 33.7013 20.5262 34.0304 20.424C34.3604 20.3112 34.6304 20.1454 34.8404 19.9267C35.0619 19.6982 35.2398 19.4128 35.3741 19.0704C35.5189 18.7288 35.6562 18.3491 35.7857 17.9314L37.7422 11.2977L40.2463 11.497L38.3318 18.0057ZM45.6087 11.9238L48.1766 12.1282L49.1682 23.6672L46.6801 23.4692L46.5151 20.904L42.2565 20.5651L40.6192 22.9868L37.9876 22.7774L45.6087 11.9238ZM43.3939 18.7777L46.4403 19.0202L46.2426 14.4461L46.2107 14.4435L43.3939 18.7777ZM53.3533 12.5402L55.8733 12.7408L53.1887 21.8685L58.6913 22.3065L58.0772 24.3763L50.0705 23.7391L53.3533 12.5402ZM62.5278 13.2704L65.0478 13.4709L61.7331 24.6673L59.229 24.468L62.5278 13.2704ZM69.1691 15.9176L65.5964 15.6333L66.2105 13.5635L75.7165 14.32L75.1023 16.3898L71.6891 16.1182L69.0045 25.246L66.4844 25.0454L69.1691 15.9176ZM77.7987 21.4999L75.626 14.3128L78.1939 14.5172L79.5146 19.5017L83.4413 14.9348L86.392 15.1697L80.2779 21.8095L79.0579 26.0461L76.5379 25.8455L77.7987 21.4999ZM89.4978 22.0779C89.5714 21.1528 89.7848 20.287 90.1379 19.4805C90.491 18.6739 90.9583 17.9781 91.5399 17.3931C92.133 16.7983 92.8271 16.3453 93.6223 16.034C94.4281 15.7237 95.3095 15.6066 96.2665 15.6827C97.0321 15.7436 97.7201 15.9054 98.3305 16.168C98.9418 16.42 99.4489 16.7706 99.8518 17.22C100.255 17.6694 100.549 18.2064 100.735 18.8311C100.931 19.4567 100.998 20.1682 100.934 20.9657C100.86 21.9014 100.65 22.7836 100.306 23.6122C99.962 24.4408 99.4983 25.1583 98.915 25.7646C98.3424 26.3718 97.6527 26.8358 96.846 27.1569C96.0508 27.4681 95.1535 27.5839 94.154 27.5044C92.5377 27.3757 91.3226 26.8457 90.5086 25.9142C89.7053 24.9835 89.3683 23.7047 89.4978 22.0779ZM92.0019 22.2772C91.9706 22.6706 91.9888 23.0465 92.0566 23.4051C92.135 23.7644 92.2642 24.0904 92.4442 24.3829C92.6357 24.6656 92.8846 24.8995 93.1909 25.0843C93.5078 25.2701 93.8949 25.3811 94.3521 25.4175C94.9689 25.4666 95.5173 25.3658 95.9973 25.1151C96.4782 24.8538 96.8911 24.5067 97.2358 24.0741C97.5814 23.6308 97.8511 23.1332 98.0448 22.5815C98.2491 22.0307 98.3729 21.4841 98.416 20.9418C98.4482 20.5378 98.4304 20.1565 98.3626 19.798C98.3063 19.4297 98.1878 19.1046 98.0069 18.8227C97.826 18.5408 97.5824 18.3074 97.2761 18.1225C96.9698 17.9376 96.5828 17.8266 96.1149 17.7893C95.4769 17.7386 94.9068 17.843 94.4047 18.1026C93.914 18.3525 93.4958 18.6991 93.1502 19.1424C92.8161 19.5759 92.5518 20.0738 92.3572 20.6362C92.1635 21.1879 92.045 21.7349 92.0019 22.2772ZM106.221 28.208L103.398 27.9833L102.997 16.4912L105.501 16.6905L105.57 25.2991L105.602 25.3017L110.605 17.0967L113.204 17.3036L106.221 28.208ZM114.223 17.3847L122.916 18.0765L122.318 20.1476L116.129 19.6551L115.425 22.0547L121.151 22.5105L120.581 24.4233L114.855 23.9676L114.043 26.7118L120.327 27.2119L119.713 29.2817L110.941 28.5836L114.223 17.3847ZM125.887 23.4974L128.2 23.6814C128.54 23.7085 128.867 23.7024 129.18 23.6632C129.495 23.6133 129.774 23.5285 130.019 23.4089C130.275 23.2795 130.482 23.1087 130.638 22.8964C130.805 22.6743 130.902 22.4037 130.927 22.0848C130.952 21.7764 130.918 21.5276 130.826 21.3384C130.745 21.1394 130.624 20.9852 130.461 20.876C130.299 20.7668 130.107 20.6873 129.887 20.6376C129.666 20.588 129.433 20.5534 129.189 20.5339L126.812 20.3448L125.887 23.4974ZM124.862 18.2314L130.3 18.6643C130.812 18.6942 131.27 18.7789 131.677 18.9182C132.094 19.0478 132.442 19.2467 132.721 19.5149C133 19.7726 133.204 20.0991 133.333 20.4946C133.462 20.8901 133.504 21.3643 133.46 21.9172C133.43 22.3 133.337 22.6618 133.181 23.0025C133.026 23.3432 132.82 23.6425 132.564 23.9004C132.309 24.1476 132.015 24.3489 131.681 24.5042C131.348 24.6596 130.988 24.7486 130.601 24.7713L130.598 24.8032C131.054 24.9893 131.347 25.2748 131.477 25.6597C131.608 26.0339 131.655 26.4496 131.619 26.9068C131.598 27.162 131.558 27.4691 131.497 27.8281C131.448 28.1773 131.409 28.5273 131.381 28.8782C131.361 29.1334 131.352 29.3788 131.355 29.6144C131.358 29.8394 131.385 30.0395 131.436 30.2147L128.995 30.0205C128.974 29.8797 128.958 29.75 128.946 29.6314C128.935 29.5021 128.934 29.3736 128.945 29.2461C128.975 28.8633 129.027 28.4822 129.1 28.1028C129.174 27.7127 129.226 27.3263 129.256 26.9435C129.278 26.6671 129.253 26.4404 129.182 26.2635C129.122 26.0768 129.022 25.9244 128.881 25.8062C128.752 25.6889 128.587 25.6062 128.387 25.5582C128.189 25.4996 127.967 25.4606 127.723 25.4411L125.362 25.2532L124.067 29.6283L121.579 29.4302L124.862 18.2314ZM15.1371 42.274L13.9179 40.6521C13.5314 40.8033 13.1221 40.9044 12.69 40.9557C12.2579 41.0069 11.8026 41.0134 11.3241 40.9754C9.70789 40.8467 8.49278 40.3167 7.67879 39.3851C6.87542 38.4545 6.53848 37.1757 6.66796 35.5488C6.74158 34.6238 6.95495 33.758 7.30805 32.9514C7.66115 32.1449 8.12849 31.4491 8.71007 30.8641C9.30313 30.2693 9.99726 29.8162 10.7925 29.505C11.5983 29.1946 12.4797 29.0775 13.4367 29.1537C14.2022 29.2146 14.8902 29.3764 15.5007 29.639C16.1119 29.8909 16.6191 30.2416 17.022 30.691C17.425 31.1404 17.7193 31.6774 17.905 32.3021C18.1013 32.9277 18.1677 33.6392 18.1042 34.4367C18.0171 35.5319 17.7489 36.5485 17.2998 37.4865C16.8612 38.4253 16.2485 39.2004 15.4615 39.8119L16.5657 41.2641L15.1371 42.274ZM13.1393 36.722L14.054 37.9344C14.5068 37.4889 14.86 36.9499 15.1136 36.3173C15.3779 35.6856 15.5354 35.0508 15.5862 34.4128C15.6184 34.0088 15.6006 33.6275 15.5328 33.269C15.4765 32.9007 15.3579 32.5756 15.177 32.2937C14.9962 32.0118 14.7526 31.7784 14.4463 31.5935C14.14 31.4086 13.7529 31.2975 13.2851 31.2603C12.6471 31.2095 12.077 31.314 11.5748 31.5736C11.0841 31.8235 10.666 32.1701 10.3204 32.6134C9.98625 33.0469 9.72191 33.5448 9.52735 34.1072C9.33364 34.6589 9.2152 35.2059 9.17204 35.7481C9.14073 36.1416 9.15896 36.5175 9.22673 36.876C9.30513 37.2354 9.43435 37.5613 9.61437 37.8539C9.80588 38.1366 10.0548 38.3704 10.3611 38.5553C10.678 38.7411 11.0651 38.8521 11.5223 38.8885C11.8519 38.9147 12.1862 38.8825 12.5251 38.7918L11.7119 37.7159L13.1393 36.722ZM29.0663 37.3315C28.831 38.1367 28.5554 38.8424 28.2397 39.4486C27.9346 40.0556 27.5524 40.5549 27.0932 40.9463C26.6349 41.3272 26.0885 41.6047 25.454 41.7789C24.8204 41.9425 24.0623 41.9892 23.1797 41.9189C22.6268 41.8749 22.0839 41.7729 21.5509 41.6127C21.0286 41.4535 20.5649 41.2293 20.1599 40.9403C19.7663 40.6414 19.4536 40.2688 19.2216 39.8223C19.0011 39.366 18.9158 38.8242 18.9658 38.1969C18.9886 37.9098 19.0376 37.6301 19.1128 37.3579C19.1888 37.075 19.2644 36.7975 19.3396 36.5253L21.2514 30.0485L23.7555 30.2478L21.8436 36.7245C21.8148 36.8186 21.7793 36.9281 21.7372 37.0531C21.7067 37.1684 21.6699 37.2939 21.627 37.4296C21.5948 37.5661 21.5629 37.6973 21.5315 37.8232C21.5116 37.9394 21.4978 38.0453 21.4902 38.141C21.4792 38.2792 21.493 38.4408 21.5318 38.6258C21.5812 38.8116 21.6793 38.9907 21.8261 39.1628C21.9738 39.3244 22.1816 39.4693 22.4496 39.5977C22.7176 39.726 23.0696 39.8075 23.5055 39.8422C24.0159 39.8828 24.4357 39.8521 24.7648 39.7498C25.0948 39.637 25.3648 39.4712 25.5748 39.2525C25.7963 39.0241 25.9742 38.7386 26.1085 38.3962C26.2534 38.0546 26.3906 37.675 26.5201 37.2572L28.4766 30.6236L30.9807 30.8229L29.0663 37.3315ZM36.3431 31.2496L38.911 31.454L39.9026 42.9931L37.4145 42.795L37.2495 40.2299L32.9909 39.8909L31.3537 42.3127L28.722 42.1032L36.3431 31.2496ZM34.1283 38.1035L37.1747 38.346L36.977 33.7719L36.9451 33.7693L34.1283 38.1035ZM44.1037 31.8673L46.6875 32.0729L49.1369 40.4216L49.1688 40.4241L51.4405 32.4512L53.7372 32.634L50.4225 43.8303L47.9184 43.631L45.4282 35.3915L45.3964 35.3889L43.1335 43.2502L40.8049 43.0649L44.1037 31.8673ZM57.8475 35.0798L54.2748 34.7955L54.8889 32.7257L64.3949 33.4822L63.7807 35.552L60.3675 35.2804L57.6829 44.4082L55.1629 44.2076L57.8475 35.0798ZM65.6761 33.5842L68.1961 33.7848L64.8814 44.9811L62.3773 44.7818L65.6761 33.5842ZM72.3174 36.2314L68.7447 35.9471L69.3588 33.8773L78.8648 34.6338L78.2506 36.7036L74.8374 36.432L72.1528 45.5598L69.6327 45.3592L72.3174 36.2314ZM80.9469 41.8137L78.7743 34.6266L81.3422 34.831L82.6629 39.8155L86.5896 35.2487L89.5402 35.4835L83.4262 42.1233L82.2062 46.3599L79.6862 46.1593L80.9469 41.8137ZM90.2171 35.5374L92.7371 35.7379L92.0313 38.1535C91.9281 38.5091 91.7947 38.8409 91.631 39.1489C91.4683 39.4463 91.2602 39.7079 91.0068 39.9339C90.7542 40.1492 90.4413 40.3169 90.0679 40.437C89.706 40.5473 89.2637 40.5923 88.741 40.5721L89.0691 39.4747C89.5437 39.4269 89.8865 39.2883 90.0973 39.059C90.3188 38.8305 90.4903 38.491 90.6118 38.0406L89.5112 37.953L90.2171 35.5374ZM93.5825 35.8052L96.1025 36.0058L95.3966 38.4214C95.2934 38.777 95.16 39.1088 94.9964 39.4168C94.8336 39.7141 94.6255 39.9758 94.3721 40.2017C94.1196 40.417 93.8066 40.5847 93.4333 40.7048C93.0714 40.8151 92.6291 40.8602 92.1064 40.84L92.4345 39.7425C92.9091 39.6947 93.2518 39.5561 93.4627 39.3268C93.6842 39.0983 93.8557 38.7589 93.9771 38.3084L92.8766 38.2208L93.5825 35.8052Z" fill="#EDEDED" style="fill:#EDEDED;fill:color(display-p3 0.9305 0.9305 0.9305);fill-opacity:1;"/>
</svg>
