<svg width="137" height="138" viewBox="0 0 137 138" fill="none" xmlns="http://www.w3.org/2000/svg">
<circle cx="71" cy="72" r="66" fill="#C0E277" style="fill:#C0E277;fill:color(display-p3 0.7517 0.8850 0.4683);fill-opacity:1;"/>
<path fill-rule="evenodd" clip-rule="evenodd" d="M42.4882 54.7501C46.9305 47.0557 54.2476 41.4411 62.8296 39.1416C71.4116 36.842 80.5556 38.0459 88.25 42.4882C95.9444 46.9306 101.559 54.2476 103.859 62.8297C104.997 67.079 105.288 71.5111 104.713 75.8727C104.139 80.2344 102.712 84.4402 100.512 88.2501C98.3122 92.06 95.3837 95.3993 91.8935 98.0774C88.4033 100.756 84.4198 102.72 80.1705 103.859C75.9211 104.997 71.489 105.288 67.1274 104.713C62.7657 104.139 58.5599 102.712 54.75 100.512C50.9401 98.3123 47.6008 95.3838 44.9227 91.8936C42.2446 88.4034 40.2801 84.4199 39.1415 80.1705C36.842 71.5885 38.0458 62.4445 42.4882 54.7501ZM64.5637 45.6133C57.6981 47.4529 51.8444 51.9446 48.2905 58.1001C44.7366 64.2556 43.7736 71.5708 45.6132 78.4364C46.5241 81.8359 48.0957 85.0227 50.2382 87.8149C52.3806 90.607 55.0521 92.9499 58.1 94.7096C61.1479 96.4693 64.5126 97.6114 68.0019 98.0708C71.4912 98.5302 75.0369 98.2978 78.4364 97.3869C81.8359 96.476 85.0227 94.9044 87.8148 92.762C90.607 90.6195 92.9498 87.948 94.7095 84.9001C96.4692 81.8522 97.6114 78.4875 98.0707 74.9982C98.5301 71.5089 98.2977 67.9632 97.3868 64.5637C95.5472 57.6981 91.0556 51.8445 84.9 48.2906C78.7445 44.7367 71.4293 43.7736 64.5637 45.6133Z" fill="#141414" style="fill:#141414;fill:color(display-p3 0.0784 0.0784 0.0784);fill-opacity:1;"/>
<path fill-rule="evenodd" clip-rule="evenodd" d="M38.0981 70.6488C37.5776 68.7063 38.6298 66.7366 40.4484 66.2493L95.7662 51.427C97.5847 50.9397 99.4808 52.1194 100.001 54.0619C100.522 56.0044 99.4696 57.9741 97.651 58.4614L42.3332 73.2838C40.5147 73.771 38.6186 72.5913 38.0981 70.6488Z" fill="#141414" style="fill:#141414;fill:color(display-p3 0.0784 0.0784 0.0784);fill-opacity:1;"/>
<path fill-rule="evenodd" clip-rule="evenodd" d="M43.1872 89.6419C42.7708 88.0879 43.9074 86.4331 45.726 85.9458L101.044 71.1235C102.862 70.6362 104.674 71.501 105.09 73.055C105.507 74.609 104.37 76.2638 102.552 76.7511L47.2339 91.5734C45.4153 92.0607 43.6036 91.1959 43.1872 89.6419Z" fill="#141414" style="fill:#141414;fill:color(display-p3 0.0784 0.0784 0.0784);fill-opacity:1;"/>
<path fill-rule="evenodd" clip-rule="evenodd" d="M62.7768 39.6821C64.6142 40.2038 65.6318 42.0705 65.0496 43.8514C61.8925 53.5092 61.5955 63.7672 64.1922 73.4583C66.7889 83.1494 72.1751 91.8845 79.7381 98.6698C81.1328 99.9211 81.1849 102.046 79.8545 103.417C78.5241 104.787 76.315 104.884 74.9203 103.633C66.412 95.9994 60.3524 86.1724 57.4311 75.2699C54.5098 64.3674 54.844 52.8272 58.3957 41.9622C58.9779 40.1813 60.9394 39.1604 62.7768 39.6821Z" fill="#141414" style="fill:#141414;fill:color(display-p3 0.0784 0.0784 0.0784);fill-opacity:1;"/>
<path fill-rule="evenodd" clip-rule="evenodd" d="M63.0009 39.622C64.1874 38.2901 66.2069 38.2442 67.5117 39.5196C75.4719 47.3 81.2408 57.2048 84.1621 68.1073C87.0834 79.0098 87.0398 90.4721 84.0363 101.19C83.544 102.947 81.7721 103.917 80.0786 103.357C78.3852 102.797 77.4115 100.918 77.9039 99.1613C80.5737 89.6341 80.6124 79.4453 78.0157 69.7542C75.419 60.0632 70.291 51.2588 63.2153 44.3429C61.9105 43.0676 61.8145 40.954 63.0009 39.622Z" fill="#141414" style="fill:#141414;fill:color(display-p3 0.0784 0.0784 0.0784);fill-opacity:1;"/>
<path d="M31.7471 103.826L31.7748 103.858L36.0276 103.557L34.3336 101.616L31.7471 103.826ZM35.579 100.552L38.304 103.674L36.9203 104.857L29.7789 105.361L28.6097 104.021L33.0908 100.192L32.2347 99.2116L33.48 98.1475L34.3362 99.1284L36.0605 97.6552L37.3033 99.0791L35.579 100.552Z" fill="black" style="fill:black;fill-opacity:1;"/>
<path d="M28.1723 94.4911C28.4216 94.3636 28.7206 94.2002 29.0693 94.0008C29.4097 93.8058 29.7246 93.5818 30.014 93.3289C30.2908 93.0721 30.4962 92.7888 30.63 92.4793C30.7639 92.1697 30.7384 91.8368 30.5536 91.4805C30.3646 91.1159 30.1043 90.8979 29.7728 90.8263C29.437 90.7464 29.0856 90.748 28.7186 90.8309C28.339 90.9097 27.9703 91.0301 27.6127 91.1921C27.2468 91.3582 26.9392 91.5051 26.69 91.6326C26.5404 91.7091 26.3639 91.8046 26.1604 91.9191C25.9444 92.0296 25.7328 92.1588 25.5256 92.3067C25.3141 92.4463 25.1154 92.6004 24.9295 92.7689C24.7309 92.9334 24.5723 93.1141 24.4536 93.311C24.335 93.508 24.2646 93.717 24.2425 93.9379C24.2204 94.1589 24.2717 94.3895 24.3963 94.6298C24.5209 94.8701 24.6802 95.0454 24.8741 95.1559C25.0638 95.2581 25.2738 95.3184 25.5042 95.3369C25.7302 95.347 25.9705 95.3237 26.2249 95.267C26.471 95.2145 26.7127 95.1433 26.9499 95.0534C27.1872 94.9635 27.416 94.8674 27.6363 94.7652C27.8441 94.659 28.0227 94.5676 28.1723 94.4911ZM29.0875 96.2559C28.2399 96.6894 27.4865 96.9699 26.8272 97.0975C26.1553 97.221 25.5697 97.227 25.0703 97.1155C24.5709 97.004 24.1476 96.796 23.8004 96.4913C23.4489 96.1784 23.1614 95.8065 22.938 95.3757C22.7103 94.9365 22.5724 94.4882 22.5243 94.0305C22.4719 93.5646 22.545 93.0974 22.7436 92.6289C22.938 92.1521 23.283 91.6821 23.7787 91.2189C24.2619 90.7516 24.9272 90.3013 25.7748 89.8678C26.6473 89.4215 27.4236 89.1345 28.1038 89.0067C28.7714 88.8749 29.3571 88.8689 29.8607 88.9887C30.3601 89.1002 30.7856 89.3124 31.1371 89.6253C31.4843 89.93 31.7718 90.3018 31.9995 90.741C32.2229 91.1718 32.3608 91.6202 32.4132 92.0861C32.4613 92.5438 32.386 93.0068 32.1874 93.4753C31.9888 93.9438 31.6437 94.4138 31.1523 94.8853C30.6483 95.3528 29.96 95.8096 29.0875 96.2559Z" fill="black" style="fill:black;fill-opacity:1;"/>
<path d="M19.1382 86.1266L18.6782 83.9773L22.7293 83.1045L17.8607 80.1578L17.2865 77.4746L21.9634 80.4626L26.9791 74.9997L27.5564 77.6966L23.7931 81.5864L25.3022 82.5502L28.45 81.872L28.91 84.0214L19.1382 86.1266Z" fill="black" style="fill:black;fill-opacity:1;"/>
<path d="M23.063 67.0834L23.2459 64.3034L24.7415 64.3896L24.5585 67.1696L27.3399 67.3299L27.2415 68.8247L24.4601 68.6644L24.2772 71.4444L22.7816 71.3582L22.9646 68.5782L20.1832 68.4179L20.2816 66.9231L23.063 67.0834Z" fill="black" style="fill:black;fill-opacity:1;"/>
<path d="M28.6947 49.4177L29.928 47.1402L26.0793 46.5451L26.066 46.5698L28.6947 49.4177ZM23.3637 46.386L24.437 44.4039L35.0701 45.758L33.9835 47.7647L31.652 47.3959L29.8722 50.683L31.4704 52.4059L30.4171 54.3511L23.3637 46.386Z" fill="black" style="fill:black;fill-opacity:1;"/>
<path d="M37.1622 33.8837C36.9544 33.7356 36.7306 33.637 36.4909 33.5877C36.2445 33.5321 35.9954 33.519 35.7435 33.5487C35.4916 33.5784 35.247 33.6539 35.0096 33.7752C34.7721 33.8834 34.5583 34.034 34.3684 34.2268C34.0214 34.5793 33.7973 34.9465 33.6963 35.3284C33.5885 35.7038 33.577 36.0813 33.6619 36.4606C33.74 36.8336 33.891 37.1989 34.115 37.5567C34.3455 37.9079 34.6189 38.2355 34.935 38.5396C35.2378 38.8307 35.5665 39.0821 35.9213 39.2938C36.2759 39.4924 36.6428 39.6252 37.0222 39.6922C37.4015 39.7592 37.783 39.7376 38.1666 39.6274C38.5434 39.5107 38.9054 39.2762 39.2524 38.9237C39.724 38.4449 39.9427 37.9301 39.9086 37.3795C39.8811 36.8221 39.6547 36.2807 39.2292 35.755L40.7223 34.2387C41.1338 34.7121 41.4393 35.2066 41.6388 35.7222C41.8384 36.2378 41.9317 36.7549 41.9189 37.2734C41.906 37.7919 41.7868 38.2987 41.5611 38.7938C41.3355 39.289 41.0066 39.756 40.5744 40.1949C40.0374 40.7403 39.4586 41.1418 38.838 41.3996C38.2172 41.6442 37.5913 41.7544 36.9603 41.7302C36.3292 41.706 35.7097 41.557 35.1019 41.2831C34.4872 41.0028 33.9175 40.6103 33.3928 40.1057C32.8546 39.5882 32.4354 39.0296 32.1351 38.4301C31.8281 37.8241 31.6504 37.2065 31.602 36.5773C31.5536 35.9481 31.6447 35.3235 31.8753 34.7036C32.1124 34.0771 32.4994 33.4912 33.0364 32.9459C33.4228 32.5535 33.8434 32.2394 34.2983 32.0036C34.7598 31.7611 35.2357 31.6103 35.7262 31.5511C36.2166 31.4788 36.7116 31.5082 37.2113 31.6391C37.711 31.7701 38.1924 32.0129 38.6553 32.3674L37.1622 33.8837Z" fill="black" style="fill:black;fill-opacity:1;"/>
<path d="M44.7478 26.5096L42.1515 28.0047L41.2184 26.4096L48.3158 22.3226L49.2488 23.9177L46.6525 25.4128L50.7664 32.446L48.8616 33.5429L44.7478 26.5096Z" fill="black" style="fill:black;fill-opacity:1;"/>
<path d="M54.1721 20.1275L56.2675 19.4639L59.2973 28.9896L57.2019 29.6533L54.1721 20.1275Z" fill="black" style="fill:black;fill-opacity:1;"/>
<path d="M69.5085 27.2168L67.0407 27.4422L62.9565 17.7777L65.2011 17.5727L68.0251 24.372L68.053 24.3694L69.6905 17.1627L71.9491 16.9565L69.5085 27.2168Z" fill="black" style="fill:black;fill-opacity:1;"/>
<path d="M77.9311 17.3901L85.2992 18.6556L84.9676 20.4736L79.7657 19.5802L79.3814 21.6874L84.1555 22.5074L83.849 24.1877L79.0749 23.3677L78.6352 25.7779L83.9474 26.6903L83.6158 28.5083L76.1373 27.2239L77.9311 17.3901Z" fill="black" style="fill:black;fill-opacity:1;"/>
<path d="M103.618 34.8266C102.823 35.9218 101.922 36.5195 100.915 36.6197C99.9133 36.7123 98.8674 36.3737 97.7771 35.6039C96.6716 34.8234 96.0057 33.9534 95.7796 32.9941C95.5611 32.0401 95.8521 31.0118 96.6527 29.9091L100.305 24.879L102.1 26.1467L98.4483 31.1768C98.2893 31.3959 98.152 31.6246 98.0366 31.863C97.9212 32.1014 97.8642 32.3467 97.8656 32.599C97.8724 32.8437 97.9442 33.0943 98.0809 33.3508C98.2307 33.6051 98.4886 33.8614 98.8546 34.1198C99.495 34.572 100.039 34.7445 100.486 34.6373C100.938 34.5226 101.383 34.1631 101.822 33.5589L105.474 28.5288L107.27 29.7965L103.618 34.8266Z" fill="black" style="fill:black;fill-opacity:1;"/>
<path d="M108.072 40.1576C107.807 40.3642 107.621 40.5867 107.512 40.8252C107.404 41.0636 107.352 41.3054 107.356 41.5506C107.373 41.7974 107.437 42.0496 107.547 42.3074C107.664 42.5593 107.812 42.7985 107.992 43.025C108.114 43.1783 108.256 43.3341 108.418 43.4921C108.587 43.6445 108.769 43.7686 108.964 43.8646C109.16 43.9606 109.361 44.0109 109.568 44.0156C109.781 44.0145 109.988 43.9365 110.186 43.7816C110.4 43.6151 110.518 43.4109 110.54 43.1688C110.568 42.934 110.539 42.6726 110.453 42.3846C110.367 42.0967 110.246 41.7881 110.092 41.4589C109.937 41.1297 109.787 40.7911 109.641 40.4431C109.482 40.0936 109.344 39.7399 109.226 39.382C109.116 39.0183 109.058 38.661 109.053 38.3098C109.048 37.9587 109.116 37.6162 109.255 37.2823C109.408 36.95 109.665 36.6432 110.026 36.3619C110.431 36.0463 110.847 35.8576 111.275 35.796C111.716 35.736 112.147 35.7673 112.566 35.8899C112.986 36.0124 113.383 36.2117 113.757 36.4877C114.132 36.7636 114.459 37.0769 114.738 37.4275C115.063 37.8365 115.326 38.2645 115.527 38.7116C115.741 39.1603 115.861 39.6111 115.887 40.0639C115.914 40.5168 115.832 40.9535 115.641 41.374C115.464 41.7961 115.148 42.185 114.691 42.5409L113.367 40.8756C113.59 40.6774 113.745 40.4741 113.83 40.266C113.92 40.0651 113.955 39.8608 113.932 39.6532C113.91 39.4456 113.845 39.2361 113.737 39.0248C113.634 38.8208 113.498 38.6129 113.33 38.4011C113.219 38.2623 113.094 38.1351 112.954 38.0192C112.815 37.9034 112.661 37.8158 112.495 37.7563C112.334 37.7042 112.169 37.6846 112.001 37.6977C111.832 37.7107 111.664 37.7832 111.494 37.9153C111.34 38.0358 111.238 38.1626 111.189 38.2956C111.139 38.4287 111.141 38.6107 111.194 38.8418C111.252 39.0803 111.36 39.3808 111.518 39.7434C111.681 40.1132 111.894 40.5916 112.159 41.1786C112.245 41.3476 112.35 41.5915 112.472 41.9103C112.608 42.2306 112.693 42.5846 112.727 42.9722C112.761 43.3598 112.707 43.7569 112.565 44.1633C112.437 44.5713 112.152 44.9475 111.71 45.2918C111.349 45.5731 110.959 45.7648 110.54 45.8671C110.12 45.9694 109.686 45.9707 109.237 45.8711C108.801 45.7731 108.358 45.5683 107.908 45.2569C107.463 44.9527 107.028 44.5341 106.604 44.0009C106.261 43.57 105.982 43.107 105.767 42.6119C105.551 42.1298 105.432 41.6428 105.41 41.1509C105.394 40.6662 105.49 40.1948 105.698 39.7367C105.906 39.2786 106.256 38.8638 106.747 38.4923L108.072 40.1576Z" fill="black" style="fill:black;fill-opacity:1;"/>
<path d="M120.672 47.0248L123.554 53.9228L121.846 54.6293L119.811 49.7593L117.832 50.5782L119.7 55.0477L118.121 55.7006L116.254 51.2311L113.99 52.1677L116.068 57.141L114.36 57.8475L111.435 50.8461L120.672 47.0248Z" fill="black" style="fill:black;fill-opacity:1;"/>
<path d="M121.081 63.6988L121.344 66.0923C121.4 66.5933 121.552 66.9563 121.802 67.1813C122.053 67.4064 122.428 67.4903 122.929 67.4331C123.411 67.3781 123.745 67.2131 123.931 66.9382C124.125 66.6623 124.195 66.2739 124.14 65.7729L123.876 63.3794L121.081 63.6988ZM125.333 61.0008L125.923 66.3584C125.972 66.8037 125.942 67.2111 125.832 67.5805C125.733 67.9582 125.572 68.2866 125.349 68.5657C125.128 68.8541 124.857 69.0823 124.537 69.2503C124.228 69.4265 123.884 69.5363 123.503 69.5798C122.919 69.6465 122.4 69.579 121.946 69.3772C121.493 69.1848 121.124 68.8229 120.84 68.2917L120.812 68.2949C120.768 68.5724 120.677 68.8083 120.538 69.0026C120.409 69.1958 120.244 69.3602 120.043 69.4959C119.852 69.6306 119.633 69.7354 119.388 69.8104C119.144 69.8946 118.897 69.9603 118.649 70.0075C118.492 70.0348 118.308 70.0652 118.096 70.0989C117.883 70.1325 117.667 70.1713 117.447 70.2153C117.227 70.2686 117.018 70.33 116.819 70.3997C116.63 70.4776 116.472 70.5755 116.344 70.6935L116.104 68.5087C116.406 68.3521 116.773 68.235 117.206 68.1574C117.638 68.0797 118.051 67.9903 118.444 67.8891C118.955 67.7556 119.318 67.5544 119.532 67.2857C119.747 67.0169 119.824 66.6089 119.763 66.0615L119.523 63.8768L115.642 64.3201L115.401 62.1353L125.333 61.0008Z" fill="black" style="fill:black;fill-opacity:1;"/>
<path d="M118.977 76.9616C118.646 76.9063 118.355 76.9192 118.103 77.0002C117.852 77.0813 117.636 77.206 117.454 77.3744C117.28 77.5535 117.133 77.7702 117.012 78.0244C116.9 78.2801 116.819 78.5505 116.768 78.8353C116.734 79.0283 116.711 79.2374 116.7 79.4626C116.697 79.6893 116.725 79.9068 116.783 80.1151C116.841 80.3235 116.936 80.5051 117.07 80.6598C117.213 80.8162 117.409 80.9151 117.657 80.9565C117.924 81.0011 118.156 80.9499 118.353 80.803C118.548 80.6652 118.725 80.4677 118.884 80.2105C119.044 79.9532 119.196 79.6569 119.341 79.3215C119.485 78.9861 119.64 78.6477 119.805 78.3062C119.962 77.954 120.137 77.614 120.327 77.2863C120.527 76.9601 120.758 76.6769 121.019 76.4365C121.279 76.1962 121.582 76.0148 121.925 75.8925C122.277 75.7808 122.678 75.7627 123.129 75.838C123.636 75.9225 124.054 76.1011 124.385 76.374C124.723 76.6575 124.986 76.9947 125.172 77.3854C125.359 77.7761 125.473 78.2019 125.514 78.663C125.556 79.1241 125.537 79.5752 125.459 80.0163C125.368 80.5309 125.221 81.0126 125.018 81.4613C124.823 81.9207 124.563 82.3127 124.24 82.6373C123.917 82.9619 123.535 83.196 123.092 83.3398C122.657 83.4943 122.154 83.5239 121.583 83.4286L121.955 81.3333C122.253 81.3641 122.508 81.3405 122.721 81.2625C122.933 81.1937 123.109 81.0812 123.25 80.925C123.392 80.7689 123.506 80.5797 123.593 80.3577C123.678 80.1448 123.744 79.9051 123.791 79.6386C123.822 79.464 123.835 79.2863 123.829 79.1056C123.823 78.9248 123.787 78.7533 123.722 78.5909C123.654 78.4376 123.559 78.3036 123.437 78.1886C123.316 78.0737 123.149 77.9985 122.937 77.9632C122.744 77.9309 122.581 77.9416 122.448 77.9951C122.315 78.0486 122.18 78.1726 122.041 78.3671C121.9 78.5708 121.746 78.8525 121.578 79.2124C121.408 79.5815 121.191 80.0608 120.925 80.6504C120.855 80.828 120.741 81.0692 120.583 81.374C120.432 81.6894 120.222 81.9903 119.954 82.2766C119.685 82.5629 119.351 82.791 118.951 82.9608C118.559 83.1413 118.086 83.1855 117.534 83.0933C117.083 83.018 116.679 82.8608 116.324 82.6216C115.968 82.3825 115.679 82.0645 115.455 81.6677C115.239 81.2815 115.099 80.8181 115.034 80.2774C114.967 79.7458 114.993 79.1446 115.112 78.4737C115.208 77.9315 115.371 77.4147 115.6 76.9231C115.819 76.4392 116.106 76.0234 116.462 75.6759C116.815 75.3376 117.234 75.0904 117.716 74.9344C118.199 74.7784 118.743 74.7558 119.349 74.8664L118.977 76.9616Z" fill="black" style="fill:black;fill-opacity:1;"/>
<path fill-rule="evenodd" clip-rule="evenodd" d="M105.271 105.164L108.493 109.032C99.0315 118.874 85.7311 125 71 125C65.9242 125 61.0182 124.273 56.3807 122.917L58.4164 118.296C62.4214 119.407 66.6414 120 71 120C84.5146 120 96.697 114.296 105.271 105.164Z" fill="black" style="fill:black;fill-opacity:1;"/>
<path d="M39.187 109.083L40.4648 109.926C44.2212 112.403 49.2304 111.726 52.1935 108.339L53.2014 107.187L52.3586 108.465C49.881 112.221 50.5586 117.23 53.9453 120.194L55.0974 121.201L53.8195 120.359C50.0631 117.881 45.0539 118.559 42.0908 121.945L41.0829 123.097L41.9257 121.82C44.4033 118.063 43.7257 113.054 40.339 110.091L39.187 109.083Z" fill="#141414" style="fill:#141414;fill:color(display-p3 0.0784 0.0784 0.0784);fill-opacity:1;"/>
<path d="M104.545 91.3221L105.873 92.0825C109.779 94.318 114.735 93.3253 117.478 89.7583L118.412 88.5449L117.651 89.8734C115.416 93.7788 116.408 98.7351 119.975 101.478L121.189 102.412L119.86 101.651C115.955 99.4158 110.998 100.408 108.255 103.975L107.322 105.189L108.082 103.86C110.318 99.9549 109.325 94.9986 105.758 92.2552L104.545 91.3221Z" fill="#141414" style="fill:#141414;fill:color(display-p3 0.0784 0.0784 0.0784);fill-opacity:1;"/>
</svg>
