<svg width="152" height="90" viewBox="0 0 152 90" fill="none" xmlns="http://www.w3.org/2000/svg">
<path fill-rule="evenodd" clip-rule="evenodd" d="M16.6312 1.96249C15.8785 2.50476 15.3744 3.32216 15.2299 4.23474L14.9544 5.97428C14.6611 7.82645 13.5482 9.44937 11.9203 10.3985C9.17845 11.9973 8.0664 15.3722 9.3241 18.2776L10.3303 20.602C11.2962 22.8333 10.4422 25.4252 8.33638 26.6531C6.23059 27.881 5.37654 30.4728 6.34247 32.7042L7.85904 36.2077C8.82498 38.4391 7.97092 41.0309 5.86513 42.2588C3.75933 43.4867 2.90528 46.0786 3.87122 48.3099L6.26626 53.8427C6.72999 54.914 6.31997 56.1583 5.309 56.7478C3.42453 57.8467 3.97079 60.6871 6.13241 61.0294L10.379 61.7019C10.5679 62.4235 10.8541 63.1221 11.2339 63.7778L13.1067 67.011C14.8334 69.9918 18.8896 70.6341 21.4527 68.3326C24.0159 66.0311 28.0721 66.6734 29.7987 69.6542C31.5254 72.6351 35.5816 73.2774 38.1447 70.9759C40.7079 68.6744 44.7641 69.3167 46.4908 72.2975C48.2174 75.2783 52.2736 75.9207 54.8368 73.6192C57.3999 71.3177 61.4561 71.96 63.1828 74.9408C64.9094 77.9216 68.9656 78.5639 71.5288 76.2624C74.0919 73.9609 78.1481 74.6033 79.8748 77.5841C81.6015 80.5649 85.6577 81.2072 88.2208 78.9057C90.784 76.6042 94.8402 77.2465 96.5668 80.2273C98.2935 83.2082 102.35 83.8505 104.913 81.549C107.476 79.2475 111.532 79.8898 113.259 82.8706L113.534 83.3456C115.119 86.0823 118.843 86.672 121.196 84.559L121.861 83.9623C124.136 81.9191 127.402 81.1119 128.5 83.9623L128.899 84.9987C129.725 87.144 132.377 87.9301 134.247 86.5835C134.999 86.0413 135.503 85.2239 135.648 84.3113L135.923 82.5717C136.217 80.7196 137.703 80.775 139.331 79.8258C142.073 78.227 143.185 74.8522 141.927 71.9468L140.921 69.6224C139.955 67.391 140.809 64.7992 142.915 63.5713C145.021 62.3434 145.875 59.7515 144.909 57.5201L143.392 54.0167C142.427 51.7853 143.281 49.1934 145.386 47.9655C147.492 46.7376 148.346 44.1458 147.38 41.9144L144.985 36.3816C144.521 35.3103 144.932 34.066 145.942 33.4765C147.827 32.3777 147.281 29.5373 145.119 29.1949L140.872 28.5225C140.684 27.8008 140.397 27.1022 140.018 26.4465L138.145 23.2134C136.418 20.2326 132.362 19.5902 129.799 21.8917C127.236 24.1932 123.179 23.5509 121.453 20.5701C119.726 17.5893 115.67 16.947 113.107 19.2485C110.544 21.55 106.487 20.9076 104.761 17.9268C103.034 14.946 98.9779 14.3037 96.4147 16.6052C93.8516 18.9067 89.7954 18.2644 88.0687 15.2836C86.3421 12.3027 82.2858 11.6604 79.7227 13.9619C77.1596 16.2634 73.1033 15.6211 71.3767 12.6403C69.65 9.65946 65.5938 9.01714 63.0307 11.3186C60.4675 13.6201 56.4113 12.9778 54.6847 9.997C52.958 7.01619 48.9018 6.37386 46.3387 8.67537C43.7755 10.9769 39.7193 10.3345 37.9926 7.35373L37.7175 6.87874C36.1323 4.14208 32.4083 3.55236 30.0551 5.66535L29.3905 6.26206C27.1151 8.30521 23.4755 7.43414 22.3778 4.58374L21.9787 3.54735C21.1525 1.40198 18.5004 0.615922 16.6312 1.96249Z" fill="#E5906C" style="fill:#E5906C;fill:color(display-p3 0.8979 0.5663 0.4241);fill-opacity:1;"/>
<path d="M114.445 62.5036C114.385 62.8842 114.403 63.2176 114.498 63.5037C114.594 63.7899 114.739 64.0351 114.934 64.2395C115.142 64.4349 115.392 64.5992 115.686 64.7324C115.981 64.855 116.292 64.9422 116.62 64.9941C116.842 65.0293 117.082 65.0511 117.341 65.0596C117.601 65.0574 117.851 65.0211 118.09 64.9505C118.329 64.8799 118.536 64.7665 118.713 64.6102C118.891 64.4433 119.003 64.2171 119.048 63.9316C119.097 63.6249 119.035 63.3605 118.865 63.1384C118.704 62.9179 118.476 62.7191 118.179 62.542C117.882 62.3648 117.54 62.1969 117.153 62.0381C116.766 61.8793 116.376 61.7091 115.982 61.5274C115.576 61.3547 115.183 61.1625 114.805 60.9509C114.428 60.7286 114.1 60.4708 113.822 60.1773C113.543 59.8839 113.332 59.5415 113.188 59.1501C113.056 58.7499 113.031 58.2907 113.113 57.7726C113.205 57.191 113.406 56.708 113.717 56.3235C114.039 55.9302 114.424 55.6225 114.871 55.4007C115.318 55.1788 115.806 55.0393 116.335 54.9822C116.865 54.9251 117.383 54.9368 117.891 55.0171C118.483 55.1109 119.038 55.2692 119.555 55.4921C120.085 55.7061 120.538 55.9946 120.914 56.3576C121.29 56.7207 121.563 57.1541 121.732 57.6579C121.914 58.1528 121.953 58.728 121.849 59.3836L119.438 59.0018C119.471 58.6601 119.441 58.3682 119.349 58.126C119.268 57.8855 119.137 57.686 118.957 57.5272C118.776 57.3685 118.557 57.2418 118.301 57.1471C118.056 57.054 117.78 56.9832 117.473 56.9347C117.272 56.9028 117.068 56.8922 116.86 56.9027C116.653 56.9131 116.456 56.9579 116.27 57.0368C116.095 57.1174 115.942 57.2287 115.811 57.3705C115.68 57.5124 115.595 57.705 115.557 57.9482C115.522 58.1702 115.535 58.3567 115.598 58.5075C115.661 58.6584 115.805 58.8113 116.03 58.9661C116.265 59.1226 116.59 59.2933 117.005 59.4783C117.431 59.6649 117.984 59.9042 118.664 60.1962C118.869 60.272 119.147 60.3973 119.499 60.5723C119.863 60.7383 120.21 60.9722 120.542 61.274C120.874 61.5758 121.139 61.9539 121.338 62.4081C121.549 62.8535 121.605 63.3934 121.504 64.0279C121.422 64.546 121.245 65.0112 120.974 65.4235C120.703 65.8358 120.34 66.1741 119.887 66.4382C119.445 66.6935 118.914 66.8641 118.294 66.9501C117.684 67.0378 116.993 67.0205 116.221 66.8983C115.597 66.7995 115.001 66.6239 114.434 66.3715C113.876 66.1314 113.396 65.8114 112.993 65.4116C112.601 65.0135 112.313 64.5397 112.129 63.9902C111.945 63.4408 111.913 62.818 112.034 62.1218L114.445 62.5036Z" fill="#1A1A1A" style="fill:#1A1A1A;fill:color(display-p3 0.1026 0.1026 0.1026);fill-opacity:1;"/>
<path d="M104.178 58.3738L106.906 58.8058C107.477 58.8962 107.926 58.8371 108.251 58.6286C108.577 58.42 108.785 58.0302 108.875 57.4592C108.963 56.9093 108.883 56.4902 108.636 56.2018C108.39 55.9028 107.982 55.7081 107.411 55.6177L104.683 55.1856L104.178 58.3738ZM102.499 52.8562L108.606 53.8232C109.113 53.9036 109.555 54.0602 109.93 54.293C110.317 54.5169 110.631 54.7943 110.871 55.125C111.122 55.4574 111.291 55.8256 111.379 56.2297C111.479 56.6249 111.495 57.0393 111.426 57.4729C111.321 58.1391 111.087 58.6927 110.724 59.134C110.372 59.5768 109.859 59.8749 109.184 60.0282L109.179 60.06C109.472 60.1931 109.705 60.3655 109.878 60.5771C110.052 60.7781 110.183 61.0102 110.271 61.2735C110.361 61.5262 110.41 61.7996 110.418 62.0934C110.436 62.389 110.433 62.6812 110.409 62.97C110.391 63.1515 110.368 63.3646 110.34 63.6095C110.312 63.8544 110.289 64.1054 110.27 64.3625C110.261 64.6213 110.265 64.8713 110.281 65.1123C110.31 65.3444 110.369 65.5489 110.461 65.726L107.97 65.3316C107.89 64.9503 107.873 64.5087 107.92 64.0067C107.967 63.5047 107.995 63.0213 108.003 62.5565C108.012 61.951 107.901 61.489 107.67 61.1705C107.439 60.852 107.011 60.6434 106.387 60.5446L103.897 60.1503L103.196 64.5756L100.706 64.1812L102.499 52.8562Z" fill="#1A1A1A" style="fill:#1A1A1A;fill:color(display-p3 0.1026 0.1026 0.1026);fill-opacity:1;"/>
<path d="M91.2481 56.9278C91.1728 57.4036 91.152 57.8773 91.1857 58.3487C91.2317 58.8113 91.3479 59.2416 91.5341 59.6396C91.7204 60.0376 91.9916 60.3787 92.3477 60.6627C92.7054 60.9361 93.1645 61.1172 93.725 61.206C94.2854 61.2947 94.778 61.2643 95.2027 61.1148C95.6291 60.9547 95.9924 60.7141 96.2926 60.3931C96.5927 60.0721 96.8308 59.6979 97.0069 59.2705C97.1952 58.8343 97.327 58.3782 97.4024 57.9024C97.4811 57.4054 97.4991 56.915 97.4565 56.4313C97.4244 55.9493 97.3152 55.5093 97.129 55.1113C96.9444 54.7027 96.6732 54.3616 96.3154 54.0882C95.9593 53.8042 95.5011 53.6178 94.9406 53.529C94.3802 53.4403 93.8868 53.476 93.4604 53.6361C93.0356 53.7856 92.6724 54.0262 92.3705 54.3577C92.0704 54.6788 91.8253 55.0627 91.6353 55.5095C91.4559 55.9581 91.3269 56.4308 91.2481 56.9278ZM88.7579 56.5335C88.8919 55.6875 89.1427 54.9251 89.5103 54.2463C89.8796 53.5568 90.3449 52.9801 90.9062 52.5162C91.4674 52.0523 92.116 51.7214 92.8519 51.5236C93.5983 51.3274 94.4051 51.298 95.2722 51.4353C96.1499 51.5743 96.9081 51.8516 97.5468 52.267C98.1856 52.6825 98.7002 53.1976 99.0907 53.8123C99.4811 54.4269 99.7454 55.1191 99.8837 55.8889C100.024 56.6482 100.027 57.4508 99.8926 58.2967C99.762 59.1215 99.5129 59.8733 99.1452 60.5522C98.7793 61.2205 98.3165 61.7813 97.7569 62.2347C97.1974 62.688 96.5496 63.0136 95.8137 63.2114C95.0795 63.3987 94.2736 63.4228 93.3959 63.2838C92.5288 63.1465 91.7698 62.8745 91.1188 62.468C90.48 62.0525 89.9645 61.5427 89.5724 60.9386C89.1803 60.3345 88.9135 59.6582 88.7719 58.9095C88.632 58.1503 88.6273 57.3583 88.7579 56.5335Z" fill="#1A1A1A" style="fill:#1A1A1A;fill:color(display-p3 0.1026 0.1026 0.1026);fill-opacity:1;"/>
<path d="M80.7516 49.4124L83.2418 49.8067L81.78 59.038L87.2998 59.9121L86.9682 62.0058L78.9582 60.7374L80.7516 49.4124Z" fill="#1A1A1A" style="fill:#1A1A1A;fill:color(display-p3 0.1026 0.1026 0.1026);fill-opacity:1;"/>
<path d="M72.0438 49.1898L41.1687 44.3006C38.5282 43.8824 36.0486 45.6841 35.6304 48.3246C35.2081 50.9915 37.0493 53.4884 39.7219 53.8731L70.6628 58.327C73.1635 58.687 75.4897 56.9717 75.8849 54.4763C76.284 51.9558 74.5643 49.589 72.0438 49.1898Z" stroke="#1A1A1A" style="stroke:#1A1A1A;stroke:color(display-p3 0.1026 0.1026 0.1026);stroke-opacity:1;" stroke-width="2" stroke-linecap="square"/>
<path d="M29.8794 45.2585C29.8823 44.9663 29.8281 44.6922 29.7169 44.4361C29.6074 44.1695 29.4559 43.9287 29.2623 43.7137C29.0687 43.4988 28.8367 43.3212 28.5662 43.1808C28.308 43.0315 28.0256 42.9326 27.719 42.884C27.1585 42.7953 26.6651 42.8309 26.2387 42.9911C25.8139 43.1406 25.4507 43.3811 25.1489 43.7127C24.8487 44.0337 24.6036 44.4177 24.4137 44.8645C24.2342 45.313 24.1052 45.7858 24.0265 46.2828C23.9511 46.7586 23.9303 47.2323 23.9641 47.7037C24.01 48.1662 24.1262 48.5965 24.3124 48.9946C24.4987 49.3926 24.7699 49.7336 25.126 50.0177C25.4837 50.2911 25.9428 50.4722 26.5033 50.5609C27.2646 50.6815 27.8936 50.5426 28.3903 50.1444C28.8975 49.7477 29.259 49.1763 29.4747 48.43L31.8856 48.8118C31.71 49.5102 31.4448 50.124 31.09 50.6532C30.7352 51.1823 30.3093 51.6135 29.8121 51.9466C29.3149 52.2798 28.7588 52.5061 28.1437 52.6255C27.5286 52.7449 26.8721 52.7493 26.1742 52.6388C25.3071 52.5015 24.5481 52.2295 23.8971 51.8229C23.2583 51.4074 22.7429 50.8977 22.3508 50.2936C21.9586 49.6895 21.6918 49.0132 21.5502 48.2645C21.4103 47.5053 21.4056 46.7132 21.5362 45.8884C21.6702 45.0425 21.921 44.2801 22.2886 43.6012C22.658 42.9118 23.1232 42.3351 23.6845 41.8712C24.2457 41.4072 24.8943 41.0764 25.6302 40.8786C26.3766 40.6824 27.1834 40.653 28.0505 40.7903C28.6744 40.8891 29.247 41.0719 29.7684 41.3388C30.3004 41.6073 30.7555 41.9503 31.1338 42.3679C31.5243 42.7766 31.8222 43.2574 32.0273 43.8102C32.2324 44.3629 32.3201 44.973 32.2903 45.6403L29.8794 45.2585Z" fill="#1A1A1A" style="fill:#1A1A1A;fill:color(display-p3 0.1026 0.1026 0.1026);fill-opacity:1;"/>
<path d="M102.197 35.2113L98.803 34.6738L99.1345 32.5801L108.413 34.0494L108.082 36.1432L104.688 35.6056L103.226 44.837L100.735 44.4426L102.197 35.2113Z" fill="#1A1A1A" style="fill:#1A1A1A;fill:color(display-p3 0.1026 0.1026 0.1026);fill-opacity:1;"/>
<path d="M88.2661 30.8591L90.7405 31.251L94.2641 39.5971L94.2958 39.6021L95.4989 32.0045L97.8305 32.3737L96.0372 43.6988L93.5469 43.3044L90.0367 34.9767L90.005 34.9717L88.8044 42.5534L86.4727 42.1842L88.2661 30.8591Z" fill="#1A1A1A" style="fill:#1A1A1A;fill:color(display-p3 0.1026 0.1026 0.1026);fill-opacity:1;"/>
<path d="M79.1629 36.539L82.0973 37.0036L81.3278 32.6219L81.2961 32.6169L79.1629 36.539ZM80.501 29.6293L83.0547 30.0337L85.4963 42.0294L82.9109 41.62L82.4537 38.9624L78.2187 38.2918L76.9311 40.6731L74.425 40.2762L80.501 29.6293Z" fill="#1A1A1A" style="fill:#1A1A1A;fill:color(display-p3 0.1026 0.1026 0.1026);fill-opacity:1;"/>
<path d="M67.6063 35.3432C67.546 35.7238 67.5637 36.0572 67.6593 36.3434C67.7549 36.6295 67.9003 36.8747 68.0956 37.0791C68.3031 37.2745 68.5535 37.4388 68.8467 37.572C69.1417 37.6946 69.453 37.7818 69.7808 37.8337C70.0029 37.8689 70.2433 37.8907 70.5021 37.8992C70.7626 37.897 71.0123 37.8607 71.2511 37.7901C71.4899 37.7195 71.6975 37.6061 71.874 37.4498C72.0522 37.2829 72.1639 37.0567 72.2091 36.7712C72.2577 36.4645 72.1966 36.2001 72.0258 35.978C71.8656 35.7575 71.637 35.5587 71.3398 35.3816C71.0427 35.2044 70.7007 35.0365 70.314 34.8777C69.9272 34.7189 69.5369 34.5487 69.1429 34.367C68.7367 34.1943 68.3444 34.0021 67.966 33.7905C67.5893 33.5682 67.2616 33.3104 66.9829 33.0169C66.7041 32.7235 66.4928 32.3811 66.3488 31.9897C66.2171 31.5895 66.1922 31.1303 66.2743 30.6122C66.3664 30.0306 66.5675 29.5476 66.8777 29.1631C67.2002 28.7698 67.5849 28.4621 68.0319 28.2403C68.479 28.0184 68.9671 27.8789 69.4965 27.8218C70.0258 27.7647 70.5443 27.7764 71.0518 27.8567C71.644 27.9505 72.1988 28.1088 72.7163 28.3317C73.2461 28.5457 73.699 28.8342 74.0751 29.1972C74.4512 29.5603 74.724 29.9937 74.8936 30.4975C75.0753 30.9924 75.1143 31.5676 75.0105 32.2232L72.5996 31.8414C72.632 31.4997 72.6023 31.2078 72.5106 30.9656C72.4295 30.7251 72.2985 30.5256 72.1177 30.3668C71.9369 30.2081 71.7184 30.0814 71.4625 29.9867C71.2171 29.8936 70.941 29.8228 70.6344 29.7743C70.4335 29.7424 70.2292 29.7318 70.0216 29.7423C69.814 29.7527 69.6172 29.7975 69.4313 29.8764C69.2559 29.957 69.1028 30.0683 68.9719 30.2101C68.8411 30.352 68.7564 30.5446 68.7179 30.7878C68.6827 31.0098 68.6965 31.1963 68.7594 31.3471C68.8222 31.498 68.966 31.6509 69.1908 31.8057C69.4262 31.9622 69.7514 32.1329 70.1665 32.3179C70.5922 32.5045 71.1451 32.7438 71.8251 33.0358C72.0299 33.1116 72.3081 33.2369 72.6598 33.4119C73.0237 33.5779 73.3715 33.8118 73.7031 34.1136C74.0347 34.4154 74.3 34.7935 74.499 35.2477C74.7103 35.6931 74.7657 36.233 74.6653 36.8675C74.5832 37.3856 74.4066 37.8508 74.1353 38.2631C73.8641 38.6754 73.5016 39.0137 73.0479 39.2778C72.6064 39.5331 72.0753 39.7037 71.4547 39.7897C70.8447 39.8774 70.1537 39.8601 69.3818 39.7379C68.7579 39.6391 68.1624 39.4635 67.5954 39.2111C67.0372 38.971 66.5568 38.651 66.154 38.2512C65.7618 37.8531 65.4737 37.3793 65.2897 36.8299C65.1057 36.2804 65.0743 35.6576 65.1954 34.9614L67.6063 35.3432Z" fill="#1A1A1A" style="fill:#1A1A1A;fill:color(display-p3 0.1026 0.1026 0.1026);fill-opacity:1;"/>
<path d="M58.0038 33.1884L60.9382 33.6531L60.1688 29.2713L60.137 29.2663L58.0038 33.1884ZM59.3419 26.2788L61.8956 26.6831L64.3372 38.6788L61.7518 38.2694L61.2947 35.6118L57.0597 34.9412L55.772 37.3225L53.2659 36.9256L59.3419 26.2788Z" fill="#1A1A1A" style="fill:#1A1A1A;fill:color(display-p3 0.1026 0.1026 0.1026);fill-opacity:1;"/>
<path d="M45.9639 24.1602L54.4339 25.5014L54.1023 27.5951L48.1226 26.6482L47.7383 29.075L53.2263 29.9441L52.9199 31.8792L47.4318 31.0101L46.9923 33.7858L53.0989 34.7529L52.7674 36.8466L44.1705 35.4852L45.9639 24.1602Z" fill="#1A1A1A" style="fill:#1A1A1A;fill:color(display-p3 0.1026 0.1026 0.1026);fill-opacity:1;"/>
<path d="M36.5616 22.6711L39.0519 23.0655L37.5901 32.2968L43.1098 33.1709L42.7783 35.2646L34.7683 33.9962L36.5616 22.6711Z" fill="#1A1A1A" style="fill:#1A1A1A;fill:color(display-p3 0.1026 0.1026 0.1026);fill-opacity:1;"/>
<path d="M27.6286 26.7199L29.5637 27.0263C29.8492 27.0715 30.1275 27.0939 30.3985 27.0935C30.6696 27.093 30.9148 27.0506 31.1341 26.9661C31.3551 26.871 31.5414 26.7216 31.6928 26.518C31.8549 26.316 31.9644 26.0353 32.0213 25.6758C32.0783 25.3162 32.0609 25.0154 31.9691 24.7732C31.888 24.5328 31.7562 24.3385 31.5737 24.1903C31.3928 24.0316 31.1736 23.9102 30.9159 23.826C30.6583 23.7419 30.3867 23.6772 30.1012 23.632L28.1661 23.3255L27.6286 26.7199ZM25.9823 20.9961L31.0897 21.8049C31.7982 21.9171 32.3841 22.1183 32.8476 22.4084C33.3128 22.6881 33.6719 23.0213 33.925 23.4083C34.1887 23.7969 34.3549 24.2188 34.4237 24.6742C34.5031 25.1311 34.5059 25.5923 34.4323 26.0575C34.3603 26.5122 34.2151 26.9499 33.9967 27.3706C33.7906 27.7824 33.5021 28.1323 33.1313 28.4205C32.7711 28.7103 32.3257 28.9216 31.7952 29.0544C31.2664 29.1766 30.6478 29.1816 29.9393 29.0694L27.3222 28.655L26.6792 32.7155L24.1889 32.3211L25.9823 20.9961Z" fill="#1A1A1A" style="fill:#1A1A1A;fill:color(display-p3 0.1026 0.1026 0.1026);fill-opacity:1;"/>
</svg>
