<svg width="195" height="141" viewBox="0 0 195 141" fill="none" xmlns="http://www.w3.org/2000/svg">
<path fill-rule="evenodd" clip-rule="evenodd" d="M115.024 13.1436L116.521 14.2632C117.108 14.7016 117.781 15.0097 118.495 15.1669L120.698 15.6516C123.702 16.3126 126.425 17.8434 128.542 20.0297C116.514 18.2415 103.124 18.3555 89.2871 20.7348C44.6782 28.4052 12.3142 56.7149 17.0001 83.9663C21.6859 111.218 61.6472 127.091 106.256 119.421C150.865 111.75 183.229 83.4405 178.543 56.1891C176.357 43.474 166.491 33.2358 152.056 26.7105C155.613 26.2758 159.267 27.3008 162.114 29.6751L163.546 30.8682C164.019 31.263 164.554 31.5773 165.13 31.7984C167.303 32.6333 169.298 32.1167 170.711 30.9254C178.611 37.5 183.851 45.6577 185.457 55.0002C190.68 85.3759 155.516 116.775 106.915 125.132C84.1601 129.044 62.4946 127.213 45.3502 121.04L39.1668 116.319C38.7826 116.025 38.4465 115.674 38.1708 115.277C36.0802 112.266 32.8606 110.228 29.2445 109.628L28.4663 109.499C27.2693 109.3 26.1517 108.771 25.2394 107.971L21.2893 104.507L21.1544 104.361C19.7079 102.798 17.983 101.593 16.1072 100.776C12.713 96.0932 10.4253 90.8934 9.4572 85.2632C4.23413 54.8876 39.399 23.4886 88.0001 15.1317C97.252 13.5408 106.324 12.8996 114.985 13.1138C114.998 13.1238 115.011 13.1337 115.024 13.1436ZM132.721 25.2865C136.029 28.6691 140.905 30.0106 145.455 28.8339C146.057 29.0551 146.651 29.2823 147.238 29.5155C162.593 35.6147 172.164 45.4337 174.143 56.9457C176.123 68.4577 170.381 80.9097 157.946 91.7873C145.578 102.606 127.129 111.301 105.499 115.021C83.8694 118.74 63.576 116.706 48.3051 110.64C32.9505 104.541 23.3796 94.7217 21.4001 83.2097C19.4206 71.6976 25.162 59.2457 37.5975 48.3681C49.9652 37.5497 68.4137 28.854 90.0437 25.1348C105.379 22.4979 120.043 22.7529 132.721 25.2865Z" fill="#C1C1C1" style="fill:#C1C1C1;fill:color(display-p3 0.7549 0.7549 0.7549);fill-opacity:1;"/>
<path fill-rule="evenodd" clip-rule="evenodd" d="M178.644 66.2027C175.124 90.061 145.405 112.689 106.256 119.421C67.1068 126.153 31.537 114.751 20.2495 93.4385L178.644 66.2027Z" fill="#121212" style="fill:#121212;fill:color(display-p3 0.0705 0.0705 0.0705);fill-opacity:1;"/>
<path d="M71.5531 33.0388L73.2629 34.0558L75.231 33.765L74.7921 35.7054L75.6768 37.4873L73.6958 37.6695L72.2745 39.0615L71.489 37.2337L69.7259 36.3122L71.2215 35.0004L71.5531 33.0388Z" fill="black" style="fill:black;fill-opacity:1;"/>
<path d="M81.4036 29.5917L82.9491 30.8444L84.9385 30.8401L84.2246 32.6971L84.8435 34.5878L82.8568 34.4828L81.2499 35.6556L80.7359 33.7337L79.1239 32.5678L80.7929 31.4851L81.4036 29.5917Z" fill="black" style="fill:black;fill-opacity:1;"/>
<path d="M91.4189 27.4869L92.8054 28.9136L94.7813 29.1446L93.8529 30.9041L94.2438 32.8548L92.2836 32.5155L90.5492 33.4901L90.2661 31.5209L88.8033 30.1726L90.5886 29.2948L91.4189 27.4869Z" fill="black" style="fill:black;fill-opacity:1;"/>
<path d="M101.632 26.1133L102.841 27.6939L104.775 28.1569L103.645 29.7943L103.803 31.7775L101.897 31.2088L100.059 31.9715L100.011 29.9826L98.7177 28.4708L100.594 27.8103L101.632 26.1133Z" fill="black" style="fill:black;fill-opacity:1;"/>
<path d="M111.53 26.1645L112.498 27.9026L114.346 28.6394L112.992 30.097L112.862 32.0822L111.058 31.2449L109.13 31.735L109.368 29.7599L108.306 28.0777L110.259 27.6943L111.53 26.1645Z" fill="black" style="fill:black;fill-opacity:1;"/>
<path d="M138.793 64.4047L140.621 64.1007C141.224 64.0002 141.74 63.8007 142.166 63.5022C142.602 63.2021 142.944 62.8347 143.193 62.4003C143.451 61.9642 143.619 61.4811 143.696 60.9509C143.784 60.4191 143.78 59.8664 143.684 59.2926C143.619 58.9 143.515 58.5552 143.373 58.2582C143.238 57.9495 143.056 57.6953 142.827 57.4956C142.597 57.2959 142.321 57.1608 141.999 57.0902C141.685 57.0079 141.317 57.0019 140.894 57.0723L139.112 57.3688L138.793 64.4047ZM136.818 55.7022L140.714 55.054C142.234 54.8011 143.437 54.9784 144.325 55.586C145.21 56.1835 145.764 57.1516 145.987 58.4904C146.143 59.4266 146.157 60.3191 146.029 61.168C145.901 62.0168 145.625 62.7818 145.201 63.4628C144.784 64.1321 144.211 64.6981 143.481 65.1609C142.762 65.6221 141.883 65.9389 140.846 66.1115L136.347 66.8602L136.818 55.7022Z" fill="#121212" style="fill:#121212;fill:color(display-p3 0.0705 0.0705 0.0705);fill-opacity:1;"/>
<path d="M126.731 57.38L134.961 56.0108L134.885 58.0717L129.026 59.0466L128.927 61.4372L134.348 60.5352L134.262 62.4427L128.841 63.3447L128.722 66.08L134.671 65.0901L134.58 67.1536L126.276 68.5355L126.731 57.38Z" fill="#121212" style="fill:#121212;fill:color(display-p3 0.0705 0.0705 0.0705);fill-opacity:1;"/>
<path d="M119.825 60.5778L116.443 61.1406L116.534 59.0771L125.534 57.5797L125.443 59.6432L122.211 60.1809L121.831 69.2753L119.446 69.6723L119.825 60.5778Z" fill="#121212" style="fill:#121212;fill:color(display-p3 0.0705 0.0705 0.0705);fill-opacity:1;"/>
<path d="M113.123 63.4928C113.012 62.8285 112.748 62.3603 112.33 62.0884C111.921 61.8048 111.43 61.7107 110.856 61.8062C110.252 61.9067 109.747 62.1356 109.341 62.4928C108.943 62.8383 108.635 63.2568 108.417 63.7483C108.207 64.228 108.077 64.7514 108.026 65.3184C107.974 65.8754 107.991 66.4106 108.076 66.924C108.138 67.2964 108.242 67.6412 108.388 67.9583C108.544 68.2738 108.739 68.5464 108.974 68.7763C109.217 68.9945 109.502 69.1539 109.83 69.2547C110.167 69.3538 110.552 69.3673 110.985 69.2953C111.307 69.2417 111.6 69.136 111.863 68.9784C112.135 68.8091 112.365 68.6103 112.555 68.3822C112.743 68.144 112.891 67.8815 112.998 67.5947C113.106 67.3078 113.161 67.0193 113.165 66.729L115.535 66.3346C115.419 67.1298 115.239 67.8167 114.994 68.3954C114.759 68.9725 114.462 69.4614 114.105 69.8623C113.756 70.2514 113.341 70.5583 112.862 70.783C112.393 71.0161 111.867 71.1812 111.284 71.2783C109.753 71.5329 108.503 71.322 107.532 70.6457C106.571 69.9676 105.962 68.8586 105.706 67.3184C105.56 66.4426 105.558 65.5895 105.699 64.7591C105.84 63.9287 106.113 63.1747 106.517 62.4971C106.93 61.8077 107.47 61.2265 108.136 60.7536C108.812 60.279 109.603 59.9663 110.509 59.8156C111.133 59.7117 111.726 59.701 112.288 59.7833C112.85 59.8657 113.351 60.0462 113.79 60.3248C114.238 60.5916 114.61 60.9591 114.905 61.4273C115.198 61.8854 115.394 62.4424 115.493 63.0984L113.123 63.4928Z" fill="#121212" style="fill:#121212;fill:color(display-p3 0.0705 0.0705 0.0705);fill-opacity:1;"/>
<path d="M96.2375 62.4543L104.467 61.085L104.391 63.146L98.5321 64.1208L98.4333 66.5114L103.854 65.6095L103.768 67.5169L98.3472 68.4189L98.2282 71.1543L104.177 70.1644L104.086 72.2278L95.7815 73.6097L96.2375 62.4543Z" fill="#121212" style="fill:#121212;fill:color(display-p3 0.0705 0.0705 0.0705);fill-opacity:1;"/>
<path d="M85.0607 64.3141L87.5068 63.907L91.7124 71.0902L91.7426 71.0852L92.0065 63.1583L94.1808 62.7966L93.6946 73.957L91.324 74.3514L87.1058 67.279L87.0756 67.284L86.7941 75.1052L84.5896 75.472L85.0607 64.3141Z" fill="#121212" style="fill:#121212;fill:color(display-p3 0.0705 0.0705 0.0705);fill-opacity:1;"/>
<path d="M73.8687 66.1764L76.3149 65.7693L80.5205 72.9525L80.5507 72.9475L80.8145 65.0206L82.9889 64.6589L82.5027 75.8193L80.1321 76.2138L75.9138 69.1413L75.8836 69.1463L75.6022 76.9675L73.3977 77.3343L73.8687 66.1764Z" fill="#121212" style="fill:#121212;fill:color(display-p3 0.0705 0.0705 0.0705);fill-opacity:1;"/>
<path d="M61.4982 74.6744C61.3525 73.7986 61.3502 72.9455 61.4913 72.1151C61.6325 71.2847 61.9053 70.5307 62.3098 69.853C62.7227 69.1636 63.2622 68.5824 63.9283 68.1095C64.6046 67.6349 65.3957 67.3223 66.3016 67.1715C67.0264 67.0509 67.7025 67.0419 68.3299 67.1444C68.9557 67.2368 69.5075 67.445 69.9856 67.7689C70.4636 68.0928 70.8611 68.5233 71.1781 69.0602C71.505 69.5954 71.7314 70.2406 71.857 70.9955C72.0044 71.8814 72.0142 72.7487 71.8865 73.5976C71.7587 74.4464 71.4943 75.2198 71.0932 75.9176C70.7021 76.6137 70.1693 77.2041 69.4947 77.6887C68.8286 78.1617 68.0224 78.4768 67.0761 78.6343C65.5461 78.8889 64.2954 78.678 63.3242 78.0016C62.3631 77.3236 61.7544 76.2145 61.4982 74.6744ZM63.8688 74.2799C63.9308 74.6524 64.0347 74.9972 64.1806 75.3143C64.3365 75.6297 64.5319 75.9024 64.7667 76.1323C65.0099 76.3504 65.295 76.5099 65.6222 76.6106C65.9593 76.7097 66.3444 76.7232 66.7772 76.6512C67.3611 76.5541 67.8468 76.3336 68.2344 75.9898C68.6204 75.6359 68.9233 75.2182 69.1432 74.7368C69.3614 74.2453 69.4966 73.7211 69.5488 73.1641C69.611 72.6055 69.5994 72.0695 69.514 71.5561C69.4503 71.1736 69.3456 70.8237 69.1997 70.5066C69.0622 70.1778 68.8769 69.9034 68.6438 69.6836C68.4107 69.4638 68.1305 69.3035 67.8034 69.2027C67.4763 69.102 67.0913 69.0885 66.6484 69.1621C66.0444 69.2626 65.5394 69.4915 65.1333 69.8487C64.7356 70.1942 64.4276 70.6127 64.2094 71.1042C63.9995 71.584 63.8694 72.1074 63.8189 72.6744C63.7667 73.2314 63.7834 73.7665 63.8688 74.2799Z" fill="#121212" style="fill:#121212;fill:color(display-p3 0.0705 0.0705 0.0705);fill-opacity:1;"/>
<path d="M57.7233 72.7106C57.6128 72.0462 57.3487 71.5781 56.931 71.3062C56.5218 71.0226 56.0302 70.9285 55.4564 71.024C54.8525 71.1245 54.3474 71.3533 53.9413 71.7106C53.5436 72.056 53.2357 72.4745 53.0175 72.966C52.8076 73.4458 52.6775 73.9692 52.627 74.5362C52.5748 75.0932 52.5915 75.6283 52.6769 76.1417C52.7388 76.5142 52.8428 76.859 52.9886 77.1761C53.1446 77.4915 53.34 77.7642 53.5748 77.9941C53.818 78.2123 54.1031 78.3717 54.4302 78.4725C54.7674 78.5715 55.1524 78.5851 55.5853 78.513C55.9074 78.4594 56.2002 78.3538 56.4636 78.1962C56.7354 78.0268 56.9662 77.8281 57.1558 77.6C57.3438 77.3618 57.4915 77.0993 57.5989 76.8124C57.7064 76.5256 57.7618 76.237 57.7652 75.9468L60.1359 75.5524C60.0199 76.3475 59.8394 77.0345 59.5943 77.6132C59.3592 78.1903 59.063 78.6792 58.7056 79.0801C58.3565 79.4692 57.942 79.7761 57.4622 80.0008C56.9941 80.2338 56.4681 80.3989 55.8842 80.4961C54.3541 80.7507 53.1035 80.5398 52.1323 79.8635C51.1712 79.1854 50.5625 78.0763 50.3063 76.5362C50.1605 75.6604 50.1582 74.8073 50.2994 73.9769C50.4405 73.1465 50.7134 72.3925 51.1179 71.7148C51.5307 71.0254 52.0703 70.4443 52.7364 69.9713C53.4126 69.4968 54.2037 69.1841 55.1097 69.0333C55.7338 68.9295 56.3269 68.9187 56.8889 69.0011C57.4509 69.0835 57.9516 69.2639 58.3911 69.5425C58.8389 69.8094 59.2104 70.1769 59.5056 70.6451C59.799 71.1031 59.9952 71.6602 60.094 72.3162L57.7233 72.7106Z" fill="#121212" style="fill:#121212;fill:color(display-p3 0.0705 0.0705 0.0705);fill-opacity:1;"/>
<path d="M127.974 40.4714L124.592 41.0342L124.683 38.9707L133.682 37.4733L133.591 39.5368L130.36 40.0744L129.98 49.1689L127.594 49.5658L127.974 40.4714Z" fill="#121212" style="fill:#121212;fill:color(display-p3 0.0705 0.0705 0.0705);fill-opacity:1;"/>
<path d="M115.578 40.4855L123.807 39.1162L123.731 41.1772L117.873 42.152L117.774 44.5427L123.195 43.6407L123.109 45.5482L117.688 46.4501L117.569 49.1855L123.518 48.1956L123.427 50.2591L115.122 51.6409L115.578 40.4855Z" fill="#121212" style="fill:#121212;fill:color(display-p3 0.0705 0.0705 0.0705);fill-opacity:1;"/>
<path d="M111.62 51.091L111.59 51.096C111.318 51.6378 110.963 52.0538 110.525 52.3439C110.085 52.6239 109.609 52.8067 109.096 52.8921C107.565 53.1467 106.315 52.9358 105.344 52.2594C104.383 51.5814 103.774 50.4723 103.518 48.9322C103.372 48.0564 103.37 47.2033 103.511 46.3729C103.652 45.5425 103.925 44.7885 104.329 44.1108C104.742 43.4214 105.282 42.8403 105.948 42.3673C106.624 41.8928 107.415 41.5801 108.321 41.4293C108.955 41.3238 109.562 41.3005 110.14 41.3594C110.719 41.4182 111.241 41.5694 111.706 41.8127C112.17 42.0561 112.564 42.3993 112.886 42.8423C113.206 43.2752 113.421 43.8239 113.532 44.4883L111.161 44.8827C111.02 44.2233 110.736 43.7896 110.309 43.5815C109.879 43.3632 109.332 43.3094 108.668 43.42C108.064 43.5205 107.559 43.7493 107.153 44.1066C106.755 44.452 106.447 44.8705 106.229 45.362C106.019 45.8418 105.889 46.3652 105.838 46.9322C105.786 47.4892 105.803 48.0243 105.888 48.5377C105.95 48.9102 106.054 49.255 106.2 49.5721C106.356 49.8875 106.551 50.1602 106.786 50.3901C107.029 50.6083 107.314 50.7677 107.642 50.8685C107.979 50.9675 108.364 50.9811 108.797 50.909C109.25 50.8337 109.628 50.7138 109.932 50.5495C110.244 50.3734 110.499 50.1654 110.697 49.9256C110.905 49.6841 111.061 49.4098 111.165 49.1028C111.278 48.7841 111.356 48.4452 111.399 48.0862L108.908 48.5008L108.992 46.6713L113.567 45.9101L113.298 51.9445L111.803 52.1932L111.62 51.091Z" fill="#121212" style="fill:#121212;fill:color(display-p3 0.0705 0.0705 0.0705);fill-opacity:1;"/>
<path d="M91.4464 51.9027C91.49 52.2886 91.5889 52.6031 91.7431 52.8464C91.8957 53.0797 92.0903 53.2542 92.3268 53.37C92.5633 53.4859 92.8334 53.5547 93.1371 53.5766C93.439 53.5884 93.7611 53.5659 94.1034 53.5089C94.345 53.4687 94.5816 53.3983 94.8131 53.2977C95.0447 53.1971 95.246 53.0705 95.4172 52.9179C95.5984 52.7636 95.7335 52.5808 95.8225 52.3694C95.9215 52.1564 95.9484 51.914 95.9032 51.6422C95.8596 51.3804 95.7439 51.1825 95.5561 51.0482C95.3665 50.9039 95.1309 50.7931 94.849 50.7158C94.5773 50.6369 94.2678 50.5798 93.9205 50.5445C93.5833 50.5075 93.2402 50.4663 92.8913 50.4209C92.5323 50.3772 92.18 50.3116 91.8344 50.2243C91.4889 50.137 91.1668 50.0044 90.8682 49.8264C90.5797 49.6469 90.3281 49.4094 90.1135 49.1141C89.9089 48.8171 89.768 48.4371 89.691 47.974C89.5905 47.37 89.6309 46.8357 89.8122 46.371C89.9935 45.9064 90.2637 45.5097 90.6228 45.181C90.9803 44.8422 91.4006 44.5705 91.8838 44.366C92.3754 44.1497 92.883 43.998 93.4064 43.9109C93.9601 43.8188 94.4894 43.7979 94.9943 43.8484C95.5077 43.8871 95.969 44.0173 96.3783 44.2388C96.7976 44.4587 97.1499 44.7725 97.4349 45.1803C97.7284 45.5763 97.9271 46.0863 98.0309 46.7105L95.7811 47.0848C95.7409 46.7811 95.6538 46.537 95.5196 46.3524C95.3938 46.1561 95.2294 46.0076 95.0265 45.9069C94.8336 45.8045 94.6121 45.7482 94.3622 45.7381C94.1105 45.7179 93.8488 45.7304 93.577 45.7756C93.3556 45.8125 93.1333 45.8753 92.9101 45.9642C92.6953 46.0413 92.5066 46.1503 92.3438 46.2912C92.1794 46.422 92.056 46.5822 91.9738 46.7717C91.8915 46.9613 91.8713 47.1819 91.9132 47.4336C91.9567 47.6953 92.0892 47.9008 92.3106 48.0502C92.5404 48.1878 92.8013 48.2944 93.0932 48.37C93.3934 48.4338 93.6954 48.4767 93.9991 48.4986C94.301 48.5104 94.546 48.5214 94.7339 48.5315C95.1751 48.5719 95.5844 48.6383 95.9618 48.7306C96.3376 48.8129 96.6706 48.9489 96.9608 49.1386C97.261 49.3265 97.5093 49.5749 97.7055 49.8836C97.9017 50.1924 98.04 50.5883 98.1204 51.0715C98.2276 51.7158 98.1829 52.287 97.9865 52.7852C97.8002 53.2817 97.5191 53.7061 97.1432 54.0583C96.7773 54.4089 96.3428 54.6881 95.8394 54.896C95.3377 55.1139 94.8302 55.2656 94.3168 55.351C92.8069 55.6023 91.6283 55.4828 90.7813 54.9927C89.9442 54.501 89.416 53.5957 89.1966 52.277L91.4464 51.9027Z" fill="#121212" style="fill:#121212;fill:color(display-p3 0.0705 0.0705 0.0705);fill-opacity:1;"/>
<path d="M85.8643 45.4298L88.25 45.0329L88.1538 47.4386C88.1402 47.7926 88.0932 48.1314 88.0126 48.4552C87.9303 48.7689 87.7977 49.0599 87.6147 49.3283C87.4301 49.5866 87.1784 49.8147 86.8596 50.0126C86.5492 50.1987 86.149 50.3429 85.6591 50.4451L85.7097 49.3504C86.1393 49.1962 86.4254 48.9883 86.568 48.7266C86.7208 48.4632 86.8014 48.1084 86.8099 47.6622L85.768 47.8355L85.8643 45.4298Z" fill="#121212" style="fill:#121212;fill:color(display-p3 0.0705 0.0705 0.0705);fill-opacity:1;"/>
<path d="M79.0187 48.6174L75.6364 49.1802L75.7276 47.1167L84.7269 45.6193L84.6357 47.6827L81.4044 48.2204L81.0245 57.3148L78.6388 57.7118L79.0187 48.6174Z" fill="#121212" style="fill:#121212;fill:color(display-p3 0.0705 0.0705 0.0705);fill-opacity:1;"/>
<path d="M66.6227 48.6315L74.8519 47.2622L74.7759 49.3232L68.9172 50.298L68.8185 52.6887L74.2392 51.7867L74.1531 53.6942L68.7324 54.5961L68.6134 57.3315L74.5626 56.3416L74.4714 58.4051L66.1667 59.7869L66.6227 48.6315Z" fill="#121212" style="fill:#121212;fill:color(display-p3 0.0705 0.0705 0.0705);fill-opacity:1;"/>
<path d="M57.9523 50.0744L60.338 49.6774L59.9581 58.7719L65.1674 57.9051L65.0763 59.9686L57.4963 61.2298L57.9523 50.0744Z" fill="#121212" style="fill:#121212;fill:color(display-p3 0.0705 0.0705 0.0705);fill-opacity:1;"/>
</svg>
