<svg width="159" height="97" viewBox="0 0 159 97" fill="none" xmlns="http://www.w3.org/2000/svg">
<path d="M94.595 6.03895C97.3002 5.74552 99.7411 7.7935 100.047 10.6132L101.616 25.0826C101.922 27.9023 104.363 29.9503 107.068 29.6569L148.046 25.212C150.752 24.9186 153.193 26.9666 153.498 29.7863L155.538 48.5878C155.844 51.4075 153.899 53.9313 151.193 54.2247L138.292 55.6241C135.587 55.9176 133.642 58.4413 133.948 61.261L135.71 77.5085C136.016 80.3283 134.071 82.852 131.366 83.1454L14.8168 95.7876C11.4354 96.1544 8.38426 93.5944 8.00193 90.0697L0.692263 22.6818C0.309936 19.1571 2.74121 16.0025 6.12265 15.6357L94.595 6.03895Z" fill="#FF7171" style="fill:#FF7171;fill:color(display-p3 1.0000 0.4421 0.4421);fill-opacity:1;"/>
<path d="M91.8202 61.8524L94.9375 61.5143L99.7309 70.8846L99.7694 70.8805L100.672 60.8923L103.443 60.5917L102.027 74.6461L99.0064 74.9738L94.1891 65.7424L94.1506 65.7466L93.2336 75.6L90.4242 75.9048L91.8202 61.8524Z" fill="#141414" style="fill:#141414;fill:color(display-p3 0.0784 0.0784 0.0784);fill-opacity:1;"/>
<path d="M80.3201 69.3884L83.1103 69.0858C83.5208 69.0412 83.9079 68.9603 84.2716 68.843C84.6339 68.7128 84.9471 68.5491 85.2112 68.3517C85.4868 68.1401 85.6933 67.8905 85.8309 67.6031C85.9799 67.3013 86.0335 66.9581 85.9917 66.5732C85.9514 66.2012 85.8552 65.9131 85.7033 65.7089C85.5628 65.4905 85.3837 65.3348 85.1659 65.2416C84.9481 65.1484 84.7024 65.0971 84.4289 65.0879C84.1553 65.0786 83.871 65.09 83.5759 65.122L80.7088 65.433L80.3201 69.3884ZM77.9141 63.3609L84.4758 62.6492C85.0902 62.5695 85.6545 62.5667 86.1687 62.6407C86.6944 62.7005 87.1528 62.8585 87.544 63.1146C87.9338 63.3578 88.25 63.6999 88.4925 64.1409C88.735 64.5818 88.8925 65.1359 88.9648 65.8029C89.0149 66.2648 88.986 66.7157 88.8779 67.1557C88.7699 67.5958 88.5929 67.9979 88.3468 68.362C88.0994 68.7133 87.7951 69.0189 87.4339 69.2787C87.0727 69.5386 86.6647 69.7256 86.2098 69.8398L86.214 69.8783C86.7979 69.9967 87.2104 70.2699 87.4516 70.6981C87.6913 71.1133 87.8411 71.5968 87.9009 72.1484C87.9343 72.4563 87.9554 72.8304 87.9643 73.2708C87.9845 73.6969 88.0176 74.1216 88.0635 74.5449C88.0969 74.8528 88.1418 75.1465 88.198 75.4259C88.2529 75.6926 88.33 75.9243 88.4292 76.1212L85.4851 76.4406C85.4285 76.278 85.3797 76.1275 85.3388 75.9892C85.2964 75.838 85.2669 75.6855 85.2502 75.5315C85.2001 75.0697 85.1757 74.6051 85.1769 74.1377C85.1767 73.6575 85.1516 73.1865 85.1015 72.7247C85.0653 72.3911 84.9848 72.1273 84.8599 71.9332C84.7464 71.7248 84.5929 71.5662 84.3994 71.4574C84.2187 71.3472 84.0044 71.2861 83.7565 71.2741C83.5072 71.2492 83.235 71.2528 82.94 71.2848L80.0921 71.5937L79.5391 77.0855L76.5373 77.4112L77.9141 63.3609Z" fill="#141414" style="fill:#141414;fill:color(display-p3 0.0784 0.0784 0.0784);fill-opacity:1;"/>
<path d="M65.0793 64.7532L75.5665 63.6156L75.3225 66.212L67.8564 67.0219L67.56 70.0328L74.4681 69.2835L74.2224 71.6853L67.3143 72.4347L66.9676 75.8794L74.5492 75.057L74.2859 77.6554L63.7025 78.8034L65.0793 64.7532Z" fill="#141414" style="fill:#141414;fill:color(display-p3 0.0784 0.0784 0.0784);fill-opacity:1;"/>
<path d="M52.7048 77.4265L55.0331 77.1739C55.8028 77.0904 56.4674 76.8756 57.0269 76.5293C57.5993 76.1817 58.0578 75.7426 58.4026 75.212C58.7603 74.68 59.0069 74.0821 59.1426 73.4184C59.2911 72.7533 59.3257 72.0552 59.2464 71.324C59.1921 70.8237 59.0857 70.3809 58.9271 69.9958C58.7799 69.5964 58.5685 69.2624 58.2927 68.9938C58.017 68.7252 57.6783 68.5348 57.2768 68.4226C56.8867 68.2962 56.4222 68.2622 55.8834 68.3206L53.6128 68.5669L52.7048 77.4265ZM50.8357 66.2982L55.8003 65.7597C57.7374 65.5496 59.2442 65.8599 60.3208 66.6906C61.3959 67.5085 62.026 68.7705 62.2111 70.4767C62.3405 71.6698 62.2941 72.7975 62.0719 73.86C61.8497 74.9224 61.4461 75.8683 60.8611 76.6975C60.2876 77.5125 59.5234 78.186 58.5688 78.7178C57.6269 79.2483 56.4953 79.5852 55.174 79.7286L49.4397 80.3506L50.8357 66.2982Z" fill="#141414" style="fill:#141414;fill:color(display-p3 0.0784 0.0784 0.0784);fill-opacity:1;"/>
<path d="M34.6084 76.138C34.4873 75.0219 34.5457 73.9448 34.7835 72.9066C35.0213 71.8684 35.4199 70.9361 35.9792 70.1097C36.55 69.269 37.2729 68.5741 38.1478 68.0249C39.0356 67.4743 40.0567 67.1364 41.2113 67.0112C42.1349 66.911 42.9891 66.9481 43.7738 67.1226C44.5571 67.2842 45.2389 67.5867 45.8191 68.0299C46.3994 68.4732 46.8703 69.0451 47.2318 69.7457C47.6062 70.4449 47.8455 71.2756 47.9499 72.2377C48.0724 73.3666 48.0225 74.4623 47.8003 75.5248C47.578 76.5872 47.1887 77.5445 46.6321 78.3966C46.0884 79.2473 45.3734 79.9544 44.487 80.5178C43.6121 81.067 42.5716 81.407 41.3658 81.5378C39.4159 81.7493 37.8522 81.3932 36.6747 80.4696C35.51 79.5446 34.8213 78.1008 34.6084 76.138ZM37.6295 75.8103C37.6809 76.285 37.7874 76.7277 37.9488 77.1385C38.123 77.5479 38.35 77.9062 38.6299 78.2133C38.9213 78.5062 39.2698 78.728 39.6756 78.8786C40.0941 79.0279 40.5792 79.0726 41.1308 79.0128C41.8749 78.9321 42.5039 78.6887 43.018 78.2824C43.5306 77.8634 43.9431 77.3579 44.2552 76.7659C44.566 76.1611 44.7744 75.509 44.8802 74.8096C44.9989 74.1089 45.0227 73.4314 44.9518 72.7771C44.8989 72.2896 44.7918 71.8405 44.6304 71.4297C44.4805 71.0046 44.2662 70.645 43.9877 70.3507C43.7092 70.0564 43.367 69.834 42.9613 69.6833C42.5556 69.5326 42.0705 69.4879 41.5061 69.5491C40.7363 69.6326 40.0823 69.8852 39.544 70.3071C39.0171 70.7146 38.5983 71.2208 38.2875 71.8257C37.9881 72.4162 37.7862 73.0676 37.6818 73.7799C37.5759 74.4792 37.5585 75.1561 37.6295 75.8103Z" fill="#141414" style="fill:#141414;fill:color(display-p3 0.0784 0.0784 0.0784);fill-opacity:1;"/>
<path d="M18.4013 69.8163L22.5769 69.3634L24.7144 79.197L24.7529 79.1928L28.9655 68.6704L33.1796 68.2133L31.7643 82.2677L28.9356 82.5745L30.2516 71.3734L30.2131 71.3775L25.5874 82.9377L23.2783 83.1882L20.765 72.4024L20.7265 72.4066L19.8531 83.5597L17.0052 83.8686L18.4013 69.8163Z" fill="#141414" style="fill:#141414;fill:color(display-p3 0.0784 0.0784 0.0784);fill-opacity:1;"/>
<path d="M139.504 35.8872L135.194 36.3547L135.457 33.7563L146.926 32.5122L146.663 35.1107L142.545 35.5574L141.412 47.0112L138.372 47.341L139.504 35.8872Z" fill="#141414" style="fill:#141414;fill:color(display-p3 0.0784 0.0784 0.0784);fill-opacity:1;"/>
<path d="M123.854 35.0149L134.341 33.8774L134.097 36.4737L126.631 37.2836L126.335 40.2945L133.243 39.5452L132.997 41.9471L126.089 42.6964L125.742 46.1411L133.324 45.3187L133.061 47.9172L122.477 49.0652L123.854 35.0149Z" fill="#141414" style="fill:#141414;fill:color(display-p3 0.0784 0.0784 0.0784);fill-opacity:1;"/>
<path d="M113.943 44.598L109.741 36.5459L112.839 36.2098L115.532 41.8363L119.17 35.5231L122.73 35.137L116.96 44.4071L116.465 49.7174L113.425 50.0472L113.943 44.598Z" fill="#141414" style="fill:#141414;fill:color(display-p3 0.0784 0.0784 0.0784);fill-opacity:1;"/>
<path d="M99.3904 48.5712L102.431 48.2414C102.365 48.7158 102.314 49.2016 102.277 49.6988C102.252 50.1818 102.206 50.654 102.139 51.1156C102.085 51.5757 101.996 52.0072 101.871 52.4102C101.747 52.8259 101.56 53.1967 101.31 53.5223C101.061 53.8608 100.735 54.1428 100.331 54.3683C99.9282 54.6067 99.4141 54.7728 98.7883 54.8666L98.9287 53.4691C99.4706 53.3195 99.841 53.0846 100.04 52.7645C100.252 52.443 100.38 52.0073 100.424 51.4574L99.1153 51.5993L99.3904 48.5712Z" fill="#141414" style="fill:#141414;fill:color(display-p3 0.0784 0.0784 0.0784);fill-opacity:1;"/>
<path d="M89.6158 38.7285L92.6561 38.3988L91.5233 49.8526L98.162 49.1325L97.8988 51.731L88.239 52.7788L89.6158 38.7285Z" fill="#141414" style="fill:#141414;fill:color(display-p3 0.0784 0.0784 0.0784);fill-opacity:1;"/>
<path d="M80.2722 39.7424L83.3702 39.4063L87.1504 52.8972L84.1486 53.2228L83.3741 50.2112L78.2363 50.7685L76.8364 54.0159L73.6613 54.3603L80.2722 39.7424ZM79.1852 48.3877L82.8605 47.989L81.5942 42.5972L81.5557 42.6014L79.1852 48.3877Z" fill="#141414" style="fill:#141414;fill:color(display-p3 0.0784 0.0784 0.0784);fill-opacity:1;"/>
<path d="M59.0047 42.0492L63.1803 41.5963L65.3178 51.4299L65.3563 51.4257L69.5689 40.9033L73.783 40.4462L72.3677 54.5006L69.539 54.8074L70.855 43.6063L70.8165 43.6104L66.1908 55.1706L63.8817 55.4211L61.3684 44.6353L61.3299 44.6395L60.4565 55.7926L57.6086 56.1015L59.0047 42.0492Z" fill="#141414" style="fill:#141414;fill:color(display-p3 0.0784 0.0784 0.0784);fill-opacity:1;"/>
<path d="M53.3108 42.6669L56.3512 42.3371L54.9358 56.3915L51.9148 56.7192L53.3108 42.6669Z" fill="#141414" style="fill:#141414;fill:color(display-p3 0.0784 0.0784 0.0784);fill-opacity:1;"/>
<path d="M39.048 44.214L42.1653 43.8759L46.9587 53.2462L46.9972 53.242L47.8996 43.2539L50.6706 42.9533L49.2552 57.0077L46.2341 57.3354L41.4169 48.104L41.3784 48.1081L40.4614 57.9616L37.6519 58.2663L39.048 44.214Z" fill="#141414" style="fill:#141414;fill:color(display-p3 0.0784 0.0784 0.0784);fill-opacity:1;"/>
<path d="M33.3542 44.8317L36.3945 44.5019L34.9792 58.5563L31.9581 58.884L33.3542 44.8317Z" fill="#141414" style="fill:#141414;fill:color(display-p3 0.0784 0.0784 0.0784);fill-opacity:1;"/>
<path d="M15.8966 46.725L20.0723 46.2721L22.2098 56.1057L22.2483 56.1015L26.4609 45.5791L30.675 45.122L29.2597 59.1764L26.431 59.4832L27.747 48.2821L27.7085 48.2862L23.0828 59.8464L20.7737 60.0969L18.2604 49.3111L18.2219 49.3153L17.3485 60.4684L14.5006 60.7773L15.8966 46.725Z" fill="#141414" style="fill:#141414;fill:color(display-p3 0.0784 0.0784 0.0784);fill-opacity:1;"/>
<path d="M84.8782 18.9949C84.9186 19.3669 85.0324 19.6985 85.2198 19.9897C85.4071 20.2809 85.6066 20.5642 85.8182 20.8398C86.0009 20.7291 86.1943 20.5978 86.3985 20.4459C86.6141 20.2797 86.809 20.1028 86.9834 19.9152C87.1691 19.7133 87.315 19.5028 87.4211 19.2836C87.5399 19.0631 87.5868 18.8373 87.5618 18.6064C87.5186 18.2087 87.3691 17.907 87.1131 17.7011C86.8558 17.4824 86.5539 17.3919 86.2076 17.4294C85.8227 17.4712 85.4889 17.6242 85.206 17.8885C84.936 18.1514 84.8268 18.5202 84.8782 18.9949ZM88.5924 28.2876C88.0652 28.812 87.5248 29.2146 86.9712 29.4953C86.4162 29.7631 85.7731 29.9367 85.0419 30.0161C84.4902 30.0759 83.9488 30.0503 83.4176 29.9391C82.8992 29.8266 82.4238 29.6316 81.9913 29.354C81.5716 29.0751 81.2213 28.7172 80.9403 28.2804C80.6579 27.8308 80.484 27.3045 80.4186 26.7016C80.356 26.1243 80.403 25.6001 80.5595 25.1288C80.7147 24.6447 80.9402 24.2114 81.2362 23.8289C81.5436 23.4321 81.9079 23.0811 82.3291 22.7758C82.7488 22.4577 83.192 22.176 83.6586 21.9307C83.4002 21.5823 83.1468 21.2204 82.8984 20.845C82.6614 20.4554 82.5193 20.0425 82.472 19.6063C82.4108 19.0419 82.4463 18.5318 82.5786 18.0762C82.7223 17.6063 82.9442 17.1993 83.2444 16.8553C83.5574 16.5098 83.9364 16.2351 84.3815 16.031C84.8253 15.8142 85.3229 15.6758 85.8746 15.616C86.3492 15.5645 86.8116 15.5792 87.2617 15.6602C87.7117 15.7412 88.1117 15.899 88.4617 16.1336C88.823 16.354 89.1208 16.6462 89.355 17.0101C89.602 17.3727 89.754 17.817 89.8111 18.343C89.8626 18.8176 89.8123 19.2514 89.6602 19.6443C89.5081 20.0372 89.2948 20.4043 89.0204 20.7456C88.7573 21.0726 88.453 21.3782 88.1074 21.6623C87.7604 21.9336 87.4114 22.1856 87.0602 22.4184L88.8007 24.6437C89.0281 24.3465 89.2006 24.0228 89.3184 23.6725C89.449 23.3209 89.5397 22.9606 89.5905 22.5917L92.0343 22.3266C91.9739 23.0859 91.7946 23.8258 91.4963 24.546C91.2095 25.2521 90.8052 25.893 90.2836 26.4687L92.3269 28.9727L89.3251 29.2983L88.5924 28.2876ZM84.973 23.6377C84.7203 23.8208 84.4676 24.004 84.2149 24.1872C83.9736 24.3561 83.7608 24.5479 83.5764 24.7626C83.3921 24.9773 83.2496 25.2199 83.1492 25.4904C83.0473 25.748 83.0159 26.0565 83.0549 26.4157C83.0799 26.6466 83.1542 26.8527 83.2777 27.034C83.4012 27.2153 83.554 27.3674 83.736 27.4904C83.9296 27.5992 84.1395 27.6803 84.366 27.7336C84.591 27.7741 84.8126 27.7825 85.0307 27.7589C85.454 27.7129 85.8469 27.5665 86.2095 27.3195C86.5707 27.0597 86.8978 26.7841 87.1907 26.4927L84.973 23.6377Z" fill="#141414" style="fill:#141414;fill:color(display-p3 0.0784 0.0784 0.0784);fill-opacity:1;"/>
<path d="M62.5499 18.3019L65.571 17.9742L65.0021 23.8572L65.0406 23.853L70.6511 17.4232L74.6536 16.989L68.667 23.3623L73.7578 30.9871L70.3518 31.3565L66.5453 25.5199L64.6461 27.5754L64.2134 32.0224L61.1923 32.3501L62.5499 18.3019Z" fill="#141414" style="fill:#141414;fill:color(display-p3 0.0784 0.0784 0.0784);fill-opacity:1;"/>
<path d="M49.7345 19.6919L60.2217 18.5544L59.9777 21.1507L52.5115 21.9606L52.2151 24.9715L59.1232 24.2222L58.8776 26.6241L51.9695 27.3734L51.6227 30.8181L59.2043 29.9957L58.9411 32.5942L48.3576 33.7422L49.7345 19.6919Z" fill="#141414" style="fill:#141414;fill:color(display-p3 0.0784 0.0784 0.0784);fill-opacity:1;"/>
<path d="M36.8997 21.084L47.387 19.9465L47.1429 22.5428L39.6768 23.3527L39.3804 26.3636L46.2885 25.6143L46.0428 28.0161L39.1347 28.7655L38.788 32.2102L46.3696 31.3878L46.1064 33.9863L35.5229 35.1343L36.8997 21.084Z" fill="#141414" style="fill:#141414;fill:color(display-p3 0.0784 0.0784 0.0784);fill-opacity:1;"/>
<path d="M25.8503 22.2825L28.8906 21.9527L27.7578 33.4066L34.3965 32.6865L34.1333 35.2849L24.4735 36.3327L25.8503 22.2825Z" fill="#141414" style="fill:#141414;fill:color(display-p3 0.0784 0.0784 0.0784);fill-opacity:1;"/>
<path d="M14.5223 32.7981C14.5495 33.2884 14.6518 33.6926 14.8291 34.0109C15.005 34.3163 15.238 34.5506 15.5283 34.7138C15.8186 34.877 16.1546 34.9833 16.5364 35.0328C16.9167 35.0694 17.325 35.064 17.7612 35.0167C18.0691 34.9833 18.3728 34.9114 18.6723 34.8011C18.9718 34.6907 19.2351 34.5453 19.4622 34.3649C19.702 34.1832 19.8857 33.9621 20.0132 33.7016C20.1535 33.4398 20.2049 33.1357 20.1674 32.7893C20.1312 32.4558 19.9993 32.1975 19.7718 32.0145C19.5429 31.8187 19.2533 31.6619 18.9031 31.5442C18.5657 31.425 18.179 31.3307 17.7432 31.2611C17.3201 31.1902 16.89 31.1136 16.4528 31.0312C16.0027 30.9502 15.5626 30.8422 15.1326 30.7071C14.7027 30.5721 14.3056 30.3815 13.9414 30.1355C13.5901 29.888 13.2896 29.5702 13.0398 29.1819C12.8028 28.7923 12.6523 28.3024 12.5883 27.7123C12.5048 26.9426 12.5942 26.271 12.8565 25.6974C13.1188 25.1238 13.4884 24.6424 13.9653 24.2532C14.4409 23.8512 14.991 23.5384 15.6158 23.3149C16.2519 23.0772 16.9035 22.9221 17.5706 22.8498C18.2762 22.7732 18.9459 22.785 19.5797 22.8849C20.225 22.9707 20.7981 23.1681 21.2989 23.4772C21.8125 23.7849 22.2346 24.2064 22.5652 24.7416C22.9073 25.2626 23.1214 25.9208 23.2077 26.7162L20.3406 27.0272C20.3116 26.6409 20.2191 26.3265 20.063 26.0838C19.9183 25.827 19.7215 25.6277 19.4725 25.4859C19.2363 25.3428 18.9608 25.2559 18.646 25.2252C18.3297 25.1816 17.9984 25.1786 17.6521 25.2162C17.3699 25.2468 17.0847 25.3101 16.7966 25.4063C16.5199 25.4882 16.2738 25.6123 16.0582 25.7784C15.8412 25.9318 15.674 26.1251 15.5565 26.3585C15.4391 26.5919 15.3977 26.8689 15.4325 27.1897C15.4687 27.5232 15.6212 27.7922 15.89 27.9967C16.1702 28.1869 16.4918 28.3402 16.8549 28.4566C17.2294 28.5588 17.6075 28.6346 17.9893 28.684C18.3697 28.7206 18.6781 28.7521 18.9146 28.7783C19.4687 28.861 19.9807 28.9742 20.4505 29.1179C20.919 29.2488 21.3296 29.4444 21.6823 29.7047C22.0479 29.9635 22.3434 30.2949 22.5689 30.6987C22.7944 31.1026 22.9406 31.6124 23.0074 32.2282C23.0964 33.0492 22.9991 33.7671 22.7153 34.382C22.4444 34.9954 22.059 35.511 21.5592 35.9286C21.0722 36.3449 20.5035 36.6661 19.8531 36.8924C19.2041 37.1316 18.5525 37.2866 17.8983 37.3576C15.974 37.5663 14.4948 37.3309 13.4606 36.6513C12.4392 35.9704 11.8374 34.7897 11.6551 33.1091L14.5223 32.7981Z" fill="#141414" style="fill:#141414;fill:color(display-p3 0.0784 0.0784 0.0784);fill-opacity:1;"/>
<path d="M123.7 74.5611C123.391 74.8642 123.131 75.1036 122.947 75.2688C122.849 75.356 122.75 75.4422 122.65 75.5269L122.649 75.5272C122.58 75.5841 122.499 75.6242 122.412 75.6441C122.325 75.6641 122.235 75.6634 122.148 75.6421C122.021 75.6098 121.894 75.5756 121.768 75.5394C120.368 75.1363 119.011 74.6043 117.714 73.9502C115.463 72.8037 112.887 70.9501 112.259 68.2141C111.69 65.734 113.334 63.4316 115.455 62.9448C117.128 62.5607 118.68 63.1292 119.806 64.2883C120.314 62.7543 121.462 61.566 123.135 61.1819C125.255 60.6953 127.74 62.0501 128.309 64.531C128.937 67.2669 127.427 70.0591 125.901 72.0704C125.228 72.9509 124.493 73.7833 123.7 74.5611Z" fill="#141414" style="fill:#141414;fill:color(display-p3 0.0784 0.0784 0.0784);fill-opacity:1;"/>
</svg>
