<svg width="132" height="125" viewBox="0 0 132 125" fill="none" xmlns="http://www.w3.org/2000/svg">
<circle cx="71.715" cy="70.7681" r="53.5652" fill="#778FE2" style="fill:#778FE2;fill:color(display-p3 0.4683 0.5600 0.8850);fill-opacity:1;"/>
<path fill-rule="evenodd" clip-rule="evenodd" d="M109.527 83.9084C104.621 98.7201 90.6599 109.406 74.2028 109.406C69.9078 109.406 65.7827 108.678 61.9442 107.339L59.9221 111.928C64.3822 113.532 69.1905 114.406 74.2028 114.406C92.9945 114.406 108.918 102.124 114.383 85.1495L109.527 83.9084Z" fill="white" style="fill:white;fill-opacity:1;"/>
<path d="M56.2873 51.2495C65.2727 60.5653 81.2978 60.7174 93.8095 51.6057C82.4087 62.0741 79.3966 77.8143 86.7568 88.4608C77.7714 79.1451 61.7464 78.993 49.2347 88.1047C60.6354 77.6362 63.6475 61.8961 56.2873 51.2495Z" fill="white" style="fill:white;fill-opacity:1;"/>
<path d="M50.3133 114.801L48.7136 113.823L53.3715 106.017L48.7261 103.176L49.5562 101.785L55.8013 105.604L50.3133 114.801Z" fill="white" style="fill:white;fill-opacity:1;"/>
<path d="M44.6333 96.3734C45.0432 96.8386 45.3355 97.3215 45.5101 97.8221C45.6706 98.3218 45.7287 98.8189 45.6846 99.3134C45.6339 99.8003 45.4813 100.278 45.2269 100.745C44.9658 101.205 44.6112 101.634 44.163 102.033C43.7223 102.426 43.259 102.724 42.7732 102.929C42.2807 103.127 41.7909 103.221 41.3039 103.213C40.8102 103.197 40.33 103.076 39.8632 102.849C39.3824 102.621 38.937 102.274 38.5271 101.809C38.1172 101.344 37.832 100.861 37.6715 100.362C37.4969 99.861 37.435 99.3672 37.4857 98.8803C37.5298 98.3858 37.6824 97.9086 37.9435 97.4486C38.198 96.9811 38.5455 96.5512 38.9862 96.1589C39.4344 95.76 39.9047 95.4618 40.3972 95.2644C40.883 95.0595 41.3728 94.9649 41.8665 94.9806C42.3536 94.9889 42.8375 95.107 43.3184 95.335C43.7851 95.5621 44.2234 95.9083 44.6333 96.3734ZM43.625 97.271C43.3737 96.9859 43.0958 96.7915 42.7912 96.6879C42.4865 96.5842 42.1776 96.5512 41.8644 96.5891C41.5512 96.6269 41.2486 96.7222 40.9567 96.8749C40.6507 97.0268 40.3707 97.2158 40.1168 97.4419C39.8703 97.6613 39.6536 97.9144 39.4666 98.2014C39.273 98.4808 39.1423 98.7712 39.0746 99.0724C38.9994 99.3804 38.9946 99.6925 39.0602 100.009C39.1258 100.325 39.2842 100.626 39.5355 100.911C39.7867 101.196 40.0647 101.391 40.3693 101.495C40.6739 101.598 40.9828 101.631 41.296 101.593C41.6018 101.562 41.9077 101.471 42.2136 101.319C42.513 101.159 42.786 100.97 43.0325 100.75C43.2864 100.524 43.5102 100.272 43.7038 99.9922C43.8833 99.7119 44.0107 99.4178 44.0859 99.1099C44.1611 98.802 44.1658 98.4898 44.1002 98.1734C44.0346 97.8569 43.8762 97.5561 43.625 97.271Z" fill="white" style="fill:white;fill-opacity:1;"/>
<path d="M33.2381 94.1058L32.456 92.4182L37.0371 88.1407L37.0245 88.1135L30.8225 88.8933L30.0783 87.2873L38.2869 86.5565L39.0942 88.2986L33.2381 94.1058Z" fill="white" style="fill:white;fill-opacity:1;"/>
<path d="M30.8677 75.7803C30.6031 75.8369 30.3542 75.9318 30.1211 76.0648C29.8865 76.188 29.6924 76.346 29.5388 76.5387C29.3738 76.723 29.2543 76.9413 29.1802 77.1938C29.0947 77.4377 29.073 77.7032 29.1151 77.9901C29.1587 78.2869 29.2531 78.5515 29.3984 78.7838C29.5323 79.0076 29.7065 79.1956 29.9208 79.3478C30.1239 79.4914 30.3572 79.6006 30.6208 79.6753C30.883 79.7401 31.1585 79.7577 31.4472 79.728L30.8677 75.7803ZM32.5617 79.5744C32.8589 79.5335 33.1403 79.4543 33.4061 79.3369C33.6704 79.2097 33.8942 79.0476 34.0776 78.8508C34.2609 78.6539 34.3981 78.418 34.4891 78.143C34.5702 77.8694 34.5846 77.5545 34.5324 77.1983C34.4597 76.7036 34.2976 76.3222 34.046 76.054C33.783 75.7773 33.4277 75.5941 32.9799 75.5044L32.7446 73.9016C33.1738 73.9333 33.5678 74.0355 33.9266 74.2081C34.2855 74.3807 34.6014 74.6047 34.8742 74.88C35.1372 75.1567 35.3515 75.4805 35.5171 75.8513C35.6912 76.2109 35.8087 76.5985 35.8697 77.014C35.9583 77.6175 35.9377 78.1655 35.8078 78.6578C35.678 79.1501 35.4587 79.5841 35.15 79.9597C34.8398 80.3255 34.4494 80.6265 33.9788 80.863C33.5067 81.0895 32.9735 81.2438 32.3791 81.3257C31.8343 81.4007 31.3068 81.3876 30.7967 81.2863C30.2752 81.1764 29.808 80.9885 29.395 80.7224C28.9706 80.4477 28.616 80.0979 28.3313 79.6728C28.0465 79.2477 27.862 78.7482 27.7778 78.1744C27.6892 77.5708 27.7388 77.0139 27.9266 76.5035C28.1031 75.9845 28.3762 75.5381 28.7458 75.1642C29.1153 74.7902 29.5624 74.4965 30.0869 74.2829C30.6001 74.0608 31.149 73.9448 31.7338 73.9349L32.5617 79.5744Z" fill="white" style="fill:white;fill-opacity:1;"/>
<path d="M32.9925 67.4695C33.4935 67.498 33.8666 67.3646 34.1115 67.0692C34.3565 66.7738 34.512 66.3985 34.5781 65.9433C34.6011 65.7849 34.617 65.6052 34.626 65.4042C34.6266 65.1917 34.6052 64.9909 34.5619 64.8019C34.5186 64.6128 34.4407 64.4537 34.3281 64.3246C34.207 64.184 34.0371 64.1015 33.8184 64.0771C33.5996 64.0526 33.4103 64.1037 33.2505 64.2303C33.0907 64.357 32.954 64.5328 32.8405 64.7578C32.7186 64.9714 32.6064 65.2219 32.504 65.5095C32.4017 65.797 32.2937 66.0887 32.18 66.3846C32.0649 66.6903 31.9364 66.9839 31.7945 67.2651C31.6541 67.5365 31.4827 67.7777 31.2803 67.9887C31.0793 68.1898 30.8404 68.3394 30.5634 68.4374C30.2766 68.5338 29.9406 68.5516 29.5554 68.4908C29.1405 68.4253 28.8092 68.2717 28.5613 68.0301C28.305 67.7771 28.1152 67.4839 27.9918 67.1506C27.86 66.8058 27.7868 66.44 27.7722 66.053C27.7591 65.6561 27.7777 65.2845 27.828 64.9381C27.8855 64.5423 27.9845 64.1732 28.1251 63.831C28.2573 63.4773 28.438 63.1718 28.6674 62.9144C28.8981 62.6472 29.1803 62.4437 29.5138 62.304C29.8388 62.1529 30.2173 62.0861 30.6492 62.1037L30.3928 63.8702C29.9763 63.8854 29.6774 64.0306 29.496 64.3056C29.3161 64.5708 29.1988 64.8914 29.1442 65.2674C29.127 65.3862 29.116 65.5313 29.1114 65.7026C29.1081 65.8641 29.1254 66.0237 29.1631 66.1815C29.1924 66.3278 29.2542 66.4591 29.3484 66.5752C29.4329 66.6898 29.559 66.7603 29.7269 66.7868C29.9344 66.8196 30.1123 66.7768 30.2609 66.6585C30.4108 66.5304 30.5468 66.3595 30.6687 66.1459C30.7822 65.9209 30.8901 65.6646 30.9925 65.3771C31.0949 65.0896 31.2036 64.7929 31.3187 64.4871C31.4324 64.1913 31.5602 63.9027 31.702 63.6214C31.8439 63.3401 32.0153 63.0989 32.2163 62.8978C32.4187 62.6868 32.6584 62.5323 32.9353 62.4343C33.2137 62.3264 33.5405 62.3021 33.9159 62.3614C34.3702 62.4332 34.7404 62.5979 35.0263 62.8556C35.3122 63.1134 35.5295 63.4261 35.6782 63.7937C35.8284 64.1515 35.9184 64.5403 35.9484 64.9601C35.9784 65.3799 35.9647 65.7877 35.9072 66.1835C35.8369 66.6684 35.7172 67.1101 35.5482 67.5086C35.3806 67.8972 35.1659 68.2277 34.9041 68.5002C34.6338 68.7612 34.3228 68.9551 33.9709 69.0817C33.6107 69.1969 33.2026 69.2236 32.7468 69.1618L32.9925 67.4695Z" fill="white" style="fill:white;fill-opacity:1;"/>
<path d="M32.0232 45.7291L37.2957 38.8466L38.5729 39.8433L36.5022 42.5463L43.6682 48.1387L42.528 49.6271L35.3619 44.0347L33.3003 46.7258L32.0232 45.7291Z" fill="white" style="fill:white;fill-opacity:1;"/>
<path d="M43.2023 37.4535L44.726 36.3609L49.7341 39.8945L49.7585 39.877L47.9929 34.0183L49.4436 32.9781L51.7408 41.3903C51.8303 41.7568 51.911 42.1111 51.9831 42.4532C52.0633 42.7895 52.0918 43.1136 52.0686 43.4255C52.0594 43.7398 51.9776 44.0384 51.8232 44.3213C51.6747 44.6124 51.4175 44.8891 51.0518 45.1513C50.7268 45.3844 50.3884 45.5902 50.0366 45.7686L49.2003 44.5963C49.3257 44.531 49.447 44.4686 49.5643 44.4091C49.6874 44.3578 49.8058 44.2914 49.9196 44.2098C50.0821 44.0932 50.2017 43.9767 50.2783 43.8603C50.3549 43.7438 50.3967 43.6216 50.4036 43.4935C50.4245 43.3678 50.4216 43.2346 50.3948 43.0938C50.3681 42.953 50.3257 42.7988 50.2676 42.6313L50.0776 42.0292L43.2023 37.4535Z" fill="white" style="fill:white;fill-opacity:1;"/>
<path d="M54.7655 30.4115L56.3054 29.9084L56.6365 30.9048L56.665 30.8955C56.7513 30.394 56.9688 29.9863 57.3176 29.6724C57.6633 29.3491 58.0738 29.1098 58.549 28.9546C59.1289 28.7652 59.6674 28.705 60.1645 28.774C60.668 28.8305 61.1223 28.9924 61.5273 29.2599C61.9291 29.5178 62.2802 29.8608 62.5804 30.2887C62.8807 30.7166 63.1207 31.201 63.3005 31.7419C63.4645 32.2354 63.5572 32.7363 63.5786 33.2448C63.6096 33.7502 63.5519 34.2266 63.4056 34.6742C63.2656 35.1091 63.0323 35.501 62.7056 35.8496C62.3757 36.1888 61.9399 36.4469 61.398 36.6239C61.1604 36.7015 60.9149 36.7555 60.6615 36.7856C60.4112 36.8253 60.161 36.8334 59.9108 36.8099C59.6607 36.7864 59.4169 36.7346 59.1794 36.6543C58.9484 36.5615 58.7379 36.4356 58.5481 36.2767L58.5196 36.286L59.7401 39.9585L58.1146 40.4895L54.7655 30.4115ZM61.6655 32.2444C61.5552 31.9123 61.4052 31.6036 61.2155 31.3184C61.0259 31.0332 60.8061 30.7999 60.5562 30.6185C60.3031 30.4277 60.0246 30.303 59.7206 30.2445C59.4135 30.1765 59.0936 30.1969 58.7609 30.3055C58.0765 30.5291 57.6373 30.9356 57.4432 31.525C57.2587 32.1112 57.2973 32.7982 57.5591 33.5859C57.6821 33.956 57.84 34.2884 58.0327 34.5831C58.2319 34.8652 58.4596 35.0906 58.7159 35.2594C58.9722 35.4281 59.246 35.5385 59.5373 35.5907C59.8381 35.6397 60.1548 35.6099 60.4875 35.5012C60.8582 35.3801 61.1467 35.2017 61.3529 34.966C61.5591 34.7303 61.7036 34.4675 61.7863 34.1774C61.8754 33.8748 61.9028 33.5608 61.8684 33.2354C61.8404 32.8974 61.7728 32.5671 61.6655 32.2444Z" fill="white" style="fill:white;fill-opacity:1;"/>
<path d="M74.1454 30.3602C74.1226 30.0902 74.0599 29.8302 73.9573 29.5801C73.8647 29.3301 73.7325 29.115 73.5606 28.9349C73.3986 28.7448 73.197 28.5947 72.9559 28.4846C72.7246 28.3645 72.464 28.3043 72.174 28.3042C71.874 28.304 71.5996 28.3589 71.3507 28.4687C71.1118 28.5686 70.9033 28.7134 70.7253 28.9033C70.5571 29.0832 70.4194 29.2981 70.312 29.5481C70.2146 29.798 70.1624 30.0679 70.1554 30.3579L74.1454 30.3602ZM70.1672 31.4829C70.1703 31.7828 70.2133 32.0729 70.2963 32.3529C70.3892 32.6329 70.5217 32.878 70.6939 33.0881C70.8661 33.2981 71.0829 33.4683 71.3443 33.5984C71.6055 33.7185 71.9161 33.7787 72.2761 33.7789C72.7761 33.7792 73.175 33.6744 73.4729 33.4646C73.7806 33.2448 74.0072 32.9199 74.1527 32.49L75.7727 32.491C75.6871 32.9109 75.536 33.2858 75.3194 33.6156C75.1029 33.9455 74.8408 34.2253 74.5332 34.4551C74.2255 34.675 73.8772 34.8397 73.4883 34.9495C73.1096 35.0693 72.7102 35.1291 72.2902 35.1288C71.6802 35.1285 71.1392 35.0282 70.6671 34.8279C70.195 34.6277 69.7921 34.3475 69.4583 33.9873C69.1346 33.6272 68.8851 33.197 68.7099 32.697C68.5446 32.1969 68.4589 31.6469 68.4526 31.0469C68.4469 30.497 68.5265 29.977 68.6914 29.4872C68.8661 28.9873 69.1116 28.5524 69.4277 28.1826C69.7538 27.8029 70.1457 27.5031 70.6034 27.2834C71.0611 27.0636 71.5799 26.9539 72.1599 26.9543C72.7699 26.9546 73.3163 27.0849 73.799 27.3452C74.2916 27.5954 74.7001 27.9306 75.0245 28.3508C75.3489 28.7709 75.5839 29.256 75.7297 29.8061C75.8853 30.3462 75.9311 30.9061 75.8672 31.4861L70.1672 31.4829Z" fill="white" style="fill:white;fill-opacity:1;"/>
<path d="M82.0195 33.7698C81.929 34.2647 82.014 34.6559 82.2746 34.9435C82.5352 35.231 82.8856 35.4413 83.326 35.5742C83.4792 35.6204 83.6543 35.6628 83.8513 35.7014C84.0606 35.7333 84.2611 35.7416 84.4528 35.7263C84.6445 35.7111 84.811 35.6569 84.9523 35.5637C85.1059 35.4639 85.2084 35.3068 85.2597 35.0925C85.311 34.8782 85.2842 34.6821 85.1794 34.5042C85.0745 34.3264 84.9183 34.1643 84.7106 34.0181C84.5154 33.8651 84.2824 33.7165 84.0118 33.5721C83.7412 33.4278 83.4672 33.2772 83.1898 33.1203C82.9029 32.9606 82.6296 32.7893 82.3701 32.6065C82.1201 32.4266 81.9038 32.2203 81.7211 31.9876C81.5479 31.7578 81.4303 31.4977 81.3683 31.2074C81.3089 30.9075 81.3333 30.5702 81.4412 30.1954C81.5574 29.7918 81.75 29.4844 82.019 29.2731C82.3003 29.0551 82.6128 28.9092 82.9566 28.8355C83.3128 28.755 83.6825 28.736 84.0656 28.7785C84.4584 28.824 84.8223 28.8973 85.1573 28.9984C85.5403 29.114 85.8916 29.267 86.2113 29.4576C86.5434 29.6414 86.822 29.8665 87.047 30.1328C87.2816 30.4021 87.447 30.7131 87.5431 31.0659C87.6515 31.412 87.6702 31.7989 87.5991 32.2265L85.8902 31.7107C85.9271 31.2936 85.8213 30.9744 85.5728 30.7532C85.334 30.5349 85.0326 30.3708 84.6688 30.261C84.554 30.2263 84.4124 30.194 84.2441 30.1641C84.0854 30.1371 83.9259 30.1308 83.7657 30.1451C83.6179 30.1527 83.4808 30.1949 83.3547 30.2717C83.2313 30.3389 83.146 30.4541 83.099 30.6175C83.0409 30.8193 83.0608 31.0029 83.1589 31.1683C83.2665 31.3365 83.418 31.4971 83.6132 31.6501C83.8209 31.7963 84.06 31.9416 84.3306 32.086C84.6012 32.2303 84.88 32.3824 85.1669 32.5421C85.4443 32.6989 85.7128 32.8688 85.9723 33.0516C86.2318 33.2343 86.4482 33.4406 86.6213 33.6705C86.804 33.9032 86.9264 34.1647 86.9885 34.455C87.0602 34.7482 87.0434 35.0774 86.9382 35.4425C86.8109 35.8846 86.6025 36.229 86.3129 36.4758C86.0233 36.7226 85.6881 36.893 85.3072 36.9869C84.936 37.0838 84.5416 37.1162 84.1242 37.0842C83.7068 37.0522 83.3066 36.9784 82.9237 36.8628C82.4546 36.7212 82.0342 36.5369 81.6626 36.3098C81.3005 36.0856 81.0015 35.823 80.7656 35.522C80.5421 35.2143 80.3898 34.8759 80.3088 34.5068C80.2402 34.1309 80.2647 33.7205 80.3824 33.2756L82.0195 33.7698Z" fill="white" style="fill:white;fill-opacity:1;"/>
<path d="M96.9929 38.0413C97.1949 37.5995 97.2274 37.1896 97.0906 36.8117C96.9675 36.4308 96.7057 36.1081 96.3052 35.8436C96.1216 35.7224 95.9038 35.6265 95.6518 35.5559C95.4052 35.4769 95.1373 35.4678 94.8482 35.5285C94.5644 35.5808 94.2638 35.7238 93.9463 35.9575C93.6342 36.1827 93.3181 36.5432 92.9981 37.0389C92.8245 37.3077 92.6801 37.5958 92.5649 37.9032C92.4581 38.2161 92.4036 38.5217 92.4015 38.8199C92.4078 39.1236 92.476 39.4143 92.6062 39.692C92.7417 39.9613 92.9639 40.1979 93.2727 40.4018C93.6899 40.6773 94.1161 40.773 94.5513 40.6889C94.9948 40.6104 95.4018 40.3579 95.7724 39.9315L97.1993 40.8739C96.5179 41.6342 95.7762 42.0731 94.9743 42.1906C94.1861 42.3052 93.3748 42.0869 92.5404 41.5359C92.0313 41.1997 91.635 40.8181 91.3513 40.3911C91.0813 39.9612 90.9078 39.5111 90.8306 39.0407C90.7589 38.5619 90.785 38.0699 90.9089 37.5645C91.0412 37.0647 91.2619 36.5754 91.5711 36.0965C91.8858 35.6093 92.2482 35.1955 92.6583 34.8552C93.0685 34.515 93.5074 34.2776 93.9752 34.1431C94.4483 34.0002 94.938 33.9701 95.4441 34.0526C95.9639 34.1323 96.4909 34.3485 97.025 34.7012C97.4005 34.9492 97.7226 35.2338 97.9913 35.5551C98.2737 35.8734 98.4819 36.2146 98.6158 36.5787C98.7581 36.9482 98.8177 37.3351 98.7948 37.7394C98.7718 38.1436 98.6468 38.5584 98.4198 38.9837L96.9929 38.0413Z" fill="white" style="fill:white;fill-opacity:1;"/>
<path d="M104.607 41.3611L105.665 42.568L104.542 43.5623L104.562 43.5849C104.752 43.4833 104.968 43.4189 105.21 43.3916C105.459 43.3718 105.709 43.3841 105.96 43.4284C106.226 43.4737 106.479 43.5571 106.718 43.6788C106.958 43.8006 107.164 43.9592 107.335 44.1547C107.467 44.3051 107.552 44.4099 107.591 44.4692C107.636 44.536 107.681 44.6028 107.726 44.6696L106.491 45.7633C106.427 45.6598 106.356 45.5559 106.277 45.4515C106.213 45.348 106.142 45.2511 106.063 45.1609C105.871 44.9428 105.645 44.7757 105.384 44.6598C105.137 44.5447 104.865 44.4919 104.567 44.5015C104.277 44.5045 103.972 44.5739 103.653 44.71C103.333 44.846 103.012 45.0565 102.69 45.3415L99.9276 47.7875L98.8005 46.5016L104.607 41.3611Z" fill="white" style="fill:white;fill-opacity:1;"/>
<path d="M113.562 48.5081L114.391 50.0036L112.974 50.7885L112.145 49.293L113.562 48.5081ZM110.977 49.9399L111.806 51.4354L105.022 55.1929L104.193 53.6974L110.977 49.9399Z" fill="white" style="fill:white;fill-opacity:1;"/>
<path d="M114.838 58.1308L115.239 59.7004L114.22 59.9534L114.227 59.9825C114.723 60.1066 115.117 60.3541 115.407 60.7249C115.708 61.0933 115.92 61.5198 116.044 62.0042C116.195 62.5953 116.219 63.1353 116.117 63.6243C116.027 64.1206 115.835 64.5598 115.54 64.9421C115.255 65.3219 114.889 65.6447 114.441 65.9105C113.993 66.1763 113.492 66.3779 112.939 66.5153C112.434 66.6406 111.927 66.6944 111.416 66.6768C110.909 66.6689 110.436 66.5751 109.998 66.3954C109.572 66.223 109.195 65.961 108.868 65.6095C108.55 65.2555 108.321 64.8024 108.18 64.2502C108.118 64.0079 108.081 63.7597 108.067 63.5054C108.044 63.2536 108.053 63.0042 108.093 62.7572C108.133 62.5103 108.201 62.2718 108.297 62.0419C108.406 61.8193 108.546 61.6197 108.717 61.4431L108.71 61.414L104.954 62.3465L104.531 60.6897L114.838 58.1308ZM112.545 64.8512C112.884 64.7669 113.203 64.6414 113.501 64.4746C113.799 64.3079 114.047 64.1072 114.245 63.8726C114.453 63.6356 114.596 63.3682 114.675 63.0704C114.764 62.7703 114.764 62.4506 114.678 62.1115C114.5 61.4139 114.122 60.9461 113.545 60.7081C112.971 60.4798 112.281 60.4656 111.476 60.6656C111.097 60.7596 110.754 60.8911 110.446 61.0602C110.151 61.2366 109.91 61.4458 109.724 61.6877C109.538 61.9296 109.409 62.1934 109.338 62.4791C109.269 62.7744 109.278 63.0916 109.364 63.4307C109.461 63.8086 109.62 64.1091 109.842 64.3321C110.064 64.5552 110.318 64.7189 110.602 64.8234C110.899 64.9352 111.212 64.9864 111.539 64.9771C111.88 64.9751 112.215 64.9331 112.545 64.8512Z" fill="white" style="fill:white;fill-opacity:1;"/>
<path d="M117.173 71.503L117.151 72.7928L119.475 72.8604L119.444 74.5701L117.12 74.5025L117.093 76.0473L115.818 76.0102L115.846 74.4654L111.708 74.345C111.528 74.3398 111.373 74.3402 111.242 74.3465C111.112 74.3627 111.002 74.3945 110.911 74.4418C110.82 74.4992 110.748 74.5822 110.696 74.6907C110.654 74.7995 110.632 74.9489 110.628 75.1389C110.626 75.2589 110.624 75.3788 110.622 75.4988C110.63 75.6191 110.648 75.7397 110.676 75.8605L109.356 75.8221C109.339 75.6316 109.323 75.446 109.306 75.2655C109.289 75.0849 109.282 74.8996 109.286 74.7097C109.294 74.2597 109.34 73.896 109.425 73.6183C109.52 73.351 109.649 73.1397 109.812 72.9843C109.984 72.8393 110.196 72.7404 110.447 72.6877C110.698 72.645 110.983 72.6233 111.303 72.6226L115.876 72.7557L115.899 71.4659L117.173 71.503Z" fill="white" style="fill:white;fill-opacity:1;"/>
</svg>
